<svg class="animated" id="freepik_stories-autism" xmlns="http://www.w3.org/2000/svg" viewBox="0 0 500 500" version="1.1" xmlns:xlink="http://www.w3.org/1999/xlink" xmlns:svgjs="http://svgjs.com/svgjs"><style>svg#freepik_stories-autism:not(.animated) .animable {opacity: 0;}svg#freepik_stories-autism.animated #freepik--background-simple--inject-3 {animation: 1s 1 forwards cubic-bezier(.36,-0.01,.5,1.38) slideDown;animation-delay: 0s;}svg#freepik_stories-autism.animated #freepik--Shadow--inject-3 {animation: 1s 1 forwards cubic-bezier(.36,-0.01,.5,1.38) slideUp;animation-delay: 0s;}svg#freepik_stories-autism.animated #freepik--Ribbon--inject-3 {animation: 1s 1 forwards cubic-bezier(.36,-0.01,.5,1.38) slideLeft;animation-delay: 0s;}svg#freepik_stories-autism.animated #freepik--character-2--inject-3 {animation: 1s 1 forwards cubic-bezier(.36,-0.01,.5,1.38) zoomOut;animation-delay: 0s;}svg#freepik_stories-autism.animated #freepik--Table--inject-3 {animation: 1s 1 forwards cubic-bezier(.36,-0.01,.5,1.38) slideUp;animation-delay: 0s;}svg#freepik_stories-autism.animated #freepik--character-1--inject-3 {animation: 1s 1 forwards cubic-bezier(.36,-0.01,.5,1.38) lightSpeedLeft;animation-delay: 0s;}            @keyframes slideDown {                0% {                    opacity: 0;                    transform: translateY(-30px);                }                100% {                    opacity: 1;                    transform: translateY(0);                }            }                    @keyframes slideUp {                0% {                    opacity: 0;                    transform: translateY(30px);                }                100% {                    opacity: 1;                    transform: inherit;                }            }                    @keyframes slideLeft {                0% {                    opacity: 0;                    transform: translateX(-30px);                }                100% {                    opacity: 1;                    transform: translateX(0);                }            }                    @keyframes zoomOut {                0% {                    opacity: 0;                    transform: scale(1.5);                }                100% {                    opacity: 1;                    transform: scale(1);                }            }                    @keyframes lightSpeedLeft {              from {                transform: translate3d(-50%, 0, 0) skewX(20deg);                opacity: 0;              }              60% {                transform: skewX(-10deg);                opacity: 1;              }              80% {                transform: skewX(2deg);              }              to {                opacity: 1;                transform: translate3d(0, 0, 0);              }            }        </style><g id="freepik--background-simple--inject-3" class="animable" style="transform-origin: 247.082px 239.652px;"><path d="M416.85,214.8c0-25.54-2.47-51.1-14.45-74.17C380.67,98.79,336,79.27,292.06,75.42c-41.65-3.66-95.23-.17-126.5,33.7-21.76,23.58-23.67,56.44-19.4,86.67,4.25,30-21.15,47.76-40.14,66.1-24.26,23.43-35.59,50.64-24.34,83.93,12.26,36.26,53.85,54,89.44,58.17,51.1,6,99.45-14.67,142.34-39.75C363.45,335,416.88,277,416.85,214.8Z" style="fill: rgb(64, 127, 255); transform-origin: 247.082px 239.652px;" id="eljv7k0ktj86f" class="animable"></path><g id="el862mth11i3"><path d="M416.85,214.8c0-25.54-2.47-51.1-14.45-74.17C380.67,98.79,336,79.27,292.06,75.42c-41.65-3.66-95.23-.17-126.5,33.7-21.76,23.58-23.67,56.44-19.4,86.67,4.25,30-21.15,47.76-40.14,66.1-24.26,23.43-35.59,50.64-24.34,83.93,12.26,36.26,53.85,54,89.44,58.17,51.1,6,99.45-14.67,142.34-39.75C363.45,335,416.88,277,416.85,214.8Z" style="fill: rgb(255, 255, 255); opacity: 0.9; transform-origin: 247.082px 239.652px;" class="animable"></path></g></g><g id="freepik--Shadow--inject-3" class="animable" style="transform-origin: 245.18px 413.82px;"><ellipse id="freepik--path--inject-3" cx="245.18" cy="413.82" rx="218.42" ry="12.76" style="fill: rgb(245, 245, 245); transform-origin: 245.18px 413.82px;" class="animable"></ellipse></g><g id="freepik--Ribbon--inject-3" class="animable" style="transform-origin: 287.235px 145.56px;"><path d="M244,87.06s15.42-11.74,43.29-11.74c28.87,0,43.27,11.74,43.27,11.74l.29-12L320,56.69s-10.89-8.88-32.72-8.88c-21.07,0-32.73,8.88-32.73,8.88L244.34,73.2Z" style="fill: rgb(64, 127, 255); transform-origin: 287.425px 67.435px;" id="elq06yo7y878" class="animable"></path><g id="eleg9ank9yme4"><path d="M244,87.06s15.42-11.74,43.29-11.74c28.87,0,43.27,11.74,43.27,11.74l.29-12L320,56.69s-10.89-8.88-32.72-8.88c-21.07,0-32.73,8.88-32.73,8.88L244.34,73.2Z" style="opacity: 0.2; transform-origin: 287.425px 67.435px;" class="animable"></path></g><path d="M246.32,82.86a5.35,5.35,0,0,1,3.73-5.11,55,55,0,0,0,2,10.47h-.32A5.36,5.36,0,0,1,246.32,82.86Z" style="fill: rgb(64, 127, 255); transform-origin: 249.185px 82.9851px;" id="elfqjlo8a3gy" class="animable"></path><path d="M255.12,97h-.75V95.14C254.61,95.74,254.85,96.35,255.12,97Z" style="fill: rgb(64, 127, 255); transform-origin: 254.745px 96.07px;" id="elwvyutd5pebi" class="animable"></path><path d="M298.18,164.08a5.36,5.36,0,0,1-5.37-5.36v-3.18h-9.23V146.8h-2.69a5.37,5.37,0,0,1,0-10.74h.49c7.49,9.15,14.64,17.61,21.47,25.29A5.36,5.36,0,0,1,298.18,164.08Z" style="fill: rgb(64, 127, 255); transform-origin: 289.185px 150.07px;" id="elkgd56mey2n" class="animable"></path><path d="M274.34,127.38V129a5.37,5.37,0,1,1-10.74,0v-2.84h-9.23V97h.75c3.51,8.3,9.15,17.87,17.86,28.73Z" style="fill: rgb(64, 127, 255); transform-origin: 264.355px 115.69px;" id="eldftvux4ingg" class="animable"></path><g id="elkj3bfcg8wno"><path d="M274.34,127.38V129a5.37,5.37,0,1,1-10.74,0v-2.84h-9.23V97h.75c3.51,8.3,9.15,17.87,17.86,28.73Z" style="fill: rgb(255, 255, 255); opacity: 0.2; transform-origin: 264.355px 115.69px;" class="animable"></path></g><path d="M254.37,56.87a25.83,25.83,0,0,0-4,10.73h-4.13a55.71,55.71,0,0,1,8.12-10.78Z" style="fill: rgb(64, 127, 255); transform-origin: 250.305px 62.21px;" id="el4o2x2qcxuqq" class="animable"></path><path d="M245.13,69.56v.88a5.35,5.35,0,0,1-2.73,4.67C243.28,73.11,244.2,71.25,245.13,69.56Z" style="fill: rgb(64, 127, 255); transform-origin: 243.765px 72.335px;" id="el5w96s1r1p1x" class="animable"></path><path d="M245.13,70.44v-.88c.34-.62.69-1.22,1-1.8h4.2a40.89,40.89,0,0,0-.31,10,5.36,5.36,0,0,0,1.64,10.47H252a71,71,0,0,0,2.36,6.92V97h-9.24v3.18a5.37,5.37,0,0,1-8.33,4.48,68.11,68.11,0,0,1,5.6-29.51A5.35,5.35,0,0,0,245.13,70.44Z" style="fill: rgb(64, 127, 255); transform-origin: 245.554px 86.6547px;" id="elmyyz53sbrt" class="animable"></path><g id="el9t2p27i32r"><path d="M245.13,70.44v-.88c.34-.62.69-1.22,1-1.8h4.2a40.89,40.89,0,0,0-.31,10,5.36,5.36,0,0,0,1.64,10.47H252a71,71,0,0,0,2.36,6.92V97h-9.24v3.18a5.37,5.37,0,0,1-8.33,4.48,68.11,68.11,0,0,1,5.6-29.51A5.35,5.35,0,0,0,245.13,70.44Z" style="fill: rgb(255, 255, 255); opacity: 0.2; transform-origin: 245.554px 86.6547px;" class="animable"></path></g><path d="M239.77,105.51a5.36,5.36,0,0,0,5.36-5.37V97h9.24v29.21h-9.24V129a5.37,5.37,0,0,1-2,4.17,82.52,82.52,0,0,1-6.35-28.56A5.38,5.38,0,0,0,239.77,105.51Z" style="fill: rgb(64, 127, 255); transform-origin: 245.575px 115.085px;" id="elt6oznttbgds" class="animable"></path><g id="ell5rkx0tydhr"><path d="M239.77,105.51a5.36,5.36,0,0,0,5.36-5.37V97h9.24v29.21h-9.24V129a5.37,5.37,0,0,1-2,4.17,82.52,82.52,0,0,1-6.35-28.56A5.38,5.38,0,0,0,239.77,105.51Z" style="fill: rgb(255, 255, 255); opacity: 0.6; transform-origin: 245.575px 115.085px;" class="animable"></path></g><path d="M342,205.37H339.3a5.37,5.37,0,0,1-2.11-10.3c11.68,9.24,22.27,14.65,32,15.52l-2.71,3.52H362v3.18a5.37,5.37,0,0,1-10.74,0v-3.18H342Z" style="fill: rgb(64, 127, 255); transform-origin: 351.569px 208.865px;" id="ely5jf6pqg7f8" class="animable"></path><g id="elzvp1mo6s2v"><path d="M342,205.37H339.3a5.37,5.37,0,0,1-2.11-10.3c11.68,9.24,22.27,14.65,32,15.52l-2.71,3.52H362v3.18a5.37,5.37,0,0,1-10.74,0v-3.18H342Z" style="fill: rgb(255, 255, 255); opacity: 0.5; transform-origin: 351.569px 208.865px;" class="animable"></path></g><path d="M331.82,190.61a5.37,5.37,0,0,1-9.8-3v-2.85h-9.24V172.2C319.43,179.22,325.77,185.39,331.82,190.61Z" style="fill: rgb(64, 127, 255); transform-origin: 322.3px 182.573px;" id="eli0pdqovb2ij" class="animable"></path><g id="elrq0skz20lup"><path d="M331.82,190.61a5.37,5.37,0,0,1-9.8-3v-2.85h-9.24V172.2C319.43,179.22,325.77,185.39,331.82,190.61Z" style="fill: rgb(255, 255, 255); opacity: 0.5; transform-origin: 322.3px 182.573px;" class="animable"></path></g><path d="M292.81,187.59v-2.85h-9.23v-9.07h-2.69a5.37,5.37,0,0,1,0-10.74h2.69v-9.39h9.23v3.18a5.37,5.37,0,0,0,10,2.63q5.08,5.72,9.93,10.85v12.54h-9.23v2.85a5.37,5.37,0,0,1-10.74,0Z" style="fill: rgb(64, 127, 255); transform-origin: 294.134px 174.25px;" id="elas5nsd9xvnf" class="animable"></path><path d="M292.81,187.59v-2.85h-9.23v-9.07h-2.69a5.37,5.37,0,0,1,0-10.74h2.69v-9.39h9.23v3.18a5.37,5.37,0,0,0,10,2.63q5.08,5.72,9.93,10.85v12.54h-9.23v2.85a5.37,5.37,0,0,1-10.74,0Z" style="fill: rgb(64, 127, 255); transform-origin: 294.134px 174.25px;" id="ely9zguhfznh7" class="animable"></path><g id="elrnbq6xuisjk"><path d="M292.81,187.59v-2.85h-9.23v-9.07h-2.69a5.37,5.37,0,0,1,0-10.74h2.69v-9.39h9.23v3.18a5.37,5.37,0,0,0,10,2.63q5.08,5.72,9.93,10.85v12.54h-9.23v2.85a5.37,5.37,0,0,1-10.74,0Z" style="fill: rgb(255, 255, 255); opacity: 0.7; transform-origin: 294.134px 174.25px;" class="animable"></path></g><path d="M303.55,184.83v2.76a5.37,5.37,0,0,1-10.74,0v-2.85h-9.23v9.34a275,275,0,0,0,20,21.78v-1.75h9.23v-8.74H310.1a5.37,5.37,0,0,1,0-10.74h2.68v-9.89h-9.23Z" style="fill: rgb(64, 127, 255); transform-origin: 298.195px 200.3px;" id="elwyv48v0yp68" class="animable"></path><g id="ele7w13pn1qxr"><g style="opacity: 0.2; transform-origin: 298.195px 200.3px;" class="animable"><path d="M303.55,184.83v2.76a5.37,5.37,0,0,1-10.74,0v-2.85h-9.23v9.34a275,275,0,0,0,20,21.78v-1.75h9.23v-8.74H310.1a5.37,5.37,0,0,1,0-10.74h2.68v-9.89h-9.23Z" style="fill: rgb(255, 255, 255); transform-origin: 298.195px 200.3px;" id="elrm0p8tul1dp" class="animable"></path></g></g><path d="M283.58,184.9v9.18c-2.4-2.89-4.86-5.94-7.37-9.18l-.12-.16h7.49Z" style="fill: rgb(64, 127, 255); transform-origin: 279.835px 189.41px;" id="elbk4rv2iwanf" class="animable"></path><path d="M263.6,155.54v3.18a5.37,5.37,0,0,0,10.74,0v-3.18h9.24v9.39h-2.69a5.37,5.37,0,0,0,0,10.74h2.69v9.07h-7.49c-6.56-8.46-13.51-18.14-20.8-29.2Z" style="fill: rgb(64, 127, 255); transform-origin: 269.435px 170.14px;" id="el1y081v2d36e" class="animable"></path><path d="M342,234.24H339.3a5.37,5.37,0,0,1,0-10.74H342v-9.39h9.23v3.18a5.37,5.37,0,0,0,10.74,0v-3.18h4.48L344,243.31a15.94,15.94,0,0,1-2-.55Z" style="fill: rgb(64, 127, 255); transform-origin: 350.19px 228.71px;" id="elw7xb8ph0df" class="animable"></path><g id="elh1f4yup9d3p"><path d="M342,234.24H339.3a5.37,5.37,0,0,1,0-10.74H342v-9.39h9.23v3.18a5.37,5.37,0,0,0,10.74,0v-3.18h4.48L344,243.31a15.94,15.94,0,0,1-2-.55Z" style="fill: rgb(255, 255, 255); opacity: 0.2; transform-origin: 350.19px 228.71px;" class="animable"></path></g><path d="M322,217.29a5.37,5.37,0,1,0,10.73,0v-3.18H342v9.39H339.3a5.37,5.37,0,0,0,0,10.74H342v8.52c-4.07-1.35-14.25-5.67-29.21-18.46V214.11H322Z" style="fill: rgb(64, 127, 255); transform-origin: 327.395px 228.435px;" id="eldrxu4li9kij" class="animable"></path><g id="elvs3yderdw7"><path d="M322,217.29a5.37,5.37,0,1,0,10.73,0v-3.18H342v9.39H339.3a5.37,5.37,0,0,0,0,10.74H342v8.52c-4.07-1.35-14.25-5.67-29.21-18.46V214.11H322Z" style="fill: rgb(255, 255, 255); opacity: 0.7; transform-origin: 327.395px 228.435px;" class="animable"></path></g><path d="M303.55,215.86v-1.75h9.23V224.3C309.88,221.82,306.8,219,303.55,215.86Z" style="fill: rgb(64, 127, 255); transform-origin: 308.165px 219.205px;" id="elyi21uaq0wso" class="animable"></path><path d="M312.78,184.9v9.73H310.1a5.37,5.37,0,0,0,0,10.74h2.68v8.74H322v3.18a5.37,5.37,0,1,0,10.73,0v-3.18H342v-8.74H339.3a5.37,5.37,0,0,1-2.11-10.3c-1.76-1.4-3.56-2.89-5.37-4.46a5.37,5.37,0,0,1-9.8-3v-2.85h-9.24S312.75,184.9,312.78,184.9Z" style="fill: rgb(64, 127, 255); transform-origin: 323.365px 203.826px;" id="elryhrs936euh" class="animable"></path><g id="elakqkmokya46"><path d="M312.78,184.9v9.73H310.1a5.37,5.37,0,0,0,0,10.74h2.68v8.74H322v3.18a5.37,5.37,0,1,0,10.73,0v-3.18H342v-8.74H339.3a5.37,5.37,0,0,1-2.11-10.3c-1.76-1.4-3.56-2.89-5.37-4.46a5.37,5.37,0,0,1-9.8-3v-2.85h-9.24S312.75,184.9,312.78,184.9Z" style="fill: rgb(255, 255, 255); opacity: 0.4; transform-origin: 323.365px 203.826px;" class="animable"></path></g><path d="M263.6,126.33V129a5.37,5.37,0,1,0,10.74,0v-1.63q3.57,4.44,7,8.68h-.49a5.37,5.37,0,0,0,0,10.74h2.69v8.74h-9.24v3.18a5.37,5.37,0,0,1-10.74,0v-3.18h-8.31l-.92-1.41V146.8h-2.68a5.26,5.26,0,0,1-2.1-.43q-1.71-3-3.17-6a5.37,5.37,0,0,1,5.27-4.35h2.68v-9.89h9.23Z" style="fill: rgb(64, 127, 255); transform-origin: 264.96px 145.105px;" id="elocttwsm369f" class="animable"></path><g id="elr7di0ecvemq"><path d="M263.6,126.33V129a5.37,5.37,0,1,0,10.74,0v-1.63q3.57,4.44,7,8.68h-.49a5.37,5.37,0,0,0,0,10.74h2.69v8.74h-9.24v3.18a5.37,5.37,0,0,1-10.74,0v-3.18h-8.31l-.92-1.41V146.8h-2.68a5.26,5.26,0,0,1-2.1-.43q-1.71-3-3.17-6a5.37,5.37,0,0,1,5.27-4.35h2.68v-9.89h9.23Z" style="fill: rgb(255, 255, 255); opacity: 0.5; transform-origin: 264.96px 145.105px;" class="animable"></path></g><path d="M254.37,146.8v7.33c-.21-.31-.41-.62-.61-.94-1.51-2.3-2.89-4.58-4.17-6.82a5.26,5.26,0,0,0,2.1.43Z" style="fill: rgb(64, 127, 255); transform-origin: 251.98px 150.25px;" id="elxm7coxfwvco" class="animable"></path><path d="M254.37,126.33v9.73h-2.68a5.37,5.37,0,0,0-5.27,4.35q-1.83-3.69-3.27-7.23a5.37,5.37,0,0,0,2-4.17v-2.84h9.24Z" style="fill: rgb(64, 127, 255); transform-origin: 248.77px 133.29px;" id="elbbgzif2624c" class="animable"></path><g id="eldwee7zj8in"><g style="opacity: 0.7; transform-origin: 248.77px 140.15px;" class="animable"><path d="M254.37,146.8v7.33c-.21-.31-.41-.62-.61-.94-1.51-2.3-2.89-4.58-4.17-6.82a5.26,5.26,0,0,0,2.1.43Z" style="fill: rgb(255, 255, 255); transform-origin: 251.98px 150.25px;" id="elki9lo8d15g" class="animable"></path><path d="M254.37,126.33v9.73h-2.68a5.37,5.37,0,0,0-5.27,4.35q-1.83-3.69-3.27-7.23a5.37,5.37,0,0,0,2-4.17v-2.84h9.24Z" style="fill: rgb(255, 255, 255); transform-origin: 248.77px 133.29px;" id="eljwzvrs1x0l" class="animable"></path></g></g><path d="M328.15,82.86a5.35,5.35,0,0,0-3.73-5.11,55,55,0,0,1-2,10.47h.33A5.36,5.36,0,0,0,328.15,82.86Z" style="fill: rgb(64, 127, 255); transform-origin: 325.285px 82.9851px;" id="elc9ra1m911bh" class="animable"></path><path d="M319.36,97h.74V95.14C319.86,95.74,319.62,96.35,319.36,97Z" style="fill: rgb(64, 127, 255); transform-origin: 319.73px 96.07px;" id="elldl5zb5fp2" class="animable"></path><path d="M276.29,164.08a5.36,5.36,0,0,0,5.37-5.36v-3.18h9.24V146.8h2.68a5.37,5.37,0,0,0,0-10.74h-.49c-7.49,9.15-14.64,17.61-21.47,25.29A5.36,5.36,0,0,0,276.29,164.08Z" style="fill: rgb(64, 127, 255); transform-origin: 285.285px 150.07px;" id="elxkgkgtg5uw" class="animable"></path><g id="el0m3kzrbaey2"><path d="M276.29,164.08a5.36,5.36,0,0,0,5.37-5.36v-3.18h9.24V146.8h2.68a5.37,5.37,0,0,0,0-10.74h-.49c-7.49,9.15-14.64,17.61-21.47,25.29A5.36,5.36,0,0,0,276.29,164.08Z" style="fill: rgb(255, 255, 255); opacity: 0.2; transform-origin: 285.285px 150.07px;" class="animable"></path></g><path d="M300.13,127.38V129a5.37,5.37,0,0,0,10.74,0v-2.84h9.23V97h-.74c-3.52,8.3-9.15,17.87-17.87,28.73C301,126.26,300.58,126.82,300.13,127.38Z" style="fill: rgb(64, 127, 255); transform-origin: 310.115px 115.685px;" id="elkffahka6q3j" class="animable"></path><g id="elm6unwsynevp"><path d="M300.13,127.38V129a5.37,5.37,0,0,0,10.74,0v-2.84h9.23V97h-.74c-3.52,8.3-9.15,17.87-17.87,28.73C301,126.26,300.58,126.82,300.13,127.38Z" style="fill: rgb(255, 255, 255); opacity: 0.2; transform-origin: 310.115px 115.685px;" class="animable"></path></g><path d="M320.1,56.87a25.68,25.68,0,0,1,4,10.73h4.13a55.71,55.71,0,0,0-8.12-10.78Z" style="fill: rgb(64, 127, 255); transform-origin: 324.165px 62.21px;" id="el2nhnekao8mj" class="animable"></path><path d="M329.34,69.56v.88a5.35,5.35,0,0,0,2.73,4.67C331.19,73.11,330.27,71.25,329.34,69.56Z" style="fill: rgb(64, 127, 255); transform-origin: 330.705px 72.335px;" id="elj6jmzulhy5" class="animable"></path><path d="M329.34,70.44v-.88c-.34-.62-.68-1.22-1-1.8h-4.19a41.45,41.45,0,0,1,.3,10,5.36,5.36,0,0,1-1.63,10.47h-.33a71,71,0,0,1-2.36,6.92V97h9.24v3.18a5.37,5.37,0,0,0,8.33,4.48,68,68,0,0,0-5.6-29.51A5.35,5.35,0,0,1,329.34,70.44Z" style="fill: rgb(64, 127, 255); transform-origin: 328.936px 86.6547px;" id="el0m5ahw4su59i" class="animable"></path><g id="elxao5t2fg3se"><path d="M329.34,70.44v-.88c-.34-.62-.68-1.22-1-1.8h-4.19a41.45,41.45,0,0,1,.3,10,5.36,5.36,0,0,1-1.63,10.47h-.33a71,71,0,0,1-2.36,6.92V97h9.24v3.18a5.37,5.37,0,0,0,8.33,4.48,68,68,0,0,0-5.6-29.51A5.35,5.35,0,0,1,329.34,70.44Z" style="fill: rgb(255, 255, 255); opacity: 0.5; transform-origin: 328.936px 86.6547px;" class="animable"></path></g><path d="M334.71,105.51a5.36,5.36,0,0,1-5.37-5.37V97H320.1v29.21h9.24V129a5.37,5.37,0,0,0,2,4.17,82.52,82.52,0,0,0,6.35-28.56A5.37,5.37,0,0,1,334.71,105.51Z" style="fill: rgb(64, 127, 255); transform-origin: 328.895px 115.085px;" id="el2osb2l2vnfk" class="animable"></path><g id="elwkxsc49r6eg"><path d="M334.71,105.51a5.36,5.36,0,0,1-5.37-5.37V97H320.1v29.21h9.24V129a5.37,5.37,0,0,0,2,4.17,82.52,82.52,0,0,0,6.35-28.56A5.37,5.37,0,0,1,334.71,105.51Z" style="fill: rgb(255, 255, 255); opacity: 0.6; transform-origin: 328.895px 115.085px;" class="animable"></path></g><path d="M232.48,205.37h2.69a5.37,5.37,0,0,0,2.11-10.3c-11.68,9.24-22.27,14.65-32,15.52l2.71,3.52h4.48v3.18a5.37,5.37,0,0,0,10.74,0v-3.18h9.23Z" style="fill: rgb(64, 127, 255); transform-origin: 222.901px 208.865px;" id="elzvkxjt6w8ji" class="animable"></path><g id="eli1zrfljqh6"><path d="M232.48,205.37h2.69a5.37,5.37,0,0,0,2.11-10.3c-11.68,9.24-22.27,14.65-32,15.52l2.71,3.52h4.48v3.18a5.37,5.37,0,0,0,10.74,0v-3.18h9.23Z" style="fill: rgb(255, 255, 255); opacity: 0.5; transform-origin: 222.901px 208.865px;" class="animable"></path></g><path d="M242.65,190.61a5.37,5.37,0,0,0,9.8-3v-2.85h9.24V172.2C255,179.22,248.7,185.39,242.65,190.61Z" style="fill: rgb(64, 127, 255); transform-origin: 252.17px 182.573px;" id="el1g7870fyh6m" class="animable"></path><g id="el1i9gtgejg0d"><path d="M242.65,190.61a5.37,5.37,0,0,0,9.8-3v-2.85h9.24V172.2C255,179.22,248.7,185.39,242.65,190.61Z" style="fill: rgb(255, 255, 255); opacity: 0.5; transform-origin: 252.17px 182.573px;" class="animable"></path></g><path d="M281.66,187.59v-2.85h9.24v-9.07h2.68a5.37,5.37,0,1,0,0-10.74H290.9v-9.39h-9.24v3.18a5.37,5.37,0,0,1-10,2.63q-5.08,5.72-9.93,10.85v12.54h9.23v2.85a5.37,5.37,0,0,0,10.74,0Z" style="fill: rgb(64, 127, 255); transform-origin: 280.344px 174.25px;" id="elt0o6zkrksir" class="animable"></path><path d="M281.66,187.59v-2.85h9.24v-9.07h2.68a5.37,5.37,0,1,0,0-10.74H290.9v-9.39h-9.24v3.18a5.37,5.37,0,0,1-10,2.63q-5.08,5.72-9.93,10.85v12.54h9.23v2.85a5.37,5.37,0,0,0,10.74,0Z" style="fill: rgb(64, 127, 255); transform-origin: 280.344px 174.25px;" id="ells735ml317" class="animable"></path><g id="elw4i6mubic0n"><path d="M281.66,187.59v-2.85h9.24v-9.07h2.68a5.37,5.37,0,1,0,0-10.74H290.9v-9.39h-9.24v3.18a5.37,5.37,0,0,1-10,2.63q-5.08,5.72-9.93,10.85v12.54h9.23v2.85a5.37,5.37,0,0,0,10.74,0Z" style="fill: rgb(255, 255, 255); opacity: 0.7; transform-origin: 280.344px 174.25px;" class="animable"></path></g><path d="M270.92,184.83v2.76a5.37,5.37,0,0,0,10.74,0v-2.85h9.24v9.34a276.86,276.86,0,0,1-20,21.78v-1.75h-9.23v-8.74h2.68a5.37,5.37,0,0,0,0-10.74h-2.68v-9.89h9.23Z" style="fill: rgb(64, 127, 255); transform-origin: 276.285px 200.3px;" id="elbt2hkk33hb6" class="animable"></path><g id="elqttbrkmfpse"><g style="opacity: 0.5; transform-origin: 276.285px 200.3px;" class="animable"><path d="M270.92,184.83v2.76a5.37,5.37,0,0,0,10.74,0v-2.85h9.24v9.34a276.86,276.86,0,0,1-20,21.78v-1.75h-9.23v-8.74h2.68a5.37,5.37,0,0,0,0-10.74h-2.68v-9.89h9.23Z" style="fill: rgb(255, 255, 255); transform-origin: 276.285px 200.3px;" id="elxx3043zq16" class="animable"></path></g></g><path d="M290.9,184.9v9.18c2.39-2.89,4.85-5.94,7.36-9.18l.12-.16H290.9Z" style="fill: rgb(64, 127, 255); transform-origin: 294.64px 189.41px;" id="el7bmhuetkkc" class="animable"></path><path d="M310.87,155.54v3.18a5.37,5.37,0,0,1-10.74,0v-3.18H290.9v9.39h2.68a5.37,5.37,0,1,1,0,10.74H290.9v9.07h7.48c6.57-8.46,13.51-18.14,20.8-29.2Z" style="fill: rgb(64, 127, 255); transform-origin: 305.04px 170.14px;" id="el12tbhkm5ptu" class="animable"></path><g id="elvb6o0uxp2il"><path d="M310.87,155.54v3.18a5.37,5.37,0,0,1-10.74,0v-3.18H290.9v9.39h2.68a5.37,5.37,0,1,1,0,10.74H290.9v9.07h7.48c6.57-8.46,13.51-18.14,20.8-29.2Z" style="fill: rgb(255, 255, 255); opacity: 0.2; transform-origin: 305.04px 170.14px;" class="animable"></path></g><path d="M232.48,234.24h2.69a5.37,5.37,0,0,0,0-10.74h-2.69v-9.39h-9.23v3.18a5.37,5.37,0,0,1-10.74,0v-3.18H208l22.47,29.2a15.94,15.94,0,0,0,2-.55Z" style="fill: rgb(64, 127, 255); transform-origin: 224.27px 228.71px;" id="el20zlghn0fvc" class="animable"></path><g id="elsolw0ht5v3e"><path d="M232.48,234.24h2.69a5.37,5.37,0,0,0,0-10.74h-2.69v-9.39h-9.23v3.18a5.37,5.37,0,0,1-10.74,0v-3.18H208l22.47,29.2a15.94,15.94,0,0,0,2-.55Z" style="fill: rgb(255, 255, 255); opacity: 0.2; transform-origin: 224.27px 228.71px;" class="animable"></path></g><path d="M252.45,217.29a5.37,5.37,0,1,1-10.73,0v-3.18h-9.24v9.39h2.69a5.37,5.37,0,0,1,0,10.74h-2.69v8.52c4.07-1.35,14.25-5.67,29.21-18.46V214.11h-9.24Z" style="fill: rgb(64, 127, 255); transform-origin: 247.085px 228.435px;" id="eljhlnm1zl81" class="animable"></path><g id="el9nbw3v0dzac"><path d="M252.45,217.29a5.37,5.37,0,1,1-10.73,0v-3.18h-9.24v9.39h2.69a5.37,5.37,0,0,1,0,10.74h-2.69v8.52c4.07-1.35,14.25-5.67,29.21-18.46V214.11h-9.24Z" style="fill: rgb(255, 255, 255); opacity: 0.7; transform-origin: 247.085px 228.435px;" class="animable"></path></g><path d="M270.92,215.86v-1.75h-9.23V224.3C264.59,221.82,267.67,219,270.92,215.86Z" style="fill: rgb(64, 127, 255); transform-origin: 266.305px 219.205px;" id="elvm4v2wyt55t" class="animable"></path><path d="M261.69,184.9v9.73h2.68a5.37,5.37,0,0,1,0,10.74h-2.68v8.74h-9.24v3.18a5.37,5.37,0,1,1-10.73,0v-3.18h-9.24v-8.74h2.69a5.37,5.37,0,0,0,2.11-10.3q2.66-2.1,5.37-4.46a5.37,5.37,0,0,0,9.8-3v-2.85h9.24S261.73,184.9,261.69,184.9Z" style="fill: rgb(64, 127, 255); transform-origin: 251.11px 203.826px;" id="elpff6b6k6vu" class="animable"></path><g id="elk5w9fn0si3"><path d="M261.69,184.9v9.73h2.68a5.37,5.37,0,0,1,0,10.74h-2.68v8.74h-9.24v3.18a5.37,5.37,0,1,1-10.73,0v-3.18h-9.24v-8.74h2.69a5.37,5.37,0,0,0,2.11-10.3q2.66-2.1,5.37-4.46a5.37,5.37,0,0,0,9.8-3v-2.85h9.24S261.73,184.9,261.69,184.9Z" style="fill: rgb(255, 255, 255); opacity: 0.2; transform-origin: 251.11px 203.826px;" class="animable"></path></g><path d="M310.87,126.33V129a5.37,5.37,0,0,1-10.74,0v-1.63q-3.57,4.44-7,8.68h.49a5.37,5.37,0,0,1,0,10.74H290.9v8.74h9.23v3.18a5.37,5.37,0,0,0,10.74,0v-3.18h8.31l.92-1.41V146.8h2.69a5.21,5.21,0,0,0,2.09-.43c1.15-2,2.2-4,3.17-6a5.36,5.36,0,0,0-5.26-4.35H320.1v-9.89h-9.23Z" style="fill: rgb(64, 127, 255); transform-origin: 309.475px 145.105px;" id="elx4c317i8t8" class="animable"></path><g id="el4kgg8tkb57a"><path d="M310.87,126.33V129a5.37,5.37,0,0,1-10.74,0v-1.63q-3.57,4.44-7,8.68h.49a5.37,5.37,0,0,1,0,10.74H290.9v8.74h9.23v3.18a5.37,5.37,0,0,0,10.74,0v-3.18h8.31l.92-1.41V146.8h2.69a5.21,5.21,0,0,0,2.09-.43c1.15-2,2.2-4,3.17-6a5.36,5.36,0,0,0-5.26-4.35H320.1v-9.89h-9.23Z" style="fill: rgb(255, 255, 255); opacity: 0.5; transform-origin: 309.475px 145.105px;" class="animable"></path></g><path d="M320.1,146.8v7.33l.62-.94c1.5-2.3,2.88-4.58,4.16-6.82a5.21,5.21,0,0,1-2.09.43Z" style="fill: rgb(64, 127, 255); transform-origin: 322.49px 150.25px;" id="elg8qbnuejd6p" class="animable"></path><path d="M320.1,126.33v9.73h2.69a5.36,5.36,0,0,1,5.26,4.35q1.83-3.69,3.27-7.23a5.37,5.37,0,0,1-2-4.17v-2.84H320.1Z" style="fill: rgb(64, 127, 255); transform-origin: 325.71px 133.29px;" id="ellur1dfhuy99" class="animable"></path><g id="elbp5vkmnt9i"><g style="opacity: 0.7; transform-origin: 325.71px 140.15px;" class="animable"><path d="M320.1,146.8v7.33l.62-.94c1.5-2.3,2.88-4.58,4.16-6.82a5.21,5.21,0,0,1-2.09.43Z" style="fill: rgb(255, 255, 255); transform-origin: 322.49px 150.25px;" id="el63rievcdo36" class="animable"></path><path d="M320.1,126.33v9.73h2.69a5.36,5.36,0,0,1,5.26,4.35q1.83-3.69,3.27-7.23a5.37,5.37,0,0,1-2-4.17v-2.84H320.1Z" style="fill: rgb(255, 255, 255); transform-origin: 325.71px 133.29px;" id="elivgkduyrns" class="animable"></path></g></g></g><g id="freepik--character-2--inject-3" class="animable" style="transform-origin: 346.56px 315.09px;"><path d="M368.46,352.85V414h3.38V383.4c0-10.73,5.68-19.43,12.67-19.43s12.67,8.7,12.67,19.43V414h3.38V352.85Z" style="fill: rgb(64, 127, 255); transform-origin: 384.51px 383.425px;" id="eloqqu8a9v09s" class="animable"></path><g id="elfeaohge42uw"><path d="M368.46,352.85V414h3.38V383.4c0-10.73,5.68-19.43,12.67-19.43s12.67,8.7,12.67,19.43V414h3.38V352.85Z" style="fill: rgb(255, 255, 255); opacity: 0.1; transform-origin: 384.51px 383.425px;" class="animable"></path></g><polygon points="396.31 352.85 348.31 352.85 357.31 303.4 402.31 303.4 396.31 352.85" style="fill: rgb(64, 127, 255); transform-origin: 375.31px 328.125px;" id="el9qhmfcri4wi" class="animable"></polygon><g id="ellw7zwnuifv"><polygon points="396.31 352.85 348.31 352.85 357.31 303.4 402.31 303.4 396.31 352.85" style="fill: rgb(255, 255, 255); opacity: 0.3; transform-origin: 375.31px 328.125px;" class="animable"></polygon></g><path d="M319.21,352.85V414h5.19V383.4a19.44,19.44,0,0,1,38.88,0V414h5.18V352.85Z" style="fill: rgb(64, 127, 255); transform-origin: 343.835px 383.425px;" id="eltqd670tlygn" class="animable"></path><path d="M319.21,352.85V414h3.38V383.4c0-10.73,5.68-19.43,12.67-19.43s12.67,8.7,12.67,19.43V414h3.38V352.85Z" style="fill: rgb(64, 127, 255); transform-origin: 335.26px 383.425px;" id="elfqw1gwwewd8" class="animable"></path><g id="el1bicl6myzdi"><path d="M319.21,352.85V414h3.38V383.4c0-10.73,5.68-19.43,12.67-19.43s12.67,8.7,12.67,19.43V414h3.38V352.85Z" style="fill: rgb(255, 255, 255); opacity: 0.3; transform-origin: 335.26px 383.425px;" class="animable"></path></g><path d="M400.56,303.4l-9,49.45H351.31V414h5.19V383.4a19.44,19.44,0,0,1,38.88,0V414h5.18V352.85l6-49.45Z" style="fill: rgb(64, 127, 255); transform-origin: 378.935px 358.7px;" id="elco0fev151f8" class="animable"></path><g id="el5i0y5gliq1i"><path d="M400.56,303.4l-9,49.45H351.31V414h5.19V383.4a19.44,19.44,0,0,1,38.88,0V414h5.18V352.85l6-49.45Z" style="fill: rgb(255, 255, 255); opacity: 0.5; transform-origin: 378.935px 358.7px;" class="animable"></path></g><path d="M319.93,326.59c-4.6.56-14.5,3.83-14.17,10.66s6.17,67.67,6.17,67.67h9.17s6.33-49.5,3.5-57.67h11.16L325.1,326.59S321.21,326.43,319.93,326.59Z" style="fill: rgb(238, 193, 187); transform-origin: 320.756px 365.719px;" id="eluhd5zaaxt7" class="animable"></path><path d="M342.16,319.63s-2.89,2.94-4.17,3.33c-6.33,2-15.5-.33-24.33,4.17,0,0,10.92-1.52,14.16,20.83,0,0,19.67,3.83,39.34,2.67s7.17-31,7.17-31Z" style="fill: rgb(38, 50, 56); transform-origin: 345.953px 335.239px;" id="elpdafua1tbwd" class="animable"></path><g id="elkbrpugaffsf"><path d="M342.16,319.63s-2.89,2.94-4.17,3.33c-6.33,2-15.5-.33-24.33,4.17,0,0,10.92-1.52,14.16,20.83,0,0,19.67,3.83,39.34,2.67s7.17-31,7.17-31Z" style="opacity: 0.5; transform-origin: 345.953px 335.239px;" class="animable"></path></g><path d="M310.33,328.38A14.74,14.74,0,0,1,321,334c4.59,5.68,5.92,14.59,5.92,14.59l3.17.58s.81-7.49-4.92-15.83-10.5-7.67-10.5-7.67Z" style="fill: rgb(64, 127, 255); transform-origin: 320.23px 337.414px;" id="el6gfa5chl017" class="animable"></path><path d="M308.51,405.07a3.78,3.78,0,0,1-2.59-.72.8.8,0,0,1,0-.91,1.1,1.1,0,0,1,.67-.48c1.48-.38,4.53,1.44,4.67,1.52a.2.2,0,0,1,.09.22.19.19,0,0,1-.17.16A15.28,15.28,0,0,1,308.51,405.07Zm-1.38-1.74a1.36,1.36,0,0,0-.4,0,.58.58,0,0,0-.42.29c-.16.25-.1.38-.05.45.4.59,2.63.64,4.28.46A9.65,9.65,0,0,0,307.13,403.33Z" style="fill: rgb(64, 127, 255); transform-origin: 308.567px 403.997px;" id="eld150j3pprve" class="animable"></path><path d="M311.18,404.86a.1.1,0,0,1-.09,0c-1-.48-3.14-2.44-2.93-3.43,0-.24.21-.52.79-.57a1.54,1.54,0,0,1,1.16.38c1.11.94,1.3,3.33,1.31,3.44a.2.2,0,0,1-.1.18A.17.17,0,0,1,311.18,404.86Zm-2.1-3.61-.12,0c-.38,0-.4.18-.42.23-.06.6,1.3,2.12,2.39,2.79a4.92,4.92,0,0,0-1.13-2.73,1.11,1.11,0,0,0-.72-.27Z" style="fill: rgb(64, 127, 255); transform-origin: 309.783px 402.864px;" id="eltc27sux1ju" class="animable"></path><path d="M312.14,403.64l9.64.17a.78.78,0,0,1,.75.62l1.6,7.87a1.28,1.28,0,0,1-1,1.53,1.24,1.24,0,0,1-.27,0c-3.48-.12-6.57-.36-10.89-.43-5.11-.09-3.82.55-9.83.53-3.62,0-4.21-4.14-2.67-4.31,7-.77,7.8-2.87,10.55-5.34A3.16,3.16,0,0,1,312.14,403.64Z" style="fill: rgb(38, 50, 56); transform-origin: 311.417px 408.782px;" id="el1geuin0qcdt" class="animable"></path><path d="M344,331.46s-16.5.83-16.16,7.67S335,404.79,335,404.79h9.17s6.33-45.5,3.5-53.66h12.17l-10.67-19.67Z" style="fill: rgb(238, 193, 187); transform-origin: 343.837px 368.125px;" id="el1ugqiswbpfv" class="animable"></path><path d="M387.66,319.63s2.75,30.25-18,32.25-18.25,0-18.25,0S346.77,336,332,333c0,0,14.35-3.83,17.14-8.1.58-.9,1.75-3.25,1.75-3.25Z" style="fill: rgb(38, 50, 56); transform-origin: 359.89px 336.199px;" id="eldi72rnjnhbr" class="animable"></path><path d="M328.83,334.29s17.12,7,21.33,18.47l4.37.56s-3.2-14.86-21.37-21.53Z" style="fill: rgb(64, 127, 255); transform-origin: 341.68px 342.555px;" id="elj971fyaxtae" class="animable"></path><path d="M331.76,405.07a3.78,3.78,0,0,1-2.59-.72.8.8,0,0,1,0-.91,1.1,1.1,0,0,1,.67-.48c1.48-.38,4.53,1.44,4.67,1.52a.2.2,0,0,1,.09.22.19.19,0,0,1-.17.16A15.28,15.28,0,0,1,331.76,405.07Zm-1.38-1.74a1.36,1.36,0,0,0-.4,0,.58.58,0,0,0-.42.29c-.16.25-.1.38-.05.45.4.59,2.63.64,4.28.46A9.65,9.65,0,0,0,330.38,403.33Z" style="fill: rgb(64, 127, 255); transform-origin: 331.817px 403.997px;" id="el09hnnki12i2" class="animable"></path><path d="M334.43,404.86a.1.1,0,0,1-.09,0c-1-.48-3.14-2.44-2.93-3.43,0-.24.21-.52.79-.57a1.54,1.54,0,0,1,1.16.38c1.11.94,1.3,3.33,1.31,3.44a.2.2,0,0,1-.1.18A.17.17,0,0,1,334.43,404.86Zm-2.1-3.61-.12,0c-.38,0-.4.18-.42.23-.06.6,1.3,2.12,2.39,2.79a4.92,4.92,0,0,0-1.13-2.73,1.11,1.11,0,0,0-.72-.27Z" style="fill: rgb(64, 127, 255); transform-origin: 333.033px 402.864px;" id="el3egrq3paoa2" class="animable"></path><path d="M335.39,403.64l9.64.17a.78.78,0,0,1,.75.62l1.6,7.87a1.28,1.28,0,0,1-1,1.53,1.24,1.24,0,0,1-.27,0c-3.48-.12-6.57-.36-10.89-.43-5.11-.09-3.82.55-9.83.53-3.62,0-4.21-4.14-2.67-4.31,7-.77,7.8-2.87,10.55-5.34A3.16,3.16,0,0,1,335.39,403.64Z" style="fill: rgb(38, 50, 56); transform-origin: 334.667px 408.782px;" id="elrpdduxmyrk" class="animable"></path><path d="M334.28,289.61s-7.42,10-12.92,9.33-16.7-21.15-16.7-21.15l-7.31-5.59a2.39,2.39,0,0,1-.9-2.37l1.37-6.95a2.4,2.4,0,0,1,2.12-1.93l1.47-.14a2.4,2.4,0,0,1,2.52,1.64l3.73,11.34L320.76,286l6.23-6Z" style="fill: rgb(238, 193, 187); transform-origin: 315.342px 279.885px;" id="el9sdtt4mp398" class="animable"></path><path d="M333.49,270.93,322,283.06a49,49,0,0,1,9.17,11.23s11.25-6.83,13.79-13.83c1.32-3.63-.17-8.49-2.87-10.4A6.6,6.6,0,0,0,333.49,270.93Z" style="fill: rgb(38, 50, 56); transform-origin: 333.724px 281.574px;" id="el5ivnu78ywio" class="animable"></path><path d="M334.91,269.13s13.46,25.16,5.75,51.75a102.52,102.52,0,0,0,47.75,1s.3-10.13.7-28.52c.35-15.82-.4-33.11-11.2-37.48C356.91,247.38,334.91,269.13,334.91,269.13Z" style="fill: rgb(64, 127, 255); transform-origin: 362.042px 289.066px;" id="elr9jayc5q1sp" class="animable"></path><path d="M387.16,276.63s3.17,21.66-6,22.66-24.5-1.33-24.5-1.33l-8.5-1.73a2.31,2.31,0,0,1-1.74-1.57L345,289.93a2.26,2.26,0,0,1,.14-1.71l.58-1.18a2.31,2.31,0,0,1,3.52-.77l8.47,6.86,18.83-3.5-3.33-10Z" style="fill: rgb(238, 193, 187); transform-origin: 366.292px 288.085px;" id="el5lsytjgm4gc" class="animable"></path><path d="M361.85,254.45c-4.69-.55-6.69-10.15-6.69-10.15l-8.79,7.2,1.95,7.93s-3.4,11.32,6.35,8.82S361.85,254.45,361.85,254.45Z" style="fill: rgb(238, 193, 187); transform-origin: 354.263px 256.455px;" id="eljne23jgxj9" class="animable"></path><g id="el9pipa9b0sys"><path d="M354.75,247.21l-1.9-1-6.48,5.31,1.34,5.45C352.72,257.89,354.75,247.21,354.75,247.21Z" style="opacity: 0.1; transform-origin: 350.56px 251.618px;" class="animable"></path></g><path d="M372.13,256c5.38-3.8,15.24,2.79,16.58,22.62,0,0-7.17-.66-15.51,4.4C373.2,283.06,365,261.1,372.13,256Z" style="fill: rgb(38, 50, 56); transform-origin: 378.963px 268.997px;" id="elx6ub5tbr2j" class="animable"></path><path d="M357.43,235.12c-1.41,8.39-1.82,13.37-6.55,17.24-7.1,5.84-17.11.84-18.22-7.78-1-7.81,1.49-20.18,10.11-22.66a11.59,11.59,0,0,1,14.66,13.2Z" style="fill: rgb(238, 193, 187); transform-origin: 345.035px 238.168px;" id="elj1707d65xq" class="animable"></path><path d="M344,236.15c-.07.7-.49,1.22-.94,1.17s-.75-.65-.68-1.34.5-1.2,1-1.15S344,235.47,344,236.15Z" style="fill: rgb(46, 53, 58); transform-origin: 343.185px 236.075px;" id="elh6v2tnf3x87" class="animable"></path><path d="M340.23,245.63c-.06.69-.49,1.21-.94,1.16s-.76-.65-.68-1.34.49-1.2.94-1.15S340.31,245,340.23,245.63Z" style="fill: rgb(46, 53, 58); transform-origin: 339.42px 245.545px;" id="elen1mwwoc4cd" class="animable"></path><path d="M336.2,235.33c-.08.68-.5,1.2-.95,1.15s-.75-.64-.67-1.32.49-1.21.94-1.16S336.27,234.64,336.2,235.33Z" style="fill: rgb(46, 53, 58); transform-origin: 335.389px 235.24px;" id="elfwbcnaj7q3u" class="animable"></path><path d="M339.05,235.9a24.55,24.55,0,0,1-3.91,5.52,4,4,0,0,0,3.22,1Z" style="fill: rgb(212, 130, 125); transform-origin: 337.095px 239.178px;" id="elvehlmf0fbr" class="animable"></path><path d="M347,233.22a.65.65,0,0,0,.2,0,.42.42,0,0,0,.14-.56,4.09,4.09,0,0,0-3.11-2,.41.41,0,0,0,0,.82h0a3.18,3.18,0,0,1,2.44,1.62A.42.42,0,0,0,347,233.22Z" style="fill: rgb(46, 53, 58); transform-origin: 345.607px 231.944px;" id="el5pva8a1cs4y" class="animable"></path><path d="M333.51,231.87a.39.39,0,0,0,.34-.19,3.21,3.21,0,0,1,2.44-1.58.4.4,0,0,0,.4-.41.4.4,0,0,0-.41-.4,4,4,0,0,0-3.15,2,.39.39,0,0,0,.12.55h0A.36.36,0,0,0,333.51,231.87Z" style="fill: rgb(46, 53, 58); transform-origin: 334.877px 230.586px;" id="ele6l51z54fww" class="animable"></path><path d="M355.21,240s-4.16-1.92-2.5-9.92c0,0-7.69,2-7.67-3.75,0,0-7.79,1.94-7.22-1.32,0,0-4.75.82-4.36-2.76.5-4.45,5.67-1.17,7-1.67,0,0-1-3.25,1.87-4.16,4.25-1.34,4.05,3.33,7.47,3.66s7.81-.5,7.82,3.25c0,0,5,1.08,4.54,6s5.55,6.25,3.39,9.25-4.25-.37-4.25-.37,1.42,5.54-1.92,7.37-.81,4.17-2.45,3.42S353.76,242.18,355.21,240Z" style="fill: rgb(38, 50, 56); transform-origin: 349.729px 232.661px;" id="elqpbjktnmfvg" class="animable"></path><path d="M360.72,243.44a8.16,8.16,0,0,1-5.39,3c-2.82.3-3.77-2.32-2.6-4.74,1-2.18,3.78-5,6.42-4.16S362.33,241.35,360.72,243.44Z" style="fill: rgb(238, 193, 187); transform-origin: 356.934px 241.926px;" id="elk8b8287oh5p" class="animable"></path><path d="M356.93,224.3s5.6-.14,3.4-3.69S356.93,224.3,356.93,224.3Z" style="fill: rgb(38, 50, 56); transform-origin: 358.886px 221.965px;" id="elynikol0cczg" class="animable"></path><path d="M288.23,249.64l1.33,1.33-3,3L299,266.44l3-3,1.16,1.16a4.5,4.5,0,1,0,6.36-6.37L308.37,257l3-3-3-3L307,252.3a4.5,4.5,0,0,1-6.37-6.37L302,244.6l-3-3-3,3-1.33-1.33a4.5,4.5,0,1,0-6.37,6.37Z" style="fill: rgb(64, 127, 255); transform-origin: 298.965px 254.02px;" id="el8f0ckifb2d4" class="animable"></path><g id="elayd7yhn386c"><path d="M288.23,249.64l1.33,1.33-3,3L299,266.44l3-3,1.16,1.16a4.5,4.5,0,1,0,6.36-6.37L308.37,257l3-3-3-3L307,252.3a4.5,4.5,0,0,1-6.37-6.37L302,244.6l-3-3-3,3-1.33-1.33a4.5,4.5,0,1,0-6.37,6.37Z" style="opacity: 0.3; transform-origin: 298.965px 254.02px;" class="animable"></path></g></g><g id="freepik--Table--inject-3" class="animable" style="transform-origin: 267.47px 348.599px;"><path d="M300.9,398.85a35.32,35.32,0,1,1,0-70.63h35.31V313.11H249.82L254.46,414h81.75V398.85Z" style="fill: rgb(64, 127, 255); transform-origin: 293.015px 363.555px;" id="elvs8w3dz1fa" class="animable"></path><g id="elcjorfrdeine"><path d="M300.9,398.85a35.32,35.32,0,1,1,0-70.63h35.31V313.11H249.82L254.46,414h81.75V398.85Z" style="fill: rgb(255, 255, 255); opacity: 0.5; transform-origin: 293.015px 363.555px;" class="animable"></path></g><polygon points="254.46 413.96 203.37 413.96 198.72 313.11 249.82 313.11 254.46 413.96" style="fill: rgb(64, 127, 255); transform-origin: 226.59px 363.535px;" id="el6f7027b7ue7" class="animable"></polygon><g id="el2n0xs5sq8ru"><polygon points="254.46 413.96 203.37 413.96 198.72 313.11 249.82 313.11 254.46 413.96" style="fill: rgb(255, 255, 255); opacity: 0.3; transform-origin: 226.59px 363.535px;" class="animable"></polygon></g><rect x="194.08" y="307.63" width="57.29" height="5.49" style="fill: rgb(64, 127, 255); transform-origin: 222.725px 310.375px;" id="el1z2k4ia8z9d" class="animable"></rect><g id="ell3fas4tzzv"><rect x="194.08" y="307.63" width="57.29" height="5.49" style="fill: rgb(255, 255, 255); opacity: 0.1; transform-origin: 222.725px 310.375px;" class="animable"></rect></g><rect x="251.37" y="307.63" width="89.49" height="5.49" style="fill: rgb(64, 127, 255); transform-origin: 296.115px 310.375px;" id="eld7gvrebxgne" class="animable"></rect><g id="el6y1i375bmg5"><rect x="251.37" y="307.63" width="89.49" height="5.49" style="fill: rgb(255, 255, 255); opacity: 0.3; transform-origin: 296.115px 310.375px;" class="animable"></rect></g><path d="M246.31,303.25h1.92v4.38h17.92v-4.38h1.67a4.59,4.59,0,0,0,0-9.18h-1.67V289.7h-4.37v1.92a4.59,4.59,0,1,1-9.18,0V289.7h-4.37v4.37h-1.92a4.59,4.59,0,0,0,0,9.18Z" style="fill: rgb(64, 127, 255); transform-origin: 257.065px 298.665px;" id="elneeoqab489e" class="animable"></path><g id="el8mkpb54lk88"><path d="M246.31,303.25h1.92v4.38h17.92v-4.38h1.67a4.59,4.59,0,0,0,0-9.18h-1.67V289.7h-4.37v1.92a4.59,4.59,0,1,1-9.18,0V289.7h-4.37v4.37h-1.92a4.59,4.59,0,0,0,0,9.18Z" style="fill: rgb(255, 255, 255); opacity: 0.5; transform-origin: 257.065px 298.665px;" class="animable"></path></g><path d="M278.33,303.25h-1.92v4.38h17.93v-4.38H296a4.59,4.59,0,0,0,0-9.18h-1.66V289.7H290v-1.92a4.59,4.59,0,0,0-9.18,0v1.92h-4.37v4.37h1.92a4.59,4.59,0,0,1,0,9.18Z" style="fill: rgb(64, 127, 255); transform-origin: 288.5px 295.414px;" id="elip6ffg250v9" class="animable"></path><path d="M232.51,294.07h1.92V289.7H216.5v4.37h-1.67a4.59,4.59,0,0,0,0,9.18h1.67v4.38h17.93v-4.38h-1.92a4.59,4.59,0,0,1,0-9.18Z" style="fill: rgb(64, 127, 255); transform-origin: 222.335px 298.665px;" id="elf0rf7mpzgvi" class="animable"></path><g id="el1ndkklsxr2s"><path d="M232.51,294.07h1.92V289.7H216.5v4.37h-1.67a4.59,4.59,0,0,0,0,9.18h1.67v4.38h17.93v-4.38h-1.92a4.59,4.59,0,0,1,0-9.18Z" style="opacity: 0.3; transform-origin: 222.335px 298.665px;" class="animable"></path></g></g><g id="freepik--character-1--inject-3" class="animable" style="transform-origin: 166.567px 265.895px;"><polygon points="150.01 388.06 151.58 406.01 159.73 406.01 160.56 388.06 150.01 388.06" style="fill: rgb(185, 121, 100); transform-origin: 155.285px 397.035px;" id="elzn45ad3ezi" class="animable"></polygon><path d="M160.76,405.37a.2.2,0,0,1-.16-.16.19.19,0,0,1,.09-.21c.13-.08,3.08-1.83,4.51-1.47a1.07,1.07,0,0,1,.65.47.77.77,0,0,1,0,.88,3.68,3.68,0,0,1-2.5.69A15.34,15.34,0,0,1,160.76,405.37Zm.65-.28c1.6.17,3.75.12,4.14-.45,0-.06.1-.19-.05-.44a.56.56,0,0,0-.4-.27,1.31,1.31,0,0,0-.39-.05A9.32,9.32,0,0,0,161.41,405.09Z" style="fill: rgb(64, 127, 255); transform-origin: 163.291px 404.533px;" id="el21zexrue1ln" class="animable"></path><path d="M160.66,405.36a.2.2,0,0,1-.1-.18c0-.11.2-2.41,1.27-3.33a1.48,1.48,0,0,1,1.12-.36c.56,0,.74.32.76.55.2,1-1.82,2.85-2.83,3.32h-.09A.2.2,0,0,1,160.66,405.36Zm2.16-3.49a1.1,1.1,0,0,0-.69.27,4.7,4.7,0,0,0-1.09,2.64c1.05-.65,2.37-2.12,2.31-2.7,0-.05,0-.19-.41-.22Z" style="fill: rgb(64, 127, 255); transform-origin: 162.142px 403.427px;" id="elhejxyhq8k6c" class="animable"></path><path d="M159.87,404.19l-9.32.16a.75.75,0,0,0-.72.6l-1.56,7.61a1.25,1.25,0,0,0,1,1.48l.27,0c3.36-.12,6.34-.36,10.52-.42,4.94-.08,3.7.53,9.5.51,3.5,0,4.07-4,2.59-4.17-6.8-.74-7.54-2.77-10.2-5.16A3.05,3.05,0,0,0,159.87,404.19Z" style="fill: rgb(38, 50, 56); transform-origin: 160.579px 409.156px;" id="el49b3z937opo" class="animable"></path><path d="M174.44,231.45,161.11,394.72H150S143.93,352,146.79,317c.15-1.82.32-3.61.52-5.38a34.31,34.31,0,0,0,0-7.78c-.17-1.52-.38-3.41-.61-5.57-1.28-11.89-3.19-31.73-2.81-40.74,0,0-5.65-12.78-1.16-30.55h31.7Z" style="fill: rgb(64, 127, 255); transform-origin: 157.718px 310.85px;" id="elvev6yrisy6" class="animable"></path><polygon points="148.43 391.67 148.9 394.72 147.88 397.22 161.95 397.22 161.58 394.72 162.78 391.67 148.43 391.67" style="fill: rgb(64, 127, 255); transform-origin: 155.33px 394.445px;" id="elk9sw1b2eyh" class="animable"></polygon><g id="el6n8q6khff12"><polygon points="148.43 391.67 148.9 394.72 147.88 397.22 161.95 397.22 161.58 394.72 162.78 391.67 148.43 391.67" style="fill: rgb(255, 255, 255); opacity: 0.5; transform-origin: 155.33px 394.445px;" class="animable"></polygon></g><g id="elo7adsvooygm"><path d="M151.72,240.76l-8.84,13.83a27.24,27.24,0,0,0,1,3c-.28,6.65.69,18.69,1.73,29.08,9.91-27.88,12.09-45.87,12.09-45.87Z" style="opacity: 0.1; transform-origin: 150.29px 263.715px;" class="animable"></path></g><polygon points="102.53 387.59 96.19 406.01 89.2 406.01 91.6 387.04 102.53 387.59" style="fill: rgb(185, 121, 100); transform-origin: 95.865px 396.525px;" id="el6w7q5tl9ccy" class="animable"></polygon><path d="M98.42,405.37a.23.23,0,0,1-.17-.16.21.21,0,0,1,.1-.21c.13-.08,3.08-1.83,4.51-1.47a1.07,1.07,0,0,1,.65.47.78.78,0,0,1,0,.88,3.68,3.68,0,0,1-2.5.69A15.34,15.34,0,0,1,98.42,405.37Zm.65-.28c1.59.17,3.75.12,4.13-.45.06-.06.11-.19,0-.44a.56.56,0,0,0-.41-.27,1.2,1.2,0,0,0-.38-.05A9.25,9.25,0,0,0,99.07,405.09Z" style="fill: rgb(64, 127, 255); transform-origin: 100.947px 404.533px;" id="ellta32jzoffl" class="animable"></path><path d="M98.31,405.36a.21.21,0,0,1-.09-.18c0-.11.2-2.41,1.27-3.33a1.48,1.48,0,0,1,1.12-.36c.56,0,.74.32.76.55.2,1-1.82,2.85-2.83,3.32h-.09A.23.23,0,0,1,98.31,405.36Zm2.17-3.49a1.08,1.08,0,0,0-.69.27,4.7,4.7,0,0,0-1.09,2.64c1-.65,2.37-2.12,2.3-2.7,0-.05,0-.19-.4-.22Z" style="fill: rgb(64, 127, 255); transform-origin: 99.8018px 403.427px;" id="eli7b143muv4" class="animable"></path><path d="M97.53,404.19l-9.32.16a.75.75,0,0,0-.72.6l-1.56,7.61a1.25,1.25,0,0,0,1,1.48l.27,0c3.35-.12,6.34-.36,10.52-.42,4.94-.08,3.7.53,9.5.51,3.5,0,4.07-4,2.58-4.17-6.8-.74-7.54-2.77-10.2-5.16A3,3,0,0,0,97.53,404.19Z" style="fill: rgb(38, 50, 56); transform-origin: 98.238px 409.155px;" id="elaq3cfhp5r7j" class="animable"></path><path d="M162.78,227,101.14,394.72H90s2.81-42.53,16.8-75.29c.68-1.57,1.37-3.12,2.1-4.65a38.79,38.79,0,0,0,3.2-10.43c.12-.8.27-1.66.42-2.58,2-11.82,7.42-32.61,9.18-44.22,1.2-7.87,0-15.55,8.89-30.55Z" style="fill: rgb(64, 127, 255); transform-origin: 126.39px 310.86px;" id="ellkke70znrm" class="animable"></path><polygon points="88.18 391.67 88.64 394.72 87.62 397.22 101.69 397.22 102.43 394.72 103.64 391.67 88.18 391.67" style="fill: rgb(64, 127, 255); transform-origin: 95.63px 394.445px;" id="el9hh1giisvi" class="animable"></polygon><g id="elpd8fzjdjrqf"><polygon points="88.18 391.67 88.64 394.72 87.62 397.22 101.69 397.22 102.43 394.72 103.64 391.67 88.18 391.67" style="fill: rgb(255, 255, 255); opacity: 0.5; transform-origin: 95.63px 394.445px;" class="animable"></polygon></g><path d="M142.49,131.76c-3.76,2.89-4,8.64-3.94,12.05s.27,0-1.79,6,5.46,11.43,8.44,11.07c9-1.11,13.48.26,19.43,1.65s12.92-5.41,12.15-12.31c-.88-7.88-3.74-11.34-1.73-13.87s6.11-11.45-1.14-13.28c-6.35-1.59-2.82-5.31-12.41-5.41C152.88,117.61,143,119.48,142.49,131.76Z" style="fill: rgb(38, 50, 56); transform-origin: 157.222px 140.186px;" id="elb4zdve3f1ep" class="animable"></path><path d="M151,147.66c.58,5.32.78,15-3.19,18.16a60.48,60.48,0,0,0,12.79,9.08c6.23-4.3,3.46-7.67,3.46-7.67-5.7-1.94-5.18-6.22-3.87-10.19Z" style="fill: rgb(185, 121, 100); transform-origin: 156.242px 161.28px;" id="elgsloo9iyjz5" class="animable"></path><g id="elppb3v03d92"><path d="M154.73,151.53l5.47,5.55a17.21,17.21,0,0,0-.75,2.84c-2.19-.52-5.38-2.8-5.41-5.16A9.44,9.44,0,0,1,154.73,151.53Z" style="opacity: 0.2; isolation: isolate; transform-origin: 157.12px 155.725px;" class="animable"></path></g><path d="M146.28,139.39c2.23,8.5,3,12.14,8.19,15.7,7.84,5.35,17.79.77,18.15-8.22.33-8.09-3.35-20.61-12.44-22.38a12,12,0,0,0-13.9,14.9Z" style="fill: rgb(185, 121, 100); transform-origin: 159.253px 140.819px;" id="elo0i1cl5icuj" class="animable"></path><path d="M145.59,146.59a6.4,6.4,0,0,0,3.77,3.13c2.15.65,3.28-1.26,2.71-3.32-.5-1.85-2.23-4.42-4.41-4.17a2.9,2.9,0,0,0-2.45,3.29A2.75,2.75,0,0,0,145.59,146.59Z" style="fill: rgb(235, 179, 118); transform-origin: 148.698px 146.031px;" id="elbnmgfr6lub6" class="animable"></path><path d="M150.29,122.33c-1.52,2.61,2.27,7.44,10.23,7,6-.35,13.53,6.1,12.92-.87C172.93,122.1,157.84,119.06,150.29,122.33Z" style="fill: rgb(38, 50, 56); transform-origin: 161.718px 126.358px;" id="el3f6r8q088rr" class="animable"></path><path d="M166.47,141.58a19,19,0,0,0,3.38,4,3.06,3.06,0,0,1-2.4,1Z" style="fill: rgb(162, 78, 63); transform-origin: 168.16px 144.081px;" id="ela7vuqz6clrl" class="animable"></path><path d="M156.55,138.68a.39.39,0,0,1-.18,0,.36.36,0,0,1-.12-.48h0a4.08,4.08,0,0,1,3.15-2,.35.35,0,0,1,.35.34.34.34,0,0,1-.32.36,3.39,3.39,0,0,0-2.59,1.71A.34.34,0,0,1,156.55,138.68Z" style="fill: rgb(38, 50, 56); transform-origin: 157.977px 137.445px;" id="eluxbg9zgf1g" class="animable"></path><path d="M171.41,135.88a.34.34,0,0,1-.17,0,3.44,3.44,0,0,0-3.09-.2.35.35,0,0,1-.47-.14h0a.36.36,0,0,1,.16-.48,4.11,4.11,0,0,1,3.75.21.35.35,0,0,1-.18.66Z" style="fill: rgb(38, 50, 56); transform-origin: 169.711px 135.318px;" id="elkuyq40wmlpg" class="animable"></path><path d="M218.46,167.72l4.85-5.42,8.2-2.5,5.38-2.5a1.5,1.5,0,0,1,2.12,1.51l-.68,6.54a1.5,1.5,0,0,1-1.69,1.33l-9.72-1.32-4.44,7.36Z" style="fill: rgb(185, 121, 100); transform-origin: 228.739px 164.941px;" id="el1xs899ksrds" class="animable"></path><path d="M175.22,166.14l25.32,16.71L219.43,165l6.11,4.53s-16.11,26.29-23.33,26.06-22-8.49-27.77-13.42c-3.18-2.7-3.3-7.4-1.47-15.13A1.48,1.48,0,0,1,175.22,166.14Z" style="fill: rgb(38, 50, 56); transform-origin: 198.659px 180.296px;" id="elfrqhuwj8nmc" class="animable"></path><g id="elj631wpgxke"><path d="M176.41,169.88l-3.1-1.5-1.5,5.82c-.19,3.66.59,6.22,2.63,8a81.43,81.43,0,0,0,20.31,11.58C182.29,186.82,176.41,169.88,176.41,169.88Z" style="opacity: 0.5; transform-origin: 183.266px 181.08px;" class="animable"></path></g><path d="M128.9,228.39h46.47s.92-24.16,5-32.49c3.43-7-3.15-24.2-5.29-29.4a2.35,2.35,0,0,0-2.26-1.46l-41,1.35a1.85,1.85,0,0,0-1.73,2.31C131.78,175,135.5,194.88,128.9,228.39Z" style="fill: rgb(38, 50, 56); transform-origin: 155.121px 196.714px;" id="el4w13voinxx6" class="animable"></path><path d="M118.44,234.13l.65,9.26,5.74,4v2.68l.15.34a2.53,2.53,0,0,1-2,3.55l-5.14.64a2.53,2.53,0,0,1-2.83-2.33l-.55-7.2-2.68-10.92Z" style="fill: rgb(185, 121, 100); transform-origin: 118.492px 244.374px;" id="elbtnu01g7n6q" class="animable"></path><path d="M144.77,165.73l.51-1.22a2.54,2.54,0,0,0,0-1.84l-.42-1.14a1,1,0,0,1,1.16-1.38c4.24.79,14.73,2.51,17.37.67,2.42-1.68,1.33.69.55,2.11a1.64,1.64,0,0,0,.17,1.83l1.41,1.71s1.51,3.83-20,.66A1,1,0,0,1,144.77,165.73Z" style="fill: rgb(38, 50, 56); transform-origin: 155.112px 164.252px;" id="elp8r33px2fn" class="animable"></path><g id="el09iy3rzl7wu8"><path d="M144.77,165.73l.51-1.22a2.54,2.54,0,0,0,0-1.84l-.42-1.14a1,1,0,0,1,1.16-1.38c4.24.79,14.73,2.51,17.37.67,2.42-1.68,1.33.69.55,2.11a1.64,1.64,0,0,0,.17,1.83l1.41,1.71s1.51,3.83-20,.66A1,1,0,0,1,144.77,165.73Z" style="opacity: 0.2; transform-origin: 155.112px 164.252px;" class="animable"></path></g><g id="el5kukwk3gbex"><path d="M132.52,199.39c4.32-15.3,2-23,2-23h-2.9a125.59,125.59,0,0,1,.91,23.06Z" style="opacity: 0.5; transform-origin: 133.381px 187.92px;" class="animable"></path></g><path d="M131.67,168a1.54,1.54,0,0,0-2.44,0c-4.84,6.28-22.8,30.05-23.28,37.9-.56,9.07,6.85,37,6.85,37l6.66-1.48-1.22-35S129.55,191,132.5,185.72C134.72,181.72,137.47,175.77,131.67,168Z" style="fill: rgb(38, 50, 56); transform-origin: 120.527px 205.15px;" id="elbil2pddmjy9" class="animable"></path><polygon points="175.09 230.2 128.3 230.2 128.91 226.94 175.48 226.94 175.09 230.2" style="fill: rgb(64, 127, 255); transform-origin: 151.89px 228.57px;" id="elad1mxvq3fjd" class="animable"></polygon><polygon points="152.28 230.2 152.28 226.94 134.73 226.94 133.99 230.2 152.28 230.2" style="fill: rgb(64, 127, 255); transform-origin: 143.135px 228.57px;" id="elphtt9dfxr7" class="animable"></polygon><rect x="155.12" y="226.94" width="9.97" height="3.26" style="fill: rgb(64, 127, 255); transform-origin: 160.105px 228.57px;" id="el8rtu059uhko" class="animable"></rect><polygon points="132.1 226.94 128.91 226.94 128.3 230.2 131.43 230.2 132.1 226.94" style="fill: rgb(64, 127, 255); transform-origin: 130.2px 228.57px;" id="elbl2blrtkmy" class="animable"></polygon><polygon points="167.99 226.94 167.99 230.2 175.09 230.2 175.48 226.94 167.99 226.94" style="fill: rgb(64, 127, 255); transform-origin: 171.735px 228.57px;" id="elwhel9ex6x48" class="animable"></polygon><g id="el9egoj7z3spc"><g style="opacity: 0.7; transform-origin: 151.89px 228.57px;" class="animable"><polygon points="152.28 230.2 152.28 226.94 134.73 226.94 133.99 230.2 152.28 230.2" style="fill: rgb(255, 255, 255); transform-origin: 143.135px 228.57px;" id="eltonmz8l6o" class="animable"></polygon><rect x="155.12" y="226.94" width="9.97" height="3.26" style="fill: rgb(255, 255, 255); transform-origin: 160.105px 228.57px;" id="elfo96l4c4vrr" class="animable"></rect><polygon points="132.1 226.94 128.91 226.94 128.3 230.2 131.43 230.2 132.1 226.94" style="fill: rgb(255, 255, 255); transform-origin: 130.2px 228.57px;" id="el3ae9e9zonk8" class="animable"></polygon><polygon points="167.99 226.94 167.99 230.2 175.09 230.2 175.48 226.94 167.99 226.94" style="fill: rgb(255, 255, 255); transform-origin: 171.735px 228.57px;" id="el1mni0w0myvx" class="animable"></polygon></g></g><path d="M163.89,148.86a6.22,6.22,0,0,0,1.22-.1.22.22,0,0,0,.17-.25h0a.22.22,0,0,0-.24-.18,5.77,5.77,0,0,1-5-1.4.22.22,0,0,0-.32.29A6,6,0,0,0,163.89,148.86Z" style="fill: rgb(38, 50, 56); transform-origin: 162.486px 147.874px;" id="eltolxku8k33e" class="animable"></path><path d="M162.56,139.65a.26.26,0,0,0-.19.06,2.07,2.07,0,0,1-1.78.51.26.26,0,0,0-.31.18.25.25,0,0,0,.17.31h0a2.53,2.53,0,0,0,2.25-.62.25.25,0,0,0,0-.36h0A.24.24,0,0,0,162.56,139.65Z" style="fill: rgb(38, 50, 56); transform-origin: 161.523px 140.207px;" id="elvreu7axkxlg" class="animable"></path><path d="M170.66,139.26a.26.26,0,0,0-.19.06,2,2,0,0,1-1.77.55.25.25,0,0,0-.13.49h0a2.52,2.52,0,0,0,2.23-.66.24.24,0,0,0,0-.35h0A.28.28,0,0,0,170.66,139.26Z" style="fill: rgb(38, 50, 56); transform-origin: 169.629px 139.833px;" id="ely6s8to5ozj" class="animable"></path><path d="M155.14,126.35a28.61,28.61,0,0,0,8,4.58.36.36,0,0,1-.11.7C159.89,131.69,154.8,131.07,155.14,126.35Z" style="fill: rgb(38, 50, 56); transform-origin: 159.253px 128.992px;" id="ellygoydi1e1k" class="animable"></path><path d="M170.53,136.46c-2.37.23-3.64,1.29-3.65,3l-.76.08a2.51,2.51,0,0,0-1.37-1.88,5.14,5.14,0,0,0-2.78-.36,5.23,5.23,0,0,0-2.67.88,2.68,2.68,0,0,0-.52.55L150.49,145l.44.58s7.36-5.15,7.39-4.91a4,4,0,0,0,3.93,3.57,2.55,2.55,0,0,0,.39,0,3.91,3.91,0,0,0,3.55-3.95l.76-.08a4,4,0,0,0,3.87,3.22l.38,0a4,4,0,0,0,3.56-4.32C174.57,137.13,173.07,136.21,170.53,136.46Zm-5.78,5.86a3.17,3.17,0,0,1-2.18,1.16,3.23,3.23,0,0,1-3.53-2.9,1.89,1.89,0,0,1,.71-1.83A4.44,4.44,0,0,1,162,138c.25,0,.5,0,.73,0a3.73,3.73,0,0,1,1.65.32,1.92,1.92,0,0,1,1.05,1.66A3.23,3.23,0,0,1,164.75,142.32Zm8.56-.83a3.19,3.19,0,0,1-2.18,1.16,3.23,3.23,0,0,1-3.53-2.9c0-.56-.22-2.26,3-2.57a6.29,6.29,0,0,1,.73,0,3.81,3.81,0,0,1,1.66.32,1.93,1.93,0,0,1,1,1.66A3.24,3.24,0,0,1,173.31,141.49Z" style="fill: rgb(64, 127, 255); transform-origin: 162.632px 141px;" id="el964qechz4d5" class="animable"></path><path d="M154.65,124.25c4.15,3.18,1.39,9-.61,11.59s-5.09,5.06-2.7,8.92,4,14.5-3.6,12.64-7.26-14.57-5.05-20.44S149.7,120.47,154.65,124.25Z" style="fill: rgb(38, 50, 56); transform-origin: 149.06px 140.536px;" id="eln4r8yj8l1qs" class="animable"></path><path d="M242.84,149.29H241v-5.23h-4.19v.8a4.39,4.39,0,0,1-8.78,0v-.8h-4.19v5.23h-1.59a4.39,4.39,0,1,0,0,8.78h1.59v5.23H228v-.8a4.39,4.39,0,0,1,8.78,0v.8H241v-5.23h1.84a4.39,4.39,0,0,0,0-8.78Z" style="fill: rgb(64, 127, 255); transform-origin: 232.545px 153.68px;" id="elvx49pe2q6bh" class="animable"></path><g id="elr4ccgbatrjg"><path d="M242.84,149.29H241v-5.23h-4.19v.8a4.39,4.39,0,0,1-8.78,0v-.8h-4.19v5.23h-1.59a4.39,4.39,0,1,0,0,8.78h1.59v5.23H228v-.8a4.39,4.39,0,0,1,8.78,0v.8H241v-5.23h1.84a4.39,4.39,0,0,0,0-8.78Z" style="opacity: 0.4; transform-origin: 232.545px 153.68px;" class="animable"></path></g></g><defs>     <filter id="active" height="200%">         <feMorphology in="SourceAlpha" result="DILATED" operator="dilate" radius="2"></feMorphology>                <feFlood flood-color="#32DFEC" flood-opacity="1" result="PINK"></feFlood>        <feComposite in="PINK" in2="DILATED" operator="in" result="OUTLINE"></feComposite>        <feMerge>            <feMergeNode in="OUTLINE"></feMergeNode>            <feMergeNode in="SourceGraphic"></feMergeNode>        </feMerge>    </filter>    <filter id="hover" height="200%">        <feMorphology in="SourceAlpha" result="DILATED" operator="dilate" radius="2"></feMorphology>                <feFlood flood-color="#ff0000" flood-opacity="0.5" result="PINK"></feFlood>        <feComposite in="PINK" in2="DILATED" operator="in" result="OUTLINE"></feComposite>        <feMerge>            <feMergeNode in="OUTLINE"></feMergeNode>            <feMergeNode in="SourceGraphic"></feMergeNode>        </feMerge>            <feColorMatrix type="matrix" values="0   0   0   0   0                0   1   0   0   0                0   0   0   0   0                0   0   0   1   0 "></feColorMatrix>    </filter></defs></svg>