<svg class="animated" id="freepik_stories-breast-cancer-research" xmlns="http://www.w3.org/2000/svg" viewBox="0 0 463.39 435.19" version="1.1" xmlns:xlink="http://www.w3.org/1999/xlink" ><style>svg#freepik_stories-breast-cancer-research:not(.animated) .animable {opacity: 0;}svg#freepik_stories-breast-cancer-research.animated #freepik--background-simple--inject-110 {animation: 1.5s Infinite  linear floating;animation-delay: 0s;}svg#freepik_stories-breast-cancer-research.animated #freepik--Equipment--inject-110 {animation: 1s 1 forwards cubic-bezier(.36,-0.01,.5,1.38) slideRight;animation-delay: 0s;}svg#freepik_stories-breast-cancer-research.animated #freepik--device-2--inject-110 {animation: 1s 1 forwards cubic-bezier(.36,-0.01,.5,1.38) slideRight;animation-delay: 0s;}svg#freepik_stories-breast-cancer-research.animated #freepik--Bottles--inject-110 {animation: 1s 1 forwards cubic-bezier(.36,-0.01,.5,1.38) slideRight;animation-delay: 0s;}svg#freepik_stories-breast-cancer-research.animated #freepik--Table--inject-110 {animation: 1s 1 forwards cubic-bezier(.36,-0.01,.5,1.38) slideRight;animation-delay: 0s;}svg#freepik_stories-breast-cancer-research.animated #freepik--device-1--inject-110 {animation: 1s 1 forwards cubic-bezier(.36,-0.01,.5,1.38) slideRight;animation-delay: 0s;}svg#freepik_stories-breast-cancer-research.animated #freepik--Character--inject-110 {animation: 1s 1 forwards cubic-bezier(.36,-0.01,.5,1.38) slideRight;animation-delay: 0s;}svg#freepik_stories-breast-cancer-research.animated #freepik--Ribbon--inject-110 {animation: 1s 1 forwards cubic-bezier(.36,-0.01,.5,1.38) slideRight;animation-delay: 0s;}            @keyframes floating {                0% {                    opacity: 1;                    transform: translateY(0px);                }                50% {                    transform: translateY(-10px);                }                100% {                    opacity: 1;                    transform: translateY(0px);                }            }                    @keyframes slideRight {                0% {                    opacity: 0;                    transform: translateX(30px);                }                100% {                    opacity: 1;                    transform: translateX(0);                }            }        </style><g id="freepik--background-simple--inject-110" class="animable" style="transform-origin: 253.234px 258.551px;"><g id="elfyya8fgso77"><path d="M462.11,146s-27.77-64.8-85.36-90.51-91.54-5.15-132.68,20.57-135.77,7.2-174.85,28.8-57.6,74.05-37,132.67S106.25,340.41,93.9,369.21,197.78,504,294.46,464.86s71-82.28,115.2-101.82,75.08-72,73-135.76S462.11,146,462.11,146Z" style="fill: #4090B9; transform-origin: 253.234px 258.551px;" class="animable" id="elmnace1w85ci"></path></g><g id="elzop0el2dkps"><path d="M462.11,146s-27.77-64.8-85.36-90.51-91.54-5.15-132.68,20.57-135.77,7.2-174.85,28.8-57.6,74.05-37,132.67S106.25,340.41,93.9,369.21,197.78,504,294.46,464.86s71-82.28,115.2-101.82,75.08-72,73-135.76S462.11,146,462.11,146Z" style="fill: rgb(255, 255, 255); opacity: 0.8; transform-origin: 253.234px 258.551px;" class="animable" id="eljga1hlhoyue"></path></g></g><g id="freepik--Equipment--inject-110" class="animable" style="transform-origin: 295.79px 181.81px;"><g id="el5sdf43cf417"><path d="M361,143.73l-6.72-26.09V110.5h-9.51v7.14L338,143.73a2.77,2.77,0,0,0,2.68,3.46h17.59A2.77,2.77,0,0,0,361,143.73Z" style="fill: rgb(189, 189, 189); transform-origin: 349.5px 128.845px;" class="animable" id="elfjl9f9j83s6"></path></g><g id="elxfma0b0ab5f"><path d="M355.47,130.54h-12L340,144.24a.72.72,0,0,0,.13.63.72.72,0,0,0,.57.28h17.59a.74.74,0,0,0,.58-.28.72.72,0,0,0,.13-.63Z" style="fill: gray; transform-origin: 349.5px 137.845px;" class="animable" id="elnwe0bcx30i"></path></g><g id="el6dekwrx249s"><path d="M401.58,143.73l-6.72-26.09V110.5h-9.51v7.14l-6.72,26.09a2.77,2.77,0,0,0,2.68,3.46H398.9A2.77,2.77,0,0,0,401.58,143.73Z" style="fill: rgb(189, 189, 189); transform-origin: 390.105px 128.845px;" class="animable" id="elg0ajiy3ulx7"></path></g><g id="elcylqdbwl9ub"><path d="M396.08,130.54H384.13l-3.53,13.7a.73.73,0,0,0,.71.91H398.9a.73.73,0,0,0,.71-.91Z" style="fill: gray; transform-origin: 390.105px 137.845px;" class="animable" id="elz4fgvnigu9"></path></g><line x1="329.44" y1="78.33" x2="329.44" y2="0.5" style="fill: none; stroke: rgb(189, 189, 189); stroke-linecap: round; stroke-linejoin: round; transform-origin: 329.44px 39.415px;" id="elrsrfs7rmr7o" class="animable"></line><rect x="166.47" y="108.85" width="257.62" height="151.72" style="fill: rgb(219, 219, 219); transform-origin: 295.28px 184.71px;" id="el90hjhczpca8" class="animable"></rect><rect x="173.59" y="114.88" width="243.38" height="145.7" style="fill: rgb(189, 189, 189); transform-origin: 295.28px 187.73px;" id="elkedbv6eyjgo" class="animable"></rect><polygon points="303.59 173.6 312.36 185.65 380.27 185.65 389.6 173.6 303.59 173.6" style="fill: gray; transform-origin: 346.595px 179.625px;" id="elew2yy9750k" class="animable"></polygon><rect x="321.04" y="180.47" width="52.72" height="5.18" style="fill: rgb(92, 92, 92); transform-origin: 347.4px 183.06px;" id="elmk7bafa36w" class="animable"></rect><rect x="252.48" y="153.59" width="43.27" height="13.1" style="fill: gray; transform-origin: 274.115px 160.14px;" id="elkktajg2jmu" class="animable"></rect><rect x="314.94" y="135.84" width="6.4" height="15.66" style="fill: rgb(38, 50, 56); stroke: rgb(38, 50, 56); stroke-linecap: round; stroke-linejoin: round; transform-origin: 318.14px 143.67px;" id="el1yqy2c4rko9k" class="animable"></rect><path d="M312.35,144.07h11.59a3.8,3.8,0,0,1,3.8,3.8v20.27a0,0,0,0,1,0,0h-19.2a0,0,0,0,1,0,0V147.87A3.8,3.8,0,0,1,312.35,144.07Z" style="fill: rgb(219, 219, 219); transform-origin: 318.14px 156.105px;" id="elgx2ka02n6kf" class="animable"></path><rect x="341.3" y="135.84" width="6.4" height="15.66" style="fill: rgb(38, 50, 56); stroke: rgb(38, 50, 56); stroke-linecap: round; stroke-linejoin: round; transform-origin: 344.5px 143.67px;" id="elm6ct5s7r2xj" class="animable"></rect><path d="M338.71,144.07H350.3a3.8,3.8,0,0,1,3.8,3.8v20.27a0,0,0,0,1,0,0H334.9a0,0,0,0,1,0,0V147.87A3.8,3.8,0,0,1,338.71,144.07Z" style="fill: rgb(219, 219, 219); transform-origin: 344.5px 156.105px;" id="elpo2ot7lzqc" class="animable"></path><rect x="367.66" y="135.84" width="6.4" height="15.66" style="fill: rgb(38, 50, 56); stroke: rgb(38, 50, 56); stroke-linecap: round; stroke-linejoin: round; transform-origin: 370.86px 143.67px;" id="elp8f1s24s6b" class="animable"></rect><path d="M365.06,144.07h11.59a3.8,3.8,0,0,1,3.8,3.8v20.27a0,0,0,0,1,0,0h-19.2a0,0,0,0,1,0,0V147.87A3.8,3.8,0,0,1,365.06,144.07Z" style="fill: rgb(219, 219, 219); transform-origin: 370.85px 156.105px;" id="el203csfoju27" class="animable"></path><rect x="252.48" y="142.31" width="43.27" height="11.27" style="fill: rgb(163, 163, 163); transform-origin: 274.115px 147.945px;" id="elsorpbexe0t" class="animable"></rect><rect x="173.59" y="165.81" width="243.38" height="9.86" style="fill: rgb(219, 219, 219); transform-origin: 295.28px 170.74px;" id="elx1c54bhidd" class="animable"></rect><rect x="358.39" y="211.28" width="16.84" height="51.35" style="fill: rgb(38, 50, 56); stroke: rgb(38, 50, 56); stroke-linecap: round; stroke-linejoin: round; transform-origin: 366.81px 236.955px;" id="eltmy7dr6nxz" class="animable"></rect><rect x="327.58" y="186.22" width="78.46" height="64.91" style="fill: rgb(84, 84, 84); transform-origin: 366.81px 218.675px;" id="elqsnhrjsstfg" class="animable"></rect><rect x="333.04" y="190.74" width="67.54" height="55.87" style="fill: rgb(219, 219, 219); transform-origin: 366.81px 218.675px;" id="els6emr6hdz8" class="animable"></rect><rect x="208.11" y="229.35" width="20.54" height="4.52" style="fill: rgb(38, 50, 56); stroke: rgb(38, 50, 56); stroke-linecap: round; stroke-linejoin: round; transform-origin: 218.38px 231.61px;" id="el5w1fta830w4" class="animable"></rect><g id="elba19uok1875"><path d="M199.78,300.44V290.31a10.25,10.25,0,0,1,3.52-7.73l12.5-10.9h45.6l11.88,10.92a10.27,10.27,0,0,1,3.32,7.55v11.93Z" style="fill: rgb(196, 196, 196); transform-origin: 238.19px 286.88px;" class="animable" id="el7spzospnaqh"></path></g><g id="elue2oysr639"><path d="M260.17,284.62c0,4.2-9.84,7.6-22,7.6s-22-3.4-22-7.6,9.84-7.6,22-7.6S260.17,280.42,260.17,284.62Z" style="fill: rgb(219, 219, 219); transform-origin: 238.17px 284.62px;" class="animable" id="elde745lt7nf8"></path></g><rect x="166.47" y="260.57" width="258.64" height="102.55" style="fill: rgb(219, 219, 219); transform-origin: 295.79px 311.845px;" id="elqujr2ogbc5" class="animable"></rect><line x1="166.38" y1="313.97" x2="423.95" y2="313.97" style="fill: none; stroke: gray; stroke-linecap: round; stroke-linejoin: round; transform-origin: 295.165px 313.97px;" id="el2daxzeqeirk" class="animable"></line><rect x="344.67" y="260.57" width="80.43" height="102.55" style="fill: rgb(189, 189, 189); transform-origin: 384.885px 311.845px;" id="elpk9mlpc2ko" class="animable"></rect><rect x="161.46" y="260.57" width="268.66" height="9.86" style="fill: gray; transform-origin: 295.79px 265.5px;" id="eluzcrfuehd0g" class="animable"></rect><polygon points="292.91 270.52 296.97 278.01 320.05 278.01 324.13 270.52 292.91 270.52" style="fill: gray; transform-origin: 308.52px 274.265px;" id="elwpshwuerb2q" class="animable"></polygon><polygon points="292.91 313.65 296.97 321.14 320.05 321.14 324.13 313.65 292.91 313.65" style="fill: gray; transform-origin: 308.52px 317.395px;" id="el5x8a3wnixts" class="animable"></polygon><polygon points="206.23 270.52 210.29 278.01 233.38 278.01 237.45 270.52 206.23 270.52" style="fill: gray; transform-origin: 221.84px 274.265px;" id="el00ydqxf0tacil" class="animable"></polygon><polygon points="206.23 313.65 210.29 321.14 233.38 321.14 237.45 313.65 206.23 313.65" style="fill: gray; transform-origin: 221.84px 317.395px;" id="el020l6hs5xuqv" class="animable"></polygon><line x1="324.32" y1="27.21" x2="395.82" y2="27.21" style="fill: none; stroke: rgb(189, 189, 189); stroke-linecap: round; stroke-linejoin: round; transform-origin: 360.07px 27.21px;" id="elhb9yra13dpv" class="animable"></line><line x1="317.99" y1="27.21" x2="324.32" y2="27.21" style="fill: none; stroke: rgb(189, 189, 189); stroke-linecap: round; stroke-linejoin: round; stroke-width: 3px; transform-origin: 321.155px 27.21px;" id="elu9xuqbt5feg" class="animable"></line><line x1="370.64" y1="27.97" x2="370.64" y2="76.04" style="fill: none; stroke: rgb(189, 189, 189); stroke-linecap: round; stroke-linejoin: round; transform-origin: 370.64px 52.005px;" id="el5u8w10vxsbh" class="animable"></line></g><g id="freepik--device-2--inject-110" class="animable" style="transform-origin: 92.885px 286.63px;"><polygon points="103.78 356.75 103.78 210.4 72.77 210.4 72.77 356.75 62.82 356.75 62.82 362.86 72.77 362.86 103.78 362.86 113.74 362.86 113.74 356.75 103.78 356.75" style="fill: rgb(196, 196, 196); stroke: rgb(184, 184, 184); stroke-linecap: round; stroke-linejoin: round; transform-origin: 88.28px 286.63px;" id="el3afrb111qsw" class="animable"></polygon><rect x="8.68" y="210.4" width="159.19" height="118.93" style="fill: rgb(196, 196, 196); stroke: rgb(184, 184, 184); stroke-linecap: round; stroke-linejoin: round; transform-origin: 88.275px 269.865px;" id="el2ohggxyea4o" class="animable"></rect><rect x="15.68" y="215.63" width="145.19" height="108.47" style="fill: rgb(255, 255, 255); stroke: rgb(184, 184, 184); stroke-linecap: round; stroke-linejoin: round; transform-origin: 88.275px 269.865px;" id="eluuccleaht5r" class="animable"></rect><g id="el3avv5h60h4l"><path d="M99.62,255.42S100,268.34,98.45,273s-11.75,4.7-22.72,7.44S56.15,291.84,54.19,307.9c-.52,4.28-6.66,52.49-6.66,52.49" style="fill: none; stroke: rgb(184, 184, 184); stroke-linecap: round; stroke-linejoin: round; transform-origin: 73.5956px 307.905px;" class="animable" id="eluie2vy9trqg"></path></g><g id="eli189nnbxjyj"><path d="M125,255.42s-.39,12.92,1.17,17.62,11.75,4.7,22.72,7.44,19.58,11.36,21.54,27.42c.52,4.28,6.66,52.49,6.66,52.49" style="fill: none; stroke: rgb(184, 184, 184); stroke-linecap: round; stroke-linejoin: round; transform-origin: 151.023px 307.905px;" class="animable" id="el8ahqv31yuq6"></path></g><g id="elv9wrmr5j9nm"><path d="M66.72,360.39s2.74-12.93,3.53-19.59,3.52-19.19,3.52-19.19-.78,16.45,1.57,24.68A113.36,113.36,0,0,1,78.47,360" style="fill: none; stroke: rgb(184, 184, 184); stroke-linecap: round; stroke-linejoin: round; transform-origin: 72.595px 341px;" class="animable" id="elnzuyl2rilic"></path></g><g id="el2dyipk4ckp"><path d="M155.24,360.39s-2.74-12.93-3.53-19.59-3.52-19.19-3.52-19.19.78,16.45-1.57,24.68A113.36,113.36,0,0,0,143.49,360" style="fill: none; stroke: rgb(184, 184, 184); stroke-linecap: round; stroke-linejoin: round; transform-origin: 149.365px 341px;" class="animable" id="elu6bbcnvkycd"></path></g><g id="el8dx94e6kn4r"><path d="M73.77,332.87a19.31,19.31,0,0,0,26.8,17.78" style="fill: none; stroke: rgb(184, 184, 184); stroke-linecap: round; stroke-linejoin: round; transform-origin: 87.17px 342.516px;" class="animable" id="eldis0rcjp9xc"></path></g><g id="el51gu29pjx29"><path d="M148.15,332.87a19.31,19.31,0,0,1-26.8,17.78" style="fill: none; stroke: rgb(184, 184, 184); stroke-linecap: round; stroke-linejoin: round; transform-origin: 134.75px 342.516px;" class="animable" id="elpmmhfdbgm28"></path></g></g><g id="freepik--Bottles--inject-110" class="animable" style="transform-origin: 78.8665px 369.036px;"><g id="el10lsbxbmvy8"><path d="M72.51,396.25l-9.89-38.41v-10.5h-14v10.5l-9.89,38.41a4.08,4.08,0,0,0,4,5.09H68.57A4.07,4.07,0,0,0,72.51,396.25Z" style="fill: rgb(255, 255, 255); stroke: rgb(38, 50, 56); stroke-miterlimit: 10; transform-origin: 55.6214px 374.34px;" class="animable" id="elp7apwgvfx1"></path></g><g id="elogqqihqza5"><path d="M64.42,376.84H46.83L41.64,397a1,1,0,0,0,.19.92,1,1,0,0,0,.85.42H68.57a1,1,0,0,0,.84-.42,1,1,0,0,0,.2-.92Z" style="fill: #4090B9; transform-origin: 55.6237px 387.59px;" class="animable" id="elx6dn8srm4w"></path></g><g id="elxgyks15ulth"><path d="M92.38,365V342.84h-13V365a18.75,18.75,0,1,0,13,0Z" style="fill: rgb(255, 255, 255); stroke: rgb(38, 50, 56); stroke-miterlimit: 10; transform-origin: 85.88px 372.089px;" class="animable" id="elxg012ag0k0a"></path></g><g id="el97rsk919rqj"><path d="M69.83,377.84a16.54,16.54,0,0,0-.7,4.75,16.75,16.75,0,0,0,33.5,0,16.53,16.53,0,0,0-.69-4.75Z" style="fill: #4090B9; transform-origin: 85.88px 388.59px;" class="animable" id="elscq5dxh5fm9"></path></g><g id="elenu9ikhc3yw"><path d="M111.05,377.37V336.73h-8.58v40.64a12.37,12.37,0,1,0,8.58,0Z" style="fill: rgb(255, 255, 255); stroke: rgb(38, 50, 56); stroke-miterlimit: 10; transform-origin: 106.76px 369.036px;" class="animable" id="elqa1o6q4w6re"></path></g><g id="elxbzilw71e0j"><path d="M96.16,385.83A11.05,11.05,0,1,0,117.81,389a10.77,10.77,0,0,0-.46-3.13Z" style="fill: #4090B9; transform-origin: 106.76px 392.915px;" class="animable" id="elr9prxwi05jd"></path></g></g><g id="freepik--Table--inject-110" class="animable" style="transform-origin: 226.07px 363.12px;"><line x1="451.64" y1="363.12" x2="0.5" y2="363.12" style="fill: none; stroke: rgb(38, 50, 56); stroke-linecap: round; stroke-linejoin: round; transform-origin: 226.07px 363.12px;" id="el3pgglowm4fg" class="animable"></line></g><g id="freepik--device-1--inject-110" class="animable" style="transform-origin: 176.974px 301.315px;"><polygon points="160.27 250.18 111.23 270.54 111.23 346.42 129.74 346.42 129.74 275.17 163.97 256.2 160.27 250.18" style="fill: rgb(255, 255, 255); stroke: rgb(38, 50, 56); stroke-linecap: round; stroke-linejoin: round; transform-origin: 137.6px 298.3px;" id="elraaivwnn9ml" class="animable"></polygon><g id="elqaq3j5wzcr"><path d="M205.23,360.64a1.9,1.9,0,0,1,0-3.47,1.91,1.91,0,0,0-1.91-1.91H187a8.14,8.14,0,0,1-1.91,5.38,1.9,1.9,0,0,1,0,3.47,1.9,1.9,0,0,1,0,3.47,1.9,1.9,0,0,1,0,3.47A1.91,1.91,0,0,0,187,373h16.31a7.93,7.93,0,0,1,1.91-5.37,1.9,1.9,0,0,1,0-3.47,1.9,1.9,0,0,1,0-3.47Z" style="fill: rgb(38, 50, 56); stroke: rgb(38, 50, 56); stroke-linecap: round; stroke-linejoin: round; transform-origin: 195.16px 364.13px;" class="animable" id="el2b4fscojnl"></path></g><rect x="110.88" y="334.39" width="89.87" height="18.39" style="fill: rgb(255, 255, 255); stroke: rgb(38, 50, 56); stroke-linecap: round; stroke-linejoin: round; transform-origin: 155.815px 343.585px;" id="eljgzp8zmdz1g" class="animable"></rect><rect x="110.88" y="343.06" width="89.87" height="9.72" style="fill: rgb(38, 50, 56); stroke: rgb(38, 50, 56); stroke-linecap: round; stroke-linejoin: round; transform-origin: 155.815px 347.92px;" id="el8dm5os81xh2" class="animable"></rect><rect x="116.78" y="352.43" width="10.76" height="10.06" style="fill: rgb(38, 50, 56); stroke: rgb(38, 50, 56); stroke-linecap: round; stroke-linejoin: round; transform-origin: 122.16px 357.46px;" id="elkz3nkyd1shi" class="animable"></rect><rect x="149.4" y="352.43" width="10.76" height="10.06" style="fill: rgb(38, 50, 56); stroke: rgb(38, 50, 56); stroke-linecap: round; stroke-linejoin: round; transform-origin: 154.78px 357.46px;" id="el7cfygqltk5t" class="animable"></rect><rect x="182.02" y="352.43" width="10.76" height="10.06" style="fill: rgb(38, 50, 56); stroke: rgb(38, 50, 56); stroke-linecap: round; stroke-linejoin: round; transform-origin: 187.4px 357.46px;" id="el1azyfijad17" class="animable"></rect><rect x="122.68" y="298.99" width="79.81" height="4.16" style="fill: rgb(255, 255, 255); stroke: rgb(38, 50, 56); stroke-linecap: round; stroke-linejoin: round; transform-origin: 162.585px 301.07px;" id="elnvsrpithq3" class="animable"></rect><rect x="129.62" y="302.81" width="68.36" height="6.25" style="fill: rgb(38, 50, 56); stroke: rgb(38, 50, 56); stroke-linecap: round; stroke-linejoin: round; transform-origin: 163.8px 305.935px;" id="elb11iydgsis" class="animable"></rect><g id="elnke4dahde9i"><rect x="210.23" y="228.26" width="11.1" height="63.85" style="fill: rgb(38, 50, 56); stroke: rgb(38, 50, 56); stroke-linecap: round; stroke-linejoin: round; transform-origin: 215.78px 260.185px; transform: rotate(-132.5deg);" class="animable" id="elsdbhiczdras"></rect></g><g id="elqdnt0ekxdm"><rect x="195.9" y="255.39" width="15.88" height="31.46" style="fill: rgb(38, 50, 56); stroke: rgb(38, 50, 56); stroke-linecap: round; stroke-linejoin: round; transform-origin: 203.84px 271.12px; transform: rotate(-132.5deg);" class="animable" id="elff8ryfs3bk4"></rect></g><g id="el54rmx9wfhs"><rect x="188.9" y="300.58" width="8.79" height="22.67" style="fill: rgb(38, 50, 56); stroke: rgb(38, 50, 56); stroke-linecap: round; stroke-linejoin: round; transform-origin: 193.295px 311.915px; transform: rotate(180deg);" class="animable" id="el97swl2bs1wf"></rect></g><g id="ellamw7xf0x9"><rect x="189.85" y="323.56" width="6.83" height="3.79" style="fill: rgb(38, 50, 56); stroke: rgb(38, 50, 56); stroke-linecap: round; stroke-linejoin: round; transform-origin: 193.265px 325.455px; transform: rotate(180deg);" class="animable" id="elon26y05pq2"></rect></g><g id="elp3d39u9q04c"><rect x="175.88" y="294.49" width="8.79" height="22.67" style="fill: rgb(38, 50, 56); stroke: rgb(38, 50, 56); stroke-linecap: round; stroke-linejoin: round; transform-origin: 180.275px 305.825px; transform: rotate(-156.26deg);" class="animable" id="elnotk8xpds5"></rect></g><g id="elasvfwr9vf4j"><rect x="171.38" y="316.31" width="6.83" height="3.79" style="fill: rgb(38, 50, 56); stroke: rgb(38, 50, 56); stroke-linecap: round; stroke-linejoin: round; transform-origin: 174.795px 318.205px; transform: rotate(-156.26deg);" class="animable" id="elnsvlnpkzjhf"></rect></g><polygon points="173.56 229.63 187.65 243.94 185.29 267.76 155.68 260.36 153.2 240.28 173.56 229.63" style="fill: rgb(255, 255, 255); stroke: rgb(38, 50, 56); stroke-linecap: round; stroke-linejoin: round; transform-origin: 170.425px 248.695px;" id="elm6kskwzgffj" class="animable"></polygon><polygon points="155.68 253.48 185.29 261.14 185.29 267.76 155.68 260.36 155.68 253.48" style="fill: rgb(38, 50, 56); stroke: rgb(38, 50, 56); stroke-linecap: round; stroke-linejoin: round; transform-origin: 170.485px 260.62px;" id="elyh315mp4er" class="animable"></polygon></g><g id="freepik--Character--inject-110" class="animable" style="transform-origin: 285.908px 285.066px;"><g id="elc746ben3ml9"><path d="M277.17,358.85l7.4,42.53H432c-4.71-25.47-19.09-99.82-29.19-116.64-12.22-20.38-38.53-37.05-48.17-41.13s-16.16-6.92-16.16-6.92-26.08-3.08-46.09,20.63c0,0-24.08,25.57-31.12,36.69s-18.7,59.86-18.7,59.86-4.81-1.85-6.29.74-3.34,5.93-4.08,7.41S217,368,214,370.17c-34.91,26.19-16.54,34.25-13.81,28.62l49.38,1.81s18.9-21.53,22.61-23.39S277.17,358.85,277.17,358.85Z" style="fill: #4090B9; stroke: rgb(38, 50, 56); stroke-linecap: round; stroke-linejoin: round; transform-origin: 312.465px 318.969px;" class="animable" id="elpmsstqy9qoc"></path></g><line x1="257.78" y1="320.63" x2="245.46" y2="271.72" style="fill: none; stroke: rgb(38, 50, 56); stroke-linecap: round; stroke-linejoin: round; transform-origin: 251.62px 296.175px;" id="el8hmc9brw07y" class="animable"></line><g id="eljxnjzv5t5td"><path d="M249.47,357.6c5.45,3.67,15.88,10.56,15.19,9-.93-2.09-4.42-4.89-5.12-5.35" style="fill: none; stroke: rgb(38, 50, 56); stroke-linecap: round; stroke-linejoin: round; transform-origin: 257.081px 362.213px;" class="animable" id="elf6ds43j8ao"></path></g><g id="elxab8oh1zo5e"><path d="M246.26,355.42l1.29.88" style="fill: none; stroke: rgb(38, 50, 56); stroke-linecap: round; stroke-linejoin: round; transform-origin: 246.905px 355.86px;" class="animable" id="eliuumhvmmipd"></path></g><g id="ellgp0gqsuxuh"><path d="M246.2,375.74a32.77,32.77,0,0,0,3.09,3" style="fill: none; stroke: rgb(38, 50, 56); stroke-linecap: round; stroke-linejoin: round; transform-origin: 247.745px 377.24px;" class="animable" id="elyjxowybbns"></path></g><g id="elx01vqewx3ds"><path d="M234.38,363.34s5.34,5.7,9.64,10.15" style="fill: none; stroke: rgb(38, 50, 56); stroke-linecap: round; stroke-linejoin: round; transform-origin: 239.2px 368.415px;" class="animable" id="el9bpay1985z"></path></g><line x1="242.79" y1="289.78" x2="248.3" y2="293.91" style="fill: none; stroke: rgb(38, 50, 56); stroke-linecap: round; stroke-linejoin: round; transform-origin: 245.545px 291.845px;" id="el341nnq8exxt" class="animable"></line><line x1="254.89" y1="309.82" x2="244.69" y2="292.93" style="fill: none; stroke: rgb(38, 50, 56); stroke-linecap: round; stroke-linejoin: round; transform-origin: 249.79px 301.375px;" id="eln22lex82eug" class="animable"></line><g id="eld1qleupn91i"><path d="M289.93,258.23s-9.34,27.24-10.38,31.65l5.19,3.64s-9.86,14.78-9.34,16.6c.42,1.47,11.37,35.74,17.05,52.06" style="fill: #4090B9; stroke: rgb(38, 50, 56); stroke-linecap: round; stroke-linejoin: round; transform-origin: 283.915px 310.205px;" class="animable" id="elucmqlt5mm3"></path></g><g id="el2v6o0gchiak"><path d="M326.77,234.36s1.56-3.12,2.86-2.6,8.56,3.12,8.82,4.93S341.3,279,341.3,279l-20,5.44,9.34,13.24s-6,16.6-20.23,25.68a275.26,275.26,0,0,1-24.39,14l7-15.83" style="fill: #4090B9; stroke: rgb(38, 50, 56); stroke-linecap: round; stroke-linejoin: round; transform-origin: 313.66px 284.531px;" class="animable" id="elra81eu5rf1"></path></g><g id="el9bvtkv7bnh8"><path d="M293.66,365.6c.76,2.1,1.35,3.66,1.72,4.46" style="fill: none; stroke: rgb(38, 50, 56); stroke-linecap: round; stroke-linejoin: round; transform-origin: 294.52px 367.83px;" class="animable" id="elyab0ssw3abm"></path></g><g id="el94zlid2p2im"><path d="M231.92,376.2s-18.3-4.75-21.63-1.48c-16.49,16.2-18.7,22.25-18.18,26,.35,2.62,38.27,1,38.27,1s7.44-12.3,8.91-17.22S235.69,377.51,231.92,376.2Z" style="fill: rgb(255, 255, 255); stroke: rgb(38, 50, 56); stroke-linecap: round; stroke-linejoin: round; transform-origin: 215.797px 387.893px;" class="animable" id="elrhhjy9eiim"></path></g><g id="elsyuoj19kz1f"><path d="M198.5,401.4c11.31-18.93,7.83-14.76,14.89-22.6" style="fill: none; stroke: rgb(38, 50, 56); stroke-linecap: round; stroke-linejoin: round; transform-origin: 205.945px 390.1px;" class="animable" id="el1ox8i0siylm"></path></g><g id="elp5vas9dnkml"><path d="M208,401.58s10.62-17.74,15.89-22.78" style="fill: none; stroke: rgb(38, 50, 56); stroke-linecap: round; stroke-linejoin: round; transform-origin: 215.945px 390.19px;" class="animable" id="elw60mc9rggx"></path></g><g id="elm343tfevs2"><path d="M220.52,401.58s8.69-15.67,11.9-20.26" style="fill: none; stroke: rgb(38, 50, 56); stroke-linecap: round; stroke-linejoin: round; transform-origin: 226.47px 391.45px;" class="animable" id="elge8wawoggd"></path></g><g id="el0d0sgx8cfsb9"><path d="M239.36,385.68a44.72,44.72,0,0,1,4.06,4.35c1.61,2.07,3.21,6,3.21,8s-3,3.78-4,3.78c-1.78,0-.86,0-12.29-.07l7.77-14.68Z" style="fill: rgb(255, 255, 255); stroke: rgb(38, 50, 56); stroke-linecap: round; stroke-linejoin: round; transform-origin: 238.485px 393.745px;" class="animable" id="elllhloo4kck"></path></g><g id="elhtqymkup0fh"><path d="M234.12,395s4.23-1.61,6.65-1.41" style="fill: none; stroke: rgb(38, 50, 56); stroke-linecap: round; stroke-linejoin: round; transform-origin: 237.445px 394.286px;" class="animable" id="el06py7igg4mv6"></path></g><g id="elaavxc4jv7m"><path d="M230.64,214.08s3.22,13.42,4.83,15.56,6.44,7,7,9.93-.81,14.49,1.88,15.57,8.85,0,8.85,0,14,13.42,16.37,13.42,15.84-10.74,15.84-10.74l7.51,5.37s-4.29,18.25-3.22,31.94,3.22,24.95,5.37,22.81,23.35-35.16,26.83-51.53,7.25-31.67,7.25-31.67l-12.34-4.83s-18.79-6.17-30.6-7.78-26-9.13-36.5-14.23-17.17-4.83-18.51-3.75S230.64,214.08,230.64,214.08Z" style="fill: rgb(255, 255, 255); stroke: rgb(38, 50, 56); stroke-linecap: round; stroke-linejoin: round; transform-origin: 279.782px 260.855px;" class="animable" id="el367x9pvl6hr"></path></g><g id="el9m73jbnuh4f"><path d="M236.74,236.69a81.29,81.29,0,0,1,23.87-16.09" style="fill: none; stroke: rgb(38, 50, 56); stroke-linecap: round; stroke-linejoin: round; stroke-width: 3px; transform-origin: 248.675px 228.645px;" class="animable" id="ely6wsmwswqe"></path></g><g id="el2mn864mcmdw"><path d="M238.55,234.88s3.89,5.44,6.23,7.52,6.49,2.34,11.42-.52,7.26-14,6.48-17.12-4.67-2.63-4.67-2.63Z" style="fill: none; stroke: rgb(38, 50, 56); stroke-linecap: round; stroke-linejoin: round; transform-origin: 250.689px 233.048px;" class="animable" id="el191lfem9zuv"></path></g><g id="ela48l8brevq"><path d="M230.91,207.37s20.39,8,27.1,14.76,35.43,5.9,38.11,6.17,4.3,2.68,14,4.29,20.39-2.41,23.34-11.53-9.92-15.3-11-16.64-12.88-33.82-26.57-41.87-32.47-6.44-47.23,4.83-21.47,24.42-23.08,26.84-11.54,5.1-7.25,12.34,11.54,7.25,12.35,7.52S230.91,207.37,230.91,207.37Z" style="fill: rgb(38, 50, 56); stroke: rgb(38, 50, 56); stroke-linecap: round; stroke-linejoin: round; transform-origin: 275.581px 195.228px;" class="animable" id="el0wa2drazm5tf"></path></g><g id="elz61o5i94t2b"><path d="M250,234.51c1,1.45,1.41,3,.83,3.39s-1.9-.42-2.94-1.88-1.42-3-.84-3.39S248.94,233.05,250,234.51Z" style="fill: rgb(38, 50, 56); transform-origin: 248.937px 235.265px;" class="animable" id="elwfvq3u5pfgi"></path></g><g id="elkj54v2pzk9"><path d="M242.44,229.43s2.08-5.45,6.75-5.71" style="fill: none; stroke: rgb(38, 50, 56); stroke-linecap: round; stroke-linejoin: round; transform-origin: 245.815px 226.575px;" class="animable" id="el3ttm9815ybr"></path></g><g id="elbewegvtpy97"><path d="M293.56,228.65s1.3,2.85-.26,4.93-4.93,2.59-4.93,2.59l-.78,7.53" style="fill: none; stroke: rgb(38, 50, 56); stroke-linecap: round; stroke-linejoin: round; transform-origin: 290.829px 236.175px;" class="animable" id="elrmbgva3qkh"></path></g><polygon points="265.99 219.6 272.61 214.04 273.51 224.97 265.99 219.6" style="fill: rgb(38, 50, 56); stroke: rgb(38, 50, 56); stroke-linecap: round; stroke-linejoin: round; transform-origin: 269.75px 219.505px;" id="elh2fwhqf41yr" class="animable"></polygon><line x1="273.51" y1="224.97" x2="283.51" y2="232.98" style="fill: none; stroke: rgb(38, 50, 56); stroke-linecap: round; stroke-linejoin: round; transform-origin: 278.51px 228.975px;" id="el927wix7y5ej" class="animable"></line><g id="elm498ft6tx3h"><path d="M259,377.75s-50.39-4.08-53.36-6.3-24.41-17.31-26.19-18.5-20.45-1.18-21.93-1.18-15.12,6.52-16.9,9.19-.3,5,1.48,4.74a40.27,40.27,0,0,0,5-1.48s-2.37,8-2.37,9.48,4.15,4.45,4.15,4.45-1.78,2.67,0,3.85,6.52-.29,6.52-.29,6.23-5,7.12-5,8.89,1.18,8.89,1.18,9.19,8,13.64,10.08a25.37,25.37,0,0,0,9.48,2.08l64.8,14.05Z" style="fill: rgb(255, 255, 255); stroke: rgb(38, 50, 56); stroke-linecap: round; stroke-linejoin: round; transform-origin: 199.573px 377.935px;" class="animable" id="el9h7g2nmcjzq"></path></g><g id="elp6v8vpcp83b"><path d="M228.26,388.12c1-3.84.52-9.08-.12-13.23-11.09-1.18-21.21-2.48-22.49-3.44-3-2.22-24.41-17.31-26.19-18.5s-20.45-1.18-21.93-1.18-15.12,6.52-16.9,9.19-.3,5,1.48,4.74a40.27,40.27,0,0,0,5-1.48s-2.37,8-2.37,9.48,4.15,4.45,4.15,4.45-1.78,2.67,0,3.85,6.52-.29,6.52-.29,6.23-5,7.12-5,8.89,1.18,8.89,1.18,9.19,8,13.64,10.08a25.37,25.37,0,0,0,9.48,2.08l29.74,8.13A49.36,49.36,0,0,0,228.26,388.12Z" style="fill: rgb(255, 255, 255); stroke: rgb(38, 50, 56); stroke-linecap: round; stroke-linejoin: round; transform-origin: 184.33px 374.975px;" class="animable" id="eldqoo2q4w82w"></path></g><g id="elmbt0omqc4ff"><path d="M147.15,364.22a51.16,51.16,0,0,1,7.41-4.31c4.18-2,9.52-5.6,12.78-5.34a26,26,0,0,0,4.31.13" style="fill: none; stroke: rgb(38, 50, 56); stroke-linecap: round; stroke-linejoin: round; transform-origin: 159.4px 359.388px;" class="animable" id="elcusxdz2q6oi"></path></g><g id="el375zl6fg7nn"><path d="M147.91,377.13s-1-2.22-.52-3.26,2.74-7.57,3.26-8.09,16.56-6,18-6.52a7.49,7.49,0,0,1,4-.26" style="fill: none; stroke: rgb(38, 50, 56); stroke-linecap: round; stroke-linejoin: round; transform-origin: 159.955px 367.986px;" class="animable" id="elzgcf0w9sqc"></path></g><g id="el85vjpfzg075"><path d="M148.93,378.15s4.72-5.85,6.16-7.41,15.91-3.91,17.73-4" style="fill: none; stroke: rgb(38, 50, 56); stroke-linecap: round; stroke-linejoin: round; transform-origin: 160.875px 372.445px;" class="animable" id="elpnnjjlpujj"></path></g><g id="elue9zxejx2rb"><path d="M206.86,384.25s-.57,5.46-3.67,7.63" style="fill: none; stroke: rgb(38, 50, 56); stroke-linecap: round; stroke-linejoin: round; transform-origin: 205.025px 388.065px;" class="animable" id="elwtpv2u0sd88"></path></g><g id="elpyz0y3ly0m"><path d="M209.91,381.8s-.91,4-1.83,6.72" style="fill: none; stroke: rgb(38, 50, 56); stroke-linecap: round; stroke-linejoin: round; transform-origin: 208.995px 385.16px;" class="animable" id="elv5leyvyadve"></path></g><g id="el0ttko4jvp3b"><path d="M363.14,264s-14.83,8.52-20,19.27S342,298.82,342,298.82L324.6,363.3s-10.75,1.85-11.12,4.81-1.11,6.3-1.11,6.3l-10.74,2.23-8.53-3-39.27,1.48v34.09S352,413,356.1,412.58s6.67-5.56,7.78-9.63,31.86-97.09,31.86-97.09" style="fill: #4090B9; stroke: rgb(38, 50, 56); stroke-linecap: round; stroke-linejoin: round; transform-origin: 324.785px 338.306px;" class="animable" id="elj1zh2bjll9"></path></g><g id="elwfjlayfka6g"><path d="M322.55,377.94a75.89,75.89,0,0,1,9.83,6.85c7,5.93,13.34,6.3,7.78-.74a23.56,23.56,0,0,0-14.08-8.15" style="fill: none; stroke: rgb(38, 50, 56); stroke-linecap: round; stroke-linejoin: round; transform-origin: 332.416px 382.592px;" class="animable" id="elbe31n2nlkqp"></path></g><g id="el55zdeu94dmg"><path d="M316.08,374.41s1.47.71,3.69,1.94" style="fill: none; stroke: rgb(38, 50, 56); stroke-linecap: round; stroke-linejoin: round; transform-origin: 317.925px 375.38px;" class="animable" id="elpfdjb3228m"></path></g><g id="elt5gruejjllo"><path d="M302,379.23s5.93,11.49,8.15,15.93-1.11-9.63-1.11-9.63" style="fill: none; stroke: rgb(38, 50, 56); stroke-linecap: round; stroke-linejoin: round; transform-origin: 306.457px 387.628px;" class="animable" id="ell53a75quycm"></path></g><g id="eljk58cf0rot8"><path d="M370.65,277.84a23.28,23.28,0,0,1,4.34-.51" style="fill: none; stroke: rgb(38, 50, 56); stroke-linecap: round; stroke-linejoin: round; transform-origin: 372.82px 277.585px;" class="animable" id="elnghwbu82iz"></path></g><g id="elk2m07x1pmc"><path d="M344.61,297.71s8.52-12.78,20.64-18.1" style="fill: none; stroke: rgb(38, 50, 56); stroke-linecap: round; stroke-linejoin: round; transform-origin: 354.93px 288.66px;" class="animable" id="el7er0iptvpii"></path></g><g id="eljoa2mgi1p2s"><path d="M329.4,219.71s20.13-6.44,23.08,3.49-.81,11-.81,11,15.57-7.79,20.94,1.34,2.68,9.12,4.83,10.73,13.95-7,21.47,4.3-3.76,22.81-3.76,22.81-27.11-21.2-44.82-27.91-26.57-8.59-31.13-14.23S329.4,219.71,329.4,219.71Z" style="fill: rgb(38, 50, 56); stroke: rgb(38, 50, 56); stroke-linecap: round; stroke-linejoin: round; transform-origin: 359.91px 245.518px;" class="animable" id="elvunfdnwulg"></path></g><g id="elbdhff6aw1uv"><path d="M375.36,367.37s20-10.37,30.76-24.08" style="fill: none; stroke: rgb(38, 50, 56); stroke-linecap: round; stroke-linejoin: round; transform-origin: 390.74px 355.33px;" class="animable" id="elvfieywwcubj"></path></g><g id="el3x4ung7xg5k"><path d="M404.81,358c1.5-.72,2.83-1.42,3.9-2.06" style="fill: none; stroke: rgb(38, 50, 56); stroke-linecap: round; stroke-linejoin: round; transform-origin: 406.76px 356.97px;" class="animable" id="elavpxvkp6bd6"></path></g><g id="el1kr8t9vzfxzj"><path d="M381.29,367.37s11.36-4,20.13-7.86" style="fill: none; stroke: rgb(38, 50, 56); stroke-linecap: round; stroke-linejoin: round; transform-origin: 391.355px 363.44px;" class="animable" id="el30keln25cz6"></path></g></g><g id="freepik--Ribbon--inject-110" class="animable" style="transform-origin: 109.58px 157.105px;"><g id="ela6aywnph27r"><path d="M109.67,96.36c16.31,0,29.93,14.56,33.22,34a53.91,53.91,0,0,0,.77-9.08c0-23.79-15.22-43.07-34-43.07s-34,19.28-34,43.07a55,55,0,0,0,.76,9.08C79.74,110.92,93.36,96.36,109.67,96.36Z" style="fill: #4090B9; transform-origin: 109.66px 104.285px;" class="animable" id="el1e5kkrdz85q"></path></g><g id="elvxwlz3x76u"><path d="M109.67,96.36c16.31,0,29.93,14.56,33.22,34a53.91,53.91,0,0,0,.77-9.08c0-23.79-15.22-43.07-34-43.07s-34,19.28-34,43.07a55,55,0,0,0,.76,9.08C79.74,110.92,93.36,96.36,109.67,96.36Z" style="opacity: 0.27; transform-origin: 109.66px 104.285px;" class="animable" id="elr848u76mzsj"></path></g><g id="elzrxkh27r35b"><path d="M109.67,96.36c16.31,0,29.93,14.56,33.22,34a53.91,53.91,0,0,0,.77-9.08c0-23.79-15.22-43.07-34-43.07s-34,19.28-34,43.07a55,55,0,0,0,.76,9.08C79.74,110.92,93.36,96.36,109.67,96.36Z" style="fill: none; stroke: rgb(38, 50, 56); stroke-linecap: round; stroke-linejoin: round; transform-origin: 109.66px 104.285px;" class="animable" id="els4pjb11vdn"></path></g><g id="elf1srut3v16t"><path d="M134.94,92.83c.68,10.73,2.36,17-7.74,35.89-8,15-49.93,63-66.89,82.23l8,25.05c10.88-14.25,24.61-27.92,35.19-42.42,9.17-12.57,16-20.5,24.69-33.49,7.68-11.51,12.25-15.46,14.73-29.75C146.41,107.22,134.94,92.83,134.94,92.83Z" style="fill: #4090B9; stroke: rgb(38, 50, 56); stroke-linecap: round; stroke-linejoin: round; transform-origin: 101.945px 164.415px;" class="animable" id="elg31lwi4n5oq"></path></g><g id="elht5qs9t3bm"><path d="M158.85,210.72c-17.09-19.36-58.7-67.09-66.68-82-10.1-18.87-8.41-25.16-7.74-35.89,0,0-11.46,14.39-8,37.51,2.49,14.29,7,18.24,14.74,29.75,8.67,13,15.79,20,25,32.61,10.52,14.41,23.87,28.87,34.71,43Z" style="fill: #4090B9; stroke: rgb(38, 50, 56); stroke-linecap: round; stroke-linejoin: round; transform-origin: 117.315px 164.265px;" class="animable" id="elw9db2xaf5kl"></path></g></g><defs>     <filter id="active" height="200%">         <feMorphology in="SourceAlpha" result="DILATED" operator="dilate" radius="2"></feMorphology>                <feFlood flood-color="#32DFEC" flood-opacity="1" result="PINK"></feFlood>        <feComposite in="PINK" in2="DILATED" operator="in" result="OUTLINE"></feComposite>        <feMerge>            <feMergeNode in="OUTLINE"></feMergeNode>            <feMergeNode in="SourceGraphic"></feMergeNode>        </feMerge>    </filter>    <filter id="hover" height="200%">        <feMorphology in="SourceAlpha" result="DILATED" operator="dilate" radius="2"></feMorphology>                <feFlood flood-color="#ff0000" flood-opacity="0.5" result="PINK"></feFlood>        <feComposite in="PINK" in2="DILATED" operator="in" result="OUTLINE"></feComposite>        <feMerge>            <feMergeNode in="OUTLINE"></feMergeNode>            <feMergeNode in="SourceGraphic"></feMergeNode>        </feMerge>            <feColorMatrix type="matrix" values="0   0   0   0   0                0   1   0   0   0                0   0   0   0   0                0   0   0   1   0 "></feColorMatrix>    </filter></defs></svg>