<svg class="animated" id="freepik_stories-autism" xmlns="http://www.w3.org/2000/svg" viewBox="0 0 500 500" version="1.1" xmlns:xlink="http://www.w3.org/1999/xlink" ><style>svg#freepik_stories-autism:not(.animated) .animable {opacity: 0;}svg#freepik_stories-autism.animated #freepik--Ribbon--inject-100 {animation: 1.5s Infinite  linear wind;animation-delay: 0s;}            @keyframes wind {                0% {                    transform: rotate( 0deg );                }                25% {                    transform: rotate( 1deg );                }                75% {                    transform: rotate( -1deg );                }            }        </style><g id="freepik--background-complete--inject-100" class="animable" style="transform-origin: 250px 228.23px;"><rect x="416.78" y="398.49" width="33.12" height="0.25" style="fill: rgb(235, 235, 235); transform-origin: 433.34px 398.615px;" id="el9n2a3t2utyd" class="animable"></rect><rect x="322.53" y="401.21" width="8.69" height="0.25" style="fill: rgb(235, 235, 235); transform-origin: 326.875px 401.335px;" id="elytk1sczc7e" class="animable"></rect><rect x="396.59" y="389.21" width="19.19" height="0.25" style="fill: rgb(235, 235, 235); transform-origin: 406.185px 389.335px;" id="elh3oxqexgahl" class="animable"></rect><rect x="52.46" y="390.89" width="43.19" height="0.25" style="fill: rgb(235, 235, 235); transform-origin: 74.055px 391.015px;" id="eltutr6asj8kr" class="animable"></rect><rect x="104.56" y="390.89" width="6.33" height="0.25" style="fill: rgb(235, 235, 235); transform-origin: 107.725px 391.015px;" id="elnqteihywex" class="animable"></rect><rect x="131.47" y="395.11" width="93.68" height="0.25" style="fill: rgb(235, 235, 235); transform-origin: 178.31px 395.235px;" id="elqvrjd1omjma" class="animable"></rect><path d="M237,337.8H43.92a5.71,5.71,0,0,1-5.71-5.71V60.66A5.71,5.71,0,0,1,43.92,55H237a5.71,5.71,0,0,1,5.71,5.71V332.09A5.71,5.71,0,0,1,237,337.8ZM43.92,55.2a5.47,5.47,0,0,0-5.46,5.46V332.09a5.47,5.47,0,0,0,5.46,5.46H237a5.47,5.47,0,0,0,5.46-5.46V60.66A5.47,5.47,0,0,0,237,55.2Z" style="fill: rgb(235, 235, 235); transform-origin: 140.46px 196.4px;" id="elgxbpjzokd7f" class="animable"></path><path d="M453.31,337.8H260.21a5.72,5.72,0,0,1-5.71-5.71V60.66A5.72,5.72,0,0,1,260.21,55h193.1A5.71,5.71,0,0,1,459,60.66V332.09A5.71,5.71,0,0,1,453.31,337.8ZM260.21,55.2a5.47,5.47,0,0,0-5.46,5.46V332.09a5.47,5.47,0,0,0,5.46,5.46h193.1a5.47,5.47,0,0,0,5.46-5.46V60.66a5.47,5.47,0,0,0-5.46-5.46Z" style="fill: rgb(235, 235, 235); transform-origin: 356.75px 196.4px;" id="el0jy0b26kjzcv" class="animable"></path><rect y="382.4" width="500" height="0.25" style="fill: rgb(235, 235, 235); transform-origin: 250px 382.525px;" id="el4p71zmdjhap" class="animable"></rect><g id="elq1t2jhr22md"><rect x="351.54" y="157" width="75.03" height="75.03" style="fill: rgb(240, 240, 240); transform-origin: 389.055px 194.515px; transform: rotate(180deg);" class="animable"></rect></g><g id="elfxzmed1cyfs"><rect x="358.78" y="164.24" width="60.55" height="60.55" rx="4.6" style="fill: rgb(250, 250, 250); transform-origin: 389.055px 194.515px; transform: rotate(180deg);" class="animable"></rect></g><path d="M401.55,164.24a4.58,4.58,0,0,1-4.46,3.62H381a4.57,4.57,0,0,1-4.45-3.62Z" style="fill: rgb(224, 224, 224); transform-origin: 389.05px 166.05px;" id="elvu1g1615w8d" class="animable"></path><g id="elogcqoqyctg"><rect x="351.54" y="232.03" width="75.03" height="75.03" style="fill: rgb(245, 245, 245); transform-origin: 389.055px 269.545px; transform: rotate(180deg);" class="animable"></rect></g><g id="eln5jzm55lqu"><rect x="358.78" y="239.27" width="60.55" height="60.55" rx="4.6" style="fill: rgb(235, 235, 235); transform-origin: 389.055px 269.545px; transform: rotate(180deg);" class="animable"></rect></g><path d="M401.55,239.27a4.58,4.58,0,0,1-4.46,3.62H381a4.57,4.57,0,0,1-4.45-3.62Z" style="fill: rgb(224, 224, 224); transform-origin: 389.05px 241.08px;" id="ely9ubql51qq" class="animable"></path><g id="elyn409i67fp"><rect x="351.54" y="307.07" width="75.03" height="75.03" style="fill: rgb(240, 240, 240); transform-origin: 389.055px 344.585px; transform: rotate(180deg);" class="animable"></rect></g><g id="el9dg9pvj3oah"><rect x="358.78" y="314.31" width="60.55" height="60.55" rx="4.6" style="fill: rgb(250, 250, 250); transform-origin: 389.055px 344.585px; transform: rotate(180deg);" class="animable"></rect></g><path d="M401.55,314.31a4.58,4.58,0,0,1-4.46,3.61H381a4.56,4.56,0,0,1-4.45-3.61Z" style="fill: rgb(224, 224, 224); transform-origin: 389.05px 316.115px;" id="eltgg6d99ebce" class="animable"></path><g id="eljdfn2vvc95"><rect x="342.34" y="157.26" width="9.19" height="224.84" style="fill: rgb(230, 230, 230); transform-origin: 346.935px 269.68px; transform: rotate(180deg);" class="animable"></rect></g><circle cx="146" cy="154.34" r="53.84" style="fill: rgb(245, 245, 245); transform-origin: 146px 154.34px;" id="elnivsigwv9t" class="animable"></circle><circle cx="146" cy="154.34" r="45.66" style="fill: rgb(250, 250, 250); transform-origin: 146px 154.34px;" id="eleazc0saguqf" class="animable"></circle><path d="M146,108.68c-.72,0-1.43,0-2.14.06a45.66,45.66,0,0,1,0,91.21c.71,0,1.42.05,2.14.05a45.66,45.66,0,0,0,0-91.32Z" style="fill: rgb(230, 230, 230); transform-origin: 167.749px 154.34px;" id="elz7866oykq3" class="animable"></path><path d="M146,200h0c1.16,0,2.3-.16,3.43-.3V157.77h39.95c.08-1.13.14-2.27.14-3.43s-.06-2.29-.14-3.43H149.43V109c-1.13-.14-2.27-.25-3.43-.3h-3.43v42.17H100.39v6.86h42.18V200Z" style="fill: rgb(240, 240, 240); transform-origin: 144.955px 154.35px;" id="elor14olktgaq" class="animable"></path><rect x="139.14" y="108.74" width="3.43" height="42.18" style="fill: rgb(230, 230, 230); transform-origin: 140.855px 129.83px;" id="elecs10vqppdr" class="animable"></rect><rect x="139.14" y="157.77" width="3.43" height="42.18" style="fill: rgb(230, 230, 230); transform-origin: 140.855px 178.86px;" id="elctgr8wqwf3h" class="animable"></rect><g id="elmx0z3923gp"><rect x="82.45" y="269.54" width="185.13" height="99.63" style="fill: rgb(230, 230, 230); transform-origin: 175.015px 319.355px; transform: rotate(180deg);" class="animable"></rect></g><g id="eldiqdlabujin"><rect x="252.74" y="373.31" width="11.64" height="8.79" style="fill: rgb(230, 230, 230); transform-origin: 258.56px 377.705px; transform: rotate(180deg);" class="animable"></rect></g><g id="ellggel9w5nr"><rect x="68.32" y="262.13" width="11.64" height="119.97" style="fill: rgb(230, 230, 230); transform-origin: 74.14px 322.115px; transform: rotate(180deg);" class="animable"></rect></g><path d="M79.81,262.13v120H86v-6.72H264.37v6.72h6.21v-120H79.81ZM86,273h86.07v41.66H86Zm178.35,91.53H178.3V273h86.07ZM86,364.52V320.86h86.07v43.66Z" style="fill: rgb(240, 240, 240); transform-origin: 175.195px 322.13px;" id="ela87ykrjn3zt" class="animable"></path><g id="eldxfip21p7ui"><rect x="178.3" y="277.47" width="80.26" height="87.05" style="fill: rgb(245, 245, 245); transform-origin: 218.43px 320.995px; transform: rotate(180deg);" class="animable"></rect></g><path d="M181.93,318.38a3.73,3.73,0,1,0,3.73-3.73A3.73,3.73,0,0,0,181.93,318.38Z" style="fill: rgb(250, 250, 250); transform-origin: 185.66px 318.38px;" id="el41wkx05uta6" class="animable"></path><path d="M185.66,322.11a3.7,3.7,0,0,0,3.38-2.18,3.73,3.73,0,1,1-6.76,0A3.71,3.71,0,0,0,185.66,322.11Z" style="fill: rgb(224, 224, 224); transform-origin: 185.66px 322.584px;" id="elc8pmfkvsuu8" class="animable"></path><polygon points="227.43 364.52 208.28 364.52 199.13 277.47 218.28 277.47 227.43 364.52" style="fill: rgb(250, 250, 250); transform-origin: 213.28px 320.995px;" id="elezzucpmftwp" class="animable"></polygon><polygon points="203.38 364.52 199.57 364.52 190.42 277.47 194.23 277.47 203.38 364.52" style="fill: rgb(250, 250, 250); transform-origin: 196.9px 320.995px;" id="elnnb5i0pp5f" class="animable"></polygon><g id="ellwp7j9rmrq"><rect x="152.7" y="277.38" width="7.58" height="37.23" style="fill: rgb(250, 250, 250); transform-origin: 156.49px 295.995px; transform: rotate(180deg);" class="animable"></rect></g><g id="eltdnbdct01so"><rect x="121.25" y="277.38" width="7.58" height="37.23" style="fill: rgb(245, 245, 245); transform-origin: 125.04px 295.995px; transform: rotate(180deg);" class="animable"></rect></g><g id="elwqxilrxkyvi"><rect x="145.11" y="280" width="7.58" height="34.62" style="fill: rgb(245, 245, 245); transform-origin: 148.9px 297.31px; transform: rotate(180deg);" class="animable"></rect></g><g id="elq0l4jb5f0j"><rect x="128.83" y="280" width="7.58" height="34.62" style="fill: rgb(250, 250, 250); transform-origin: 132.62px 297.31px; transform: rotate(180deg);" class="animable"></rect></g><g id="eltpi7mnf9mk"><rect x="136.42" y="277.38" width="4.9" height="37.23" style="fill: rgb(235, 235, 235); transform-origin: 138.87px 295.995px; transform: rotate(180deg);" class="animable"></rect></g><g id="el14ow5n1zyffj"><rect x="141.32" y="280" width="3.79" height="34.62" style="fill: rgb(250, 250, 250); transform-origin: 143.215px 297.31px; transform: rotate(180deg);" class="animable"></rect></g><g id="eld6qvkosx3f"><rect x="113.66" y="277.38" width="7.58" height="37.23" style="fill: rgb(235, 235, 235); transform-origin: 117.45px 295.995px; transform: rotate(180deg);" class="animable"></rect></g><g id="elnrwc11x967r"><rect x="106.08" y="280" width="7.58" height="34.62" style="fill: rgb(230, 230, 230); transform-origin: 109.87px 297.31px; transform: rotate(180deg);" class="animable"></rect></g><g id="el115hwb0oqpk"><rect x="89.8" y="280" width="7.58" height="34.62" style="fill: rgb(230, 230, 230); transform-origin: 93.59px 297.31px; transform: rotate(180deg);" class="animable"></rect></g><g id="eldm5h13kwqll"><rect x="97.39" y="277.38" width="4.9" height="37.23" style="fill: rgb(250, 250, 250); transform-origin: 99.84px 295.995px; transform: rotate(180deg);" class="animable"></rect></g><g id="elqeelluh9rkc"><rect x="102.29" y="280" width="3.79" height="34.62" style="fill: rgb(235, 235, 235); transform-origin: 104.185px 297.31px; transform: rotate(180deg);" class="animable"></rect></g><g id="eli46osg256df"><rect x="86.01" y="278.26" width="3.79" height="36.35" style="fill: rgb(235, 235, 235); transform-origin: 87.905px 296.435px; transform: rotate(180deg);" class="animable"></rect></g><rect x="86.01" y="327.28" width="7.58" height="37.23" style="fill: rgb(235, 235, 235); transform-origin: 89.8px 345.895px;" id="ela9ppb6sfmce" class="animable"></rect><rect x="117.46" y="327.28" width="7.58" height="37.23" style="fill: rgb(250, 250, 250); transform-origin: 121.25px 345.895px;" id="eltmo606nnarm" class="animable"></rect><rect x="93.59" y="329.9" width="7.58" height="34.62" style="fill: rgb(250, 250, 250); transform-origin: 97.38px 347.21px;" id="elo46foguk5hn" class="animable"></rect><rect x="109.87" y="329.9" width="7.58" height="34.62" style="fill: rgb(235, 235, 235); transform-origin: 113.66px 347.21px;" id="el663gwpo7djj" class="animable"></rect><rect x="104.97" y="327.28" width="4.9" height="37.23" style="fill: rgb(250, 250, 250); transform-origin: 107.42px 345.895px;" id="elj6n4xsukwt" class="animable"></rect><rect x="101.18" y="329.9" width="3.79" height="34.62" style="fill: rgb(245, 245, 245); transform-origin: 103.075px 347.21px;" id="el5d5unlknflj" class="animable"></rect><rect x="125.04" y="327.28" width="7.58" height="37.23" style="fill: rgb(235, 235, 235); transform-origin: 128.83px 345.895px;" id="el889l6dmd4zl" class="animable"></rect><rect x="132.62" y="329.9" width="7.58" height="34.62" style="fill: rgb(245, 245, 245); transform-origin: 136.41px 347.21px;" id="el8esnu46of6k" class="animable"></rect><rect x="148.9" y="329.9" width="7.58" height="34.62" style="fill: rgb(230, 230, 230); transform-origin: 152.69px 347.21px;" id="elnegusg6v3r" class="animable"></rect><rect x="144" y="327.28" width="4.9" height="37.23" style="fill: rgb(250, 250, 250); transform-origin: 146.45px 345.895px;" id="elwsr0mldl7k" class="animable"></rect><rect x="160.28" y="327.28" width="4.9" height="37.23" style="fill: rgb(250, 250, 250); transform-origin: 162.73px 345.895px;" id="elamktfgavhcg" class="animable"></rect><rect x="140.21" y="329.9" width="3.79" height="34.62" style="fill: rgb(235, 235, 235); transform-origin: 142.105px 347.21px;" id="elo1tk7aye0np" class="animable"></rect><rect x="156.49" y="328.17" width="3.79" height="36.35" style="fill: rgb(235, 235, 235); transform-origin: 158.385px 346.345px;" id="elg48lnywtdx" class="animable"></rect></g><g id="freepik--Shadow--inject-100" class="animable" style="transform-origin: 245.18px 413.82px;"><ellipse id="freepik--path--inject-100" cx="245.18" cy="413.82" rx="218.42" ry="12.76" style="fill: rgb(245, 245, 245); transform-origin: 245.18px 413.82px;" class="animable"></ellipse></g><g id="freepik--Ribbon--inject-100" class="animable" style="transform-origin: 287.235px 145.56px;"><path d="M244,87.06s15.42-11.74,43.29-11.74c28.87,0,43.27,11.74,43.27,11.74l.29-12L320,56.69s-10.89-8.88-32.72-8.88c-21.07,0-32.73,8.88-32.73,8.88L244.34,73.2Z" style="fill: rgb(144, 202, 249); transform-origin: 287.425px 67.435px;" id="elxfrhez9s8cd" class="animable"></path><g id="elepfww6pvciu"><path d="M244,87.06s15.42-11.74,43.29-11.74c28.87,0,43.27,11.74,43.27,11.74l.29-12L320,56.69s-10.89-8.88-32.72-8.88c-21.07,0-32.73,8.88-32.73,8.88L244.34,73.2Z" style="opacity: 0.2; transform-origin: 287.425px 67.435px;" class="animable"></path></g><path d="M246.32,82.86a5.35,5.35,0,0,1,3.73-5.11,55,55,0,0,0,2,10.47h-.32A5.36,5.36,0,0,1,246.32,82.86Z" style="fill: rgb(144, 202, 249); transform-origin: 249.185px 82.9851px;" id="elj8ca0wnpfwk" class="animable"></path><path d="M255.12,97h-.75V95.14C254.61,95.74,254.85,96.35,255.12,97Z" style="fill: rgb(144, 202, 249); transform-origin: 254.745px 96.07px;" id="elf1r7t4hq08" class="animable"></path><path d="M298.18,164.08a5.36,5.36,0,0,1-5.37-5.36v-3.18h-9.23V146.8h-2.69a5.37,5.37,0,0,1,0-10.74h.49c7.49,9.15,14.64,17.61,21.47,25.29A5.36,5.36,0,0,1,298.18,164.08Z" style="fill: rgb(144, 202, 249); transform-origin: 289.185px 150.07px;" id="elxzbn6ik1dsh" class="animable"></path><path d="M274.34,127.38V129a5.37,5.37,0,1,1-10.74,0v-2.84h-9.23V97h.75c3.51,8.3,9.15,17.87,17.86,28.73Z" style="fill: rgb(144, 202, 249); transform-origin: 264.355px 115.69px;" id="elgpfy4pslmzm" class="animable"></path><g id="elzzh5j1ik9gf"><path d="M274.34,127.38V129a5.37,5.37,0,1,1-10.74,0v-2.84h-9.23V97h.75c3.51,8.3,9.15,17.87,17.86,28.73Z" style="fill: rgb(255, 255, 255); opacity: 0.2; transform-origin: 264.355px 115.69px;" class="animable"></path></g><path d="M254.37,56.87a25.83,25.83,0,0,0-4,10.73h-4.13a55.71,55.71,0,0,1,8.12-10.78Z" style="fill: rgb(144, 202, 249); transform-origin: 250.305px 62.21px;" id="elyn0haljvzga" class="animable"></path><path d="M245.13,69.56v.88a5.35,5.35,0,0,1-2.73,4.67C243.28,73.11,244.2,71.25,245.13,69.56Z" style="fill: rgb(144, 202, 249); transform-origin: 243.765px 72.335px;" id="el54aif54talc" class="animable"></path><path d="M245.13,70.44v-.88c.34-.62.69-1.22,1-1.8h4.2a40.89,40.89,0,0,0-.31,10,5.36,5.36,0,0,0,1.64,10.47H252a71,71,0,0,0,2.36,6.92V97h-9.24v3.18a5.37,5.37,0,0,1-8.33,4.48,68.11,68.11,0,0,1,5.6-29.51A5.35,5.35,0,0,0,245.13,70.44Z" style="fill: rgb(144, 202, 249); transform-origin: 245.554px 86.6547px;" id="el441e5jqvent" class="animable"></path><g id="el292z5iie4t6"><path d="M245.13,70.44v-.88c.34-.62.69-1.22,1-1.8h4.2a40.89,40.89,0,0,0-.31,10,5.36,5.36,0,0,0,1.64,10.47H252a71,71,0,0,0,2.36,6.92V97h-9.24v3.18a5.37,5.37,0,0,1-8.33,4.48,68.11,68.11,0,0,1,5.6-29.51A5.35,5.35,0,0,0,245.13,70.44Z" style="fill: rgb(255, 255, 255); opacity: 0.2; transform-origin: 245.554px 86.6547px;" class="animable"></path></g><path d="M239.77,105.51a5.36,5.36,0,0,0,5.36-5.37V97h9.24v29.21h-9.24V129a5.37,5.37,0,0,1-2,4.17,82.52,82.52,0,0,1-6.35-28.56A5.38,5.38,0,0,0,239.77,105.51Z" style="fill: rgb(144, 202, 249); transform-origin: 245.575px 115.085px;" id="elhzz9uysl7um" class="animable"></path><g id="ellra24sv4sqn"><path d="M239.77,105.51a5.36,5.36,0,0,0,5.36-5.37V97h9.24v29.21h-9.24V129a5.37,5.37,0,0,1-2,4.17,82.52,82.52,0,0,1-6.35-28.56A5.38,5.38,0,0,0,239.77,105.51Z" style="fill: rgb(255, 255, 255); opacity: 0.6; transform-origin: 245.575px 115.085px;" class="animable"></path></g><path d="M342,205.37H339.3a5.37,5.37,0,0,1-2.11-10.3c11.68,9.24,22.27,14.65,32,15.52l-2.71,3.52H362v3.18a5.37,5.37,0,0,1-10.74,0v-3.18H342Z" style="fill: rgb(144, 202, 249); transform-origin: 351.569px 208.865px;" id="elabofmlpez3n" class="animable"></path><g id="eldaxaro4ljfs"><path d="M342,205.37H339.3a5.37,5.37,0,0,1-2.11-10.3c11.68,9.24,22.27,14.65,32,15.52l-2.71,3.52H362v3.18a5.37,5.37,0,0,1-10.74,0v-3.18H342Z" style="fill: rgb(255, 255, 255); opacity: 0.5; transform-origin: 351.569px 208.865px;" class="animable"></path></g><path d="M331.82,190.61a5.37,5.37,0,0,1-9.8-3v-2.85h-9.24V172.2C319.43,179.22,325.77,185.39,331.82,190.61Z" style="fill: rgb(144, 202, 249); transform-origin: 322.3px 182.573px;" id="elk3n9hrwhxsg" class="animable"></path><g id="el6jseuxarng7"><path d="M331.82,190.61a5.37,5.37,0,0,1-9.8-3v-2.85h-9.24V172.2C319.43,179.22,325.77,185.39,331.82,190.61Z" style="fill: rgb(255, 255, 255); opacity: 0.5; transform-origin: 322.3px 182.573px;" class="animable"></path></g><path d="M292.81,187.59v-2.85h-9.23v-9.07h-2.69a5.37,5.37,0,0,1,0-10.74h2.69v-9.39h9.23v3.18a5.37,5.37,0,0,0,10,2.63q5.08,5.72,9.93,10.85v12.54h-9.23v2.85a5.37,5.37,0,0,1-10.74,0Z" style="fill: rgb(144, 202, 249); transform-origin: 294.134px 174.25px;" id="el0qvet4z438a" class="animable"></path><path d="M292.81,187.59v-2.85h-9.23v-9.07h-2.69a5.37,5.37,0,0,1,0-10.74h2.69v-9.39h9.23v3.18a5.37,5.37,0,0,0,10,2.63q5.08,5.72,9.93,10.85v12.54h-9.23v2.85a5.37,5.37,0,0,1-10.74,0Z" style="fill: rgb(144, 202, 249); transform-origin: 294.134px 174.25px;" id="elj7w3hgwrzc" class="animable"></path><g id="elngd1nu8cxhq"><path d="M292.81,187.59v-2.85h-9.23v-9.07h-2.69a5.37,5.37,0,0,1,0-10.74h2.69v-9.39h9.23v3.18a5.37,5.37,0,0,0,10,2.63q5.08,5.72,9.93,10.85v12.54h-9.23v2.85a5.37,5.37,0,0,1-10.74,0Z" style="fill: rgb(255, 255, 255); opacity: 0.7; transform-origin: 294.134px 174.25px;" class="animable"></path></g><path d="M303.55,184.83v2.76a5.37,5.37,0,0,1-10.74,0v-2.85h-9.23v9.34a275,275,0,0,0,20,21.78v-1.75h9.23v-8.74H310.1a5.37,5.37,0,0,1,0-10.74h2.68v-9.89h-9.23Z" style="fill: rgb(144, 202, 249); transform-origin: 298.195px 200.3px;" id="el9yvy2sj4qpi" class="animable"></path><g id="elegnn5wtej3"><g style="opacity: 0.2; transform-origin: 298.195px 200.3px;" class="animable"><path d="M303.55,184.83v2.76a5.37,5.37,0,0,1-10.74,0v-2.85h-9.23v9.34a275,275,0,0,0,20,21.78v-1.75h9.23v-8.74H310.1a5.37,5.37,0,0,1,0-10.74h2.68v-9.89h-9.23Z" style="fill: rgb(255, 255, 255); transform-origin: 298.195px 200.3px;" id="elc6vom6i7eew" class="animable"></path></g></g><path d="M283.58,184.9v9.18c-2.4-2.89-4.86-5.94-7.37-9.18l-.12-.16h7.49Z" style="fill: rgb(144, 202, 249); transform-origin: 279.835px 189.41px;" id="elbj70kug355p" class="animable"></path><path d="M263.6,155.54v3.18a5.37,5.37,0,0,0,10.74,0v-3.18h9.24v9.39h-2.69a5.37,5.37,0,0,0,0,10.74h2.69v9.07h-7.49c-6.56-8.46-13.51-18.14-20.8-29.2Z" style="fill: rgb(144, 202, 249); transform-origin: 269.435px 170.14px;" id="el4rkclzv0745" class="animable"></path><path d="M342,234.24H339.3a5.37,5.37,0,0,1,0-10.74H342v-9.39h9.23v3.18a5.37,5.37,0,0,0,10.74,0v-3.18h4.48L344,243.31a15.94,15.94,0,0,1-2-.55Z" style="fill: rgb(144, 202, 249); transform-origin: 350.19px 228.71px;" id="elpxbc0fhdqg9" class="animable"></path><g id="elsk86946txu"><path d="M342,234.24H339.3a5.37,5.37,0,0,1,0-10.74H342v-9.39h9.23v3.18a5.37,5.37,0,0,0,10.74,0v-3.18h4.48L344,243.31a15.94,15.94,0,0,1-2-.55Z" style="fill: rgb(255, 255, 255); opacity: 0.2; transform-origin: 350.19px 228.71px;" class="animable"></path></g><path d="M322,217.29a5.37,5.37,0,1,0,10.73,0v-3.18H342v9.39H339.3a5.37,5.37,0,0,0,0,10.74H342v8.52c-4.07-1.35-14.25-5.67-29.21-18.46V214.11H322Z" style="fill: rgb(144, 202, 249); transform-origin: 327.395px 228.435px;" id="el19v3xpompdu" class="animable"></path><g id="elqb1flxz2o9i"><path d="M322,217.29a5.37,5.37,0,1,0,10.73,0v-3.18H342v9.39H339.3a5.37,5.37,0,0,0,0,10.74H342v8.52c-4.07-1.35-14.25-5.67-29.21-18.46V214.11H322Z" style="fill: rgb(255, 255, 255); opacity: 0.7; transform-origin: 327.395px 228.435px;" class="animable"></path></g><path d="M303.55,215.86v-1.75h9.23V224.3C309.88,221.82,306.8,219,303.55,215.86Z" style="fill: rgb(144, 202, 249); transform-origin: 308.165px 219.205px;" id="el7uvjsjw2uq3" class="animable"></path><path d="M312.78,184.9v9.73H310.1a5.37,5.37,0,0,0,0,10.74h2.68v8.74H322v3.18a5.37,5.37,0,1,0,10.73,0v-3.18H342v-8.74H339.3a5.37,5.37,0,0,1-2.11-10.3c-1.76-1.4-3.56-2.89-5.37-4.46a5.37,5.37,0,0,1-9.8-3v-2.85h-9.24S312.75,184.9,312.78,184.9Z" style="fill: rgb(144, 202, 249); transform-origin: 323.365px 203.826px;" id="elee89w7g3a1e" class="animable"></path><g id="elwanqmsdfiea"><path d="M312.78,184.9v9.73H310.1a5.37,5.37,0,0,0,0,10.74h2.68v8.74H322v3.18a5.37,5.37,0,1,0,10.73,0v-3.18H342v-8.74H339.3a5.37,5.37,0,0,1-2.11-10.3c-1.76-1.4-3.56-2.89-5.37-4.46a5.37,5.37,0,0,1-9.8-3v-2.85h-9.24S312.75,184.9,312.78,184.9Z" style="fill: rgb(255, 255, 255); opacity: 0.4; transform-origin: 323.365px 203.826px;" class="animable"></path></g><path d="M263.6,126.33V129a5.37,5.37,0,1,0,10.74,0v-1.63q3.57,4.44,7,8.68h-.49a5.37,5.37,0,0,0,0,10.74h2.69v8.74h-9.24v3.18a5.37,5.37,0,0,1-10.74,0v-3.18h-8.31l-.92-1.41V146.8h-2.68a5.26,5.26,0,0,1-2.1-.43q-1.71-3-3.17-6a5.37,5.37,0,0,1,5.27-4.35h2.68v-9.89h9.23Z" style="fill: rgb(144, 202, 249); transform-origin: 264.96px 145.105px;" id="ell50stouzkxh" class="animable"></path><g id="elku5mwmj88qc"><path d="M263.6,126.33V129a5.37,5.37,0,1,0,10.74,0v-1.63q3.57,4.44,7,8.68h-.49a5.37,5.37,0,0,0,0,10.74h2.69v8.74h-9.24v3.18a5.37,5.37,0,0,1-10.74,0v-3.18h-8.31l-.92-1.41V146.8h-2.68a5.26,5.26,0,0,1-2.1-.43q-1.71-3-3.17-6a5.37,5.37,0,0,1,5.27-4.35h2.68v-9.89h9.23Z" style="fill: rgb(255, 255, 255); opacity: 0.5; transform-origin: 264.96px 145.105px;" class="animable"></path></g><path d="M254.37,146.8v7.33c-.21-.31-.41-.62-.61-.94-1.51-2.3-2.89-4.58-4.17-6.82a5.26,5.26,0,0,0,2.1.43Z" style="fill: rgb(144, 202, 249); transform-origin: 251.98px 150.25px;" id="elu1vql31fmnb" class="animable"></path><path d="M254.37,126.33v9.73h-2.68a5.37,5.37,0,0,0-5.27,4.35q-1.83-3.69-3.27-7.23a5.37,5.37,0,0,0,2-4.17v-2.84h9.24Z" style="fill: rgb(144, 202, 249); transform-origin: 248.77px 133.29px;" id="elj0k7zy1rpa" class="animable"></path><g id="elvq3hz4o0bun"><g style="opacity: 0.7; transform-origin: 248.77px 140.15px;" class="animable"><path d="M254.37,146.8v7.33c-.21-.31-.41-.62-.61-.94-1.51-2.3-2.89-4.58-4.17-6.82a5.26,5.26,0,0,0,2.1.43Z" style="fill: rgb(255, 255, 255); transform-origin: 251.98px 150.25px;" id="el2nptsxntpxu" class="animable"></path><path d="M254.37,126.33v9.73h-2.68a5.37,5.37,0,0,0-5.27,4.35q-1.83-3.69-3.27-7.23a5.37,5.37,0,0,0,2-4.17v-2.84h9.24Z" style="fill: rgb(255, 255, 255); transform-origin: 248.77px 133.29px;" id="elp935hmshjif" class="animable"></path></g></g><path d="M328.15,82.86a5.35,5.35,0,0,0-3.73-5.11,55,55,0,0,1-2,10.47h.33A5.36,5.36,0,0,0,328.15,82.86Z" style="fill: rgb(144, 202, 249); transform-origin: 325.285px 82.9851px;" id="el9jjs5iggvkv" class="animable"></path><path d="M319.36,97h.74V95.14C319.86,95.74,319.62,96.35,319.36,97Z" style="fill: rgb(144, 202, 249); transform-origin: 319.73px 96.07px;" id="elulipr7896hl" class="animable"></path><path d="M276.29,164.08a5.36,5.36,0,0,0,5.37-5.36v-3.18h9.24V146.8h2.68a5.37,5.37,0,0,0,0-10.74h-.49c-7.49,9.15-14.64,17.61-21.47,25.29A5.36,5.36,0,0,0,276.29,164.08Z" style="fill: rgb(144, 202, 249); transform-origin: 285.285px 150.07px;" id="elkzaqupxsqbj" class="animable"></path><g id="el1m2qy4lfvs8j"><path d="M276.29,164.08a5.36,5.36,0,0,0,5.37-5.36v-3.18h9.24V146.8h2.68a5.37,5.37,0,0,0,0-10.74h-.49c-7.49,9.15-14.64,17.61-21.47,25.29A5.36,5.36,0,0,0,276.29,164.08Z" style="fill: rgb(255, 255, 255); opacity: 0.2; transform-origin: 285.285px 150.07px;" class="animable"></path></g><path d="M300.13,127.38V129a5.37,5.37,0,0,0,10.74,0v-2.84h9.23V97h-.74c-3.52,8.3-9.15,17.87-17.87,28.73C301,126.26,300.58,126.82,300.13,127.38Z" style="fill: rgb(144, 202, 249); transform-origin: 310.115px 115.685px;" id="elhoh7xprk6wv" class="animable"></path><g id="el26i38sb36jy"><path d="M300.13,127.38V129a5.37,5.37,0,0,0,10.74,0v-2.84h9.23V97h-.74c-3.52,8.3-9.15,17.87-17.87,28.73C301,126.26,300.58,126.82,300.13,127.38Z" style="fill: rgb(255, 255, 255); opacity: 0.2; transform-origin: 310.115px 115.685px;" class="animable"></path></g><path d="M320.1,56.87a25.68,25.68,0,0,1,4,10.73h4.13a55.71,55.71,0,0,0-8.12-10.78Z" style="fill: rgb(144, 202, 249); transform-origin: 324.165px 62.21px;" id="eldlyfh8ffd34" class="animable"></path><path d="M329.34,69.56v.88a5.35,5.35,0,0,0,2.73,4.67C331.19,73.11,330.27,71.25,329.34,69.56Z" style="fill: rgb(144, 202, 249); transform-origin: 330.705px 72.335px;" id="elob659saroi" class="animable"></path><path d="M329.34,70.44v-.88c-.34-.62-.68-1.22-1-1.8h-4.19a41.45,41.45,0,0,1,.3,10,5.36,5.36,0,0,1-1.63,10.47h-.33a71,71,0,0,1-2.36,6.92V97h9.24v3.18a5.37,5.37,0,0,0,8.33,4.48,68,68,0,0,0-5.6-29.51A5.35,5.35,0,0,1,329.34,70.44Z" style="fill: rgb(144, 202, 249); transform-origin: 328.936px 86.6547px;" id="elw31366r0w6" class="animable"></path><g id="el8cqtapm2mxm"><path d="M329.34,70.44v-.88c-.34-.62-.68-1.22-1-1.8h-4.19a41.45,41.45,0,0,1,.3,10,5.36,5.36,0,0,1-1.63,10.47h-.33a71,71,0,0,1-2.36,6.92V97h9.24v3.18a5.37,5.37,0,0,0,8.33,4.48,68,68,0,0,0-5.6-29.51A5.35,5.35,0,0,1,329.34,70.44Z" style="fill: rgb(255, 255, 255); opacity: 0.5; transform-origin: 328.936px 86.6547px;" class="animable"></path></g><path d="M334.71,105.51a5.36,5.36,0,0,1-5.37-5.37V97H320.1v29.21h9.24V129a5.37,5.37,0,0,0,2,4.17,82.52,82.52,0,0,0,6.35-28.56A5.37,5.37,0,0,1,334.71,105.51Z" style="fill: rgb(144, 202, 249); transform-origin: 328.895px 115.085px;" id="el5isk6bnqp9a" class="animable"></path><g id="elfzph0hry014"><path d="M334.71,105.51a5.36,5.36,0,0,1-5.37-5.37V97H320.1v29.21h9.24V129a5.37,5.37,0,0,0,2,4.17,82.52,82.52,0,0,0,6.35-28.56A5.37,5.37,0,0,1,334.71,105.51Z" style="fill: rgb(255, 255, 255); opacity: 0.6; transform-origin: 328.895px 115.085px;" class="animable"></path></g><path d="M232.48,205.37h2.69a5.37,5.37,0,0,0,2.11-10.3c-11.68,9.24-22.27,14.65-32,15.52l2.71,3.52h4.48v3.18a5.37,5.37,0,0,0,10.74,0v-3.18h9.23Z" style="fill: rgb(144, 202, 249); transform-origin: 222.901px 208.865px;" id="elw4dafqkju1" class="animable"></path><g id="el3vf0wgdn7tr"><path d="M232.48,205.37h2.69a5.37,5.37,0,0,0,2.11-10.3c-11.68,9.24-22.27,14.65-32,15.52l2.71,3.52h4.48v3.18a5.37,5.37,0,0,0,10.74,0v-3.18h9.23Z" style="fill: rgb(255, 255, 255); opacity: 0.5; transform-origin: 222.901px 208.865px;" class="animable"></path></g><path d="M242.65,190.61a5.37,5.37,0,0,0,9.8-3v-2.85h9.24V172.2C255,179.22,248.7,185.39,242.65,190.61Z" style="fill: rgb(144, 202, 249); transform-origin: 252.17px 182.573px;" id="elv2du79beba" class="animable"></path><g id="eldlzy6bw5xkg"><path d="M242.65,190.61a5.37,5.37,0,0,0,9.8-3v-2.85h9.24V172.2C255,179.22,248.7,185.39,242.65,190.61Z" style="fill: rgb(255, 255, 255); opacity: 0.5; transform-origin: 252.17px 182.573px;" class="animable"></path></g><path d="M281.66,187.59v-2.85h9.24v-9.07h2.68a5.37,5.37,0,1,0,0-10.74H290.9v-9.39h-9.24v3.18a5.37,5.37,0,0,1-10,2.63q-5.08,5.72-9.93,10.85v12.54h9.23v2.85a5.37,5.37,0,0,0,10.74,0Z" style="fill: rgb(144, 202, 249); transform-origin: 280.344px 174.25px;" id="el178xk3ctdvch" class="animable"></path><path d="M281.66,187.59v-2.85h9.24v-9.07h2.68a5.37,5.37,0,1,0,0-10.74H290.9v-9.39h-9.24v3.18a5.37,5.37,0,0,1-10,2.63q-5.08,5.72-9.93,10.85v12.54h9.23v2.85a5.37,5.37,0,0,0,10.74,0Z" style="fill: rgb(144, 202, 249); transform-origin: 280.344px 174.25px;" id="elf18i54ldq7s" class="animable"></path><g id="elhftbin8k97f"><path d="M281.66,187.59v-2.85h9.24v-9.07h2.68a5.37,5.37,0,1,0,0-10.74H290.9v-9.39h-9.24v3.18a5.37,5.37,0,0,1-10,2.63q-5.08,5.72-9.93,10.85v12.54h9.23v2.85a5.37,5.37,0,0,0,10.74,0Z" style="fill: rgb(255, 255, 255); opacity: 0.7; transform-origin: 280.344px 174.25px;" class="animable"></path></g><path d="M270.92,184.83v2.76a5.37,5.37,0,0,0,10.74,0v-2.85h9.24v9.34a276.86,276.86,0,0,1-20,21.78v-1.75h-9.23v-8.74h2.68a5.37,5.37,0,0,0,0-10.74h-2.68v-9.89h9.23Z" style="fill: rgb(144, 202, 249); transform-origin: 276.285px 200.3px;" id="elu0xj6ifyi6" class="animable"></path><g id="el808imxuj3md"><g style="opacity: 0.5; transform-origin: 276.285px 200.3px;" class="animable"><path d="M270.92,184.83v2.76a5.37,5.37,0,0,0,10.74,0v-2.85h9.24v9.34a276.86,276.86,0,0,1-20,21.78v-1.75h-9.23v-8.74h2.68a5.37,5.37,0,0,0,0-10.74h-2.68v-9.89h9.23Z" style="fill: rgb(255, 255, 255); transform-origin: 276.285px 200.3px;" id="el2jd4r011mzd" class="animable"></path></g></g><path d="M290.9,184.9v9.18c2.39-2.89,4.85-5.94,7.36-9.18l.12-.16H290.9Z" style="fill: rgb(144, 202, 249); transform-origin: 294.64px 189.41px;" id="elxe4fqeru37s" class="animable"></path><path d="M310.87,155.54v3.18a5.37,5.37,0,0,1-10.74,0v-3.18H290.9v9.39h2.68a5.37,5.37,0,1,1,0,10.74H290.9v9.07h7.48c6.57-8.46,13.51-18.14,20.8-29.2Z" style="fill: rgb(144, 202, 249); transform-origin: 305.04px 170.14px;" id="elmyww7140k9s" class="animable"></path><g id="ellji1xuz39yg"><path d="M310.87,155.54v3.18a5.37,5.37,0,0,1-10.74,0v-3.18H290.9v9.39h2.68a5.37,5.37,0,1,1,0,10.74H290.9v9.07h7.48c6.57-8.46,13.51-18.14,20.8-29.2Z" style="fill: rgb(255, 255, 255); opacity: 0.2; transform-origin: 305.04px 170.14px;" class="animable"></path></g><path d="M232.48,234.24h2.69a5.37,5.37,0,0,0,0-10.74h-2.69v-9.39h-9.23v3.18a5.37,5.37,0,0,1-10.74,0v-3.18H208l22.47,29.2a15.94,15.94,0,0,0,2-.55Z" style="fill: rgb(144, 202, 249); transform-origin: 224.27px 228.71px;" id="elg3wc3zh8r0b" class="animable"></path><g id="ellzv8l7itqq"><path d="M232.48,234.24h2.69a5.37,5.37,0,0,0,0-10.74h-2.69v-9.39h-9.23v3.18a5.37,5.37,0,0,1-10.74,0v-3.18H208l22.47,29.2a15.94,15.94,0,0,0,2-.55Z" style="fill: rgb(255, 255, 255); opacity: 0.2; transform-origin: 224.27px 228.71px;" class="animable"></path></g><path d="M252.45,217.29a5.37,5.37,0,1,1-10.73,0v-3.18h-9.24v9.39h2.69a5.37,5.37,0,0,1,0,10.74h-2.69v8.52c4.07-1.35,14.25-5.67,29.21-18.46V214.11h-9.24Z" style="fill: rgb(144, 202, 249); transform-origin: 247.085px 228.435px;" id="el1s4x4ku5vwq" class="animable"></path><g id="elbww92zba3ct"><path d="M252.45,217.29a5.37,5.37,0,1,1-10.73,0v-3.18h-9.24v9.39h2.69a5.37,5.37,0,0,1,0,10.74h-2.69v8.52c4.07-1.35,14.25-5.67,29.21-18.46V214.11h-9.24Z" style="fill: rgb(255, 255, 255); opacity: 0.7; transform-origin: 247.085px 228.435px;" class="animable"></path></g><path d="M270.92,215.86v-1.75h-9.23V224.3C264.59,221.82,267.67,219,270.92,215.86Z" style="fill: rgb(144, 202, 249); transform-origin: 266.305px 219.205px;" id="eln4b002giv1q" class="animable"></path><path d="M261.69,184.9v9.73h2.68a5.37,5.37,0,0,1,0,10.74h-2.68v8.74h-9.24v3.18a5.37,5.37,0,1,1-10.73,0v-3.18h-9.24v-8.74h2.69a5.37,5.37,0,0,0,2.11-10.3q2.66-2.1,5.37-4.46a5.37,5.37,0,0,0,9.8-3v-2.85h9.24S261.73,184.9,261.69,184.9Z" style="fill: rgb(144, 202, 249); transform-origin: 251.11px 203.826px;" id="elm32s9trmv9d" class="animable"></path><g id="el5kpjt23sztt"><path d="M261.69,184.9v9.73h2.68a5.37,5.37,0,0,1,0,10.74h-2.68v8.74h-9.24v3.18a5.37,5.37,0,1,1-10.73,0v-3.18h-9.24v-8.74h2.69a5.37,5.37,0,0,0,2.11-10.3q2.66-2.1,5.37-4.46a5.37,5.37,0,0,0,9.8-3v-2.85h9.24S261.73,184.9,261.69,184.9Z" style="fill: rgb(255, 255, 255); opacity: 0.2; transform-origin: 251.11px 203.826px;" class="animable"></path></g><path d="M310.87,126.33V129a5.37,5.37,0,0,1-10.74,0v-1.63q-3.57,4.44-7,8.68h.49a5.37,5.37,0,0,1,0,10.74H290.9v8.74h9.23v3.18a5.37,5.37,0,0,0,10.74,0v-3.18h8.31l.92-1.41V146.8h2.69a5.21,5.21,0,0,0,2.09-.43c1.15-2,2.2-4,3.17-6a5.36,5.36,0,0,0-5.26-4.35H320.1v-9.89h-9.23Z" style="fill: rgb(144, 202, 249); transform-origin: 309.475px 145.105px;" id="el5xd773db2lx" class="animable"></path><g id="elp0pkxw55ob"><path d="M310.87,126.33V129a5.37,5.37,0,0,1-10.74,0v-1.63q-3.57,4.44-7,8.68h.49a5.37,5.37,0,0,1,0,10.74H290.9v8.74h9.23v3.18a5.37,5.37,0,0,0,10.74,0v-3.18h8.31l.92-1.41V146.8h2.69a5.21,5.21,0,0,0,2.09-.43c1.15-2,2.2-4,3.17-6a5.36,5.36,0,0,0-5.26-4.35H320.1v-9.89h-9.23Z" style="fill: rgb(255, 255, 255); opacity: 0.5; transform-origin: 309.475px 145.105px;" class="animable"></path></g><path d="M320.1,146.8v7.33l.62-.94c1.5-2.3,2.88-4.58,4.16-6.82a5.21,5.21,0,0,1-2.09.43Z" style="fill: rgb(144, 202, 249); transform-origin: 322.49px 150.25px;" id="elnajss4at3k" class="animable"></path><path d="M320.1,126.33v9.73h2.69a5.36,5.36,0,0,1,5.26,4.35q1.83-3.69,3.27-7.23a5.37,5.37,0,0,1-2-4.17v-2.84H320.1Z" style="fill: rgb(144, 202, 249); transform-origin: 325.71px 133.29px;" id="elftla2du3ymw" class="animable"></path><g id="elkl1vo7v6wll"><g style="opacity: 0.7; transform-origin: 325.71px 140.15px;" class="animable"><path d="M320.1,146.8v7.33l.62-.94c1.5-2.3,2.88-4.58,4.16-6.82a5.21,5.21,0,0,1-2.09.43Z" style="fill: rgb(255, 255, 255); transform-origin: 322.49px 150.25px;" id="elsbjy587bsb" class="animable"></path><path d="M320.1,126.33v9.73h2.69a5.36,5.36,0,0,1,5.26,4.35q1.83-3.69,3.27-7.23a5.37,5.37,0,0,1-2-4.17v-2.84H320.1Z" style="fill: rgb(255, 255, 255); transform-origin: 325.71px 133.29px;" id="elcd7nl8r6sc9" class="animable"></path></g></g></g><g id="freepik--character-2--inject-100" class="animable" style="transform-origin: 346.56px 315.09px;"><path d="M368.46,352.85V414h3.38V383.4c0-10.73,5.68-19.43,12.67-19.43s12.67,8.7,12.67,19.43V414h3.38V352.85Z" style="fill: rgb(144, 202, 249); transform-origin: 384.51px 383.425px;" id="elpmzjl6vwrra" class="animable"></path><g id="elkbtgeomf4v"><path d="M368.46,352.85V414h3.38V383.4c0-10.73,5.68-19.43,12.67-19.43s12.67,8.7,12.67,19.43V414h3.38V352.85Z" style="fill: rgb(255, 255, 255); opacity: 0.1; transform-origin: 384.51px 383.425px;" class="animable"></path></g><polygon points="396.31 352.85 348.31 352.85 357.31 303.4 402.31 303.4 396.31 352.85" style="fill: rgb(144, 202, 249); transform-origin: 375.31px 328.125px;" id="elft9uzp2ays5" class="animable"></polygon><g id="el49g9pcfc186"><polygon points="396.31 352.85 348.31 352.85 357.31 303.4 402.31 303.4 396.31 352.85" style="fill: rgb(255, 255, 255); opacity: 0.3; transform-origin: 375.31px 328.125px;" class="animable"></polygon></g><path d="M319.21,352.85V414h5.19V383.4a19.44,19.44,0,0,1,38.88,0V414h5.18V352.85Z" style="fill: rgb(144, 202, 249); transform-origin: 343.835px 383.425px;" id="elyhktrslhfoc" class="animable"></path><path d="M319.21,352.85V414h3.38V383.4c0-10.73,5.68-19.43,12.67-19.43s12.67,8.7,12.67,19.43V414h3.38V352.85Z" style="fill: rgb(144, 202, 249); transform-origin: 335.26px 383.425px;" id="elg2v72cvk7wo" class="animable"></path><g id="eld4qxee7dmbj"><path d="M319.21,352.85V414h3.38V383.4c0-10.73,5.68-19.43,12.67-19.43s12.67,8.7,12.67,19.43V414h3.38V352.85Z" style="fill: rgb(255, 255, 255); opacity: 0.3; transform-origin: 335.26px 383.425px;" class="animable"></path></g><path d="M400.56,303.4l-9,49.45H351.31V414h5.19V383.4a19.44,19.44,0,0,1,38.88,0V414h5.18V352.85l6-49.45Z" style="fill: rgb(144, 202, 249); transform-origin: 378.935px 358.7px;" id="elv99ntpqrwso" class="animable"></path><g id="el22o6gkjgk2q"><path d="M400.56,303.4l-9,49.45H351.31V414h5.19V383.4a19.44,19.44,0,0,1,38.88,0V414h5.18V352.85l6-49.45Z" style="fill: rgb(255, 255, 255); opacity: 0.5; transform-origin: 378.935px 358.7px;" class="animable"></path></g><path d="M319.93,326.59c-4.6.56-14.5,3.83-14.17,10.66s6.17,67.67,6.17,67.67h9.17s6.33-49.5,3.5-57.67h11.16L325.1,326.59S321.21,326.43,319.93,326.59Z" style="fill: rgb(238, 193, 187); transform-origin: 320.756px 365.719px;" id="elkpdh6rfl6de" class="animable"></path><path d="M342.16,319.63s-2.89,2.94-4.17,3.33c-6.33,2-15.5-.33-24.33,4.17,0,0,10.92-1.52,14.16,20.83,0,0,19.67,3.83,39.34,2.67s7.17-31,7.17-31Z" style="fill: rgb(38, 50, 56); transform-origin: 345.953px 335.239px;" id="el5r1te5ngpz4" class="animable"></path><g id="elagnuytxs64"><path d="M342.16,319.63s-2.89,2.94-4.17,3.33c-6.33,2-15.5-.33-24.33,4.17,0,0,10.92-1.52,14.16,20.83,0,0,19.67,3.83,39.34,2.67s7.17-31,7.17-31Z" style="opacity: 0.5; transform-origin: 345.953px 335.239px;" class="animable"></path></g><path d="M310.33,328.38A14.74,14.74,0,0,1,321,334c4.59,5.68,5.92,14.59,5.92,14.59l3.17.58s.81-7.49-4.92-15.83-10.5-7.67-10.5-7.67Z" style="fill: rgb(144, 202, 249); transform-origin: 320.23px 337.414px;" id="elqcdbfgjpe9" class="animable"></path><path d="M308.51,405.07a3.78,3.78,0,0,1-2.59-.72.8.8,0,0,1,0-.91,1.1,1.1,0,0,1,.67-.48c1.48-.38,4.53,1.44,4.67,1.52a.2.2,0,0,1,.09.22.19.19,0,0,1-.17.16A15.28,15.28,0,0,1,308.51,405.07Zm-1.38-1.74a1.36,1.36,0,0,0-.4,0,.58.58,0,0,0-.42.29c-.16.25-.1.38-.05.45.4.59,2.63.64,4.28.46A9.65,9.65,0,0,0,307.13,403.33Z" style="fill: rgb(144, 202, 249); transform-origin: 308.567px 403.997px;" id="elmhq1a5dy69c" class="animable"></path><path d="M311.18,404.86a.1.1,0,0,1-.09,0c-1-.48-3.14-2.44-2.93-3.43,0-.24.21-.52.79-.57a1.54,1.54,0,0,1,1.16.38c1.11.94,1.3,3.33,1.31,3.44a.2.2,0,0,1-.1.18A.17.17,0,0,1,311.18,404.86Zm-2.1-3.61-.12,0c-.38,0-.4.18-.42.23-.06.6,1.3,2.12,2.39,2.79a4.92,4.92,0,0,0-1.13-2.73,1.11,1.11,0,0,0-.72-.27Z" style="fill: rgb(144, 202, 249); transform-origin: 309.783px 402.864px;" id="els2ctfyy855" class="animable"></path><path d="M312.14,403.64l9.64.17a.78.78,0,0,1,.75.62l1.6,7.87a1.28,1.28,0,0,1-1,1.53,1.24,1.24,0,0,1-.27,0c-3.48-.12-6.57-.36-10.89-.43-5.11-.09-3.82.55-9.83.53-3.62,0-4.21-4.14-2.67-4.31,7-.77,7.8-2.87,10.55-5.34A3.16,3.16,0,0,1,312.14,403.64Z" style="fill: rgb(38, 50, 56); transform-origin: 311.417px 408.782px;" id="elmij0ystkz2o" class="animable"></path><path d="M344,331.46s-16.5.83-16.16,7.67S335,404.79,335,404.79h9.17s6.33-45.5,3.5-53.66h12.17l-10.67-19.67Z" style="fill: rgb(238, 193, 187); transform-origin: 343.837px 368.125px;" id="elaq9xnxisu4" class="animable"></path><path d="M387.66,319.63s2.75,30.25-18,32.25-18.25,0-18.25,0S346.77,336,332,333c0,0,14.35-3.83,17.14-8.1.58-.9,1.75-3.25,1.75-3.25Z" style="fill: rgb(38, 50, 56); transform-origin: 359.89px 336.199px;" id="elry7b1172u4j" class="animable"></path><path d="M328.83,334.29s17.12,7,21.33,18.47l4.37.56s-3.2-14.86-21.37-21.53Z" style="fill: rgb(144, 202, 249); transform-origin: 341.68px 342.555px;" id="ellwawaq2pxuc" class="animable"></path><path d="M331.76,405.07a3.78,3.78,0,0,1-2.59-.72.8.8,0,0,1,0-.91,1.1,1.1,0,0,1,.67-.48c1.48-.38,4.53,1.44,4.67,1.52a.2.2,0,0,1,.09.22.19.19,0,0,1-.17.16A15.28,15.28,0,0,1,331.76,405.07Zm-1.38-1.74a1.36,1.36,0,0,0-.4,0,.58.58,0,0,0-.42.29c-.16.25-.1.38-.05.45.4.59,2.63.64,4.28.46A9.65,9.65,0,0,0,330.38,403.33Z" style="fill: rgb(144, 202, 249); transform-origin: 331.817px 403.997px;" id="el56vanaskdaj" class="animable"></path><path d="M334.43,404.86a.1.1,0,0,1-.09,0c-1-.48-3.14-2.44-2.93-3.43,0-.24.21-.52.79-.57a1.54,1.54,0,0,1,1.16.38c1.11.94,1.3,3.33,1.31,3.44a.2.2,0,0,1-.1.18A.17.17,0,0,1,334.43,404.86Zm-2.1-3.61-.12,0c-.38,0-.4.18-.42.23-.06.6,1.3,2.12,2.39,2.79a4.92,4.92,0,0,0-1.13-2.73,1.11,1.11,0,0,0-.72-.27Z" style="fill: rgb(144, 202, 249); transform-origin: 333.033px 402.864px;" id="el78cfv3sy9ng" class="animable"></path><path d="M335.39,403.64l9.64.17a.78.78,0,0,1,.75.62l1.6,7.87a1.28,1.28,0,0,1-1,1.53,1.24,1.24,0,0,1-.27,0c-3.48-.12-6.57-.36-10.89-.43-5.11-.09-3.82.55-9.83.53-3.62,0-4.21-4.14-2.67-4.31,7-.77,7.8-2.87,10.55-5.34A3.16,3.16,0,0,1,335.39,403.64Z" style="fill: rgb(38, 50, 56); transform-origin: 334.667px 408.782px;" id="elktzqzlpbhvg" class="animable"></path><path d="M334.28,289.61s-7.42,10-12.92,9.33-16.7-21.15-16.7-21.15l-7.31-5.59a2.39,2.39,0,0,1-.9-2.37l1.37-6.95a2.4,2.4,0,0,1,2.12-1.93l1.47-.14a2.4,2.4,0,0,1,2.52,1.64l3.73,11.34L320.76,286l6.23-6Z" style="fill: rgb(238, 193, 187); transform-origin: 315.342px 279.885px;" id="el7i8kxgcyf65" class="animable"></path><path d="M333.49,270.93,322,283.06a49,49,0,0,1,9.17,11.23s11.25-6.83,13.79-13.83c1.32-3.63-.17-8.49-2.87-10.4A6.6,6.6,0,0,0,333.49,270.93Z" style="fill: rgb(38, 50, 56); transform-origin: 333.724px 281.574px;" id="ellprqzdqk6ui" class="animable"></path><path d="M334.91,269.13s13.46,25.16,5.75,51.75a102.52,102.52,0,0,0,47.75,1s.3-10.13.7-28.52c.35-15.82-.4-33.11-11.2-37.48C356.91,247.38,334.91,269.13,334.91,269.13Z" style="fill: rgb(144, 202, 249); transform-origin: 362.042px 289.066px;" id="elliqn3nubha" class="animable"></path><path d="M387.16,276.63s3.17,21.66-6,22.66-24.5-1.33-24.5-1.33l-8.5-1.73a2.31,2.31,0,0,1-1.74-1.57L345,289.93a2.26,2.26,0,0,1,.14-1.71l.58-1.18a2.31,2.31,0,0,1,3.52-.77l8.47,6.86,18.83-3.5-3.33-10Z" style="fill: rgb(238, 193, 187); transform-origin: 366.292px 288.085px;" id="elku8prnvfkfl" class="animable"></path><path d="M361.85,254.45c-4.69-.55-6.69-10.15-6.69-10.15l-8.79,7.2,1.95,7.93s-3.4,11.32,6.35,8.82S361.85,254.45,361.85,254.45Z" style="fill: rgb(238, 193, 187); transform-origin: 354.263px 256.455px;" id="el0u8u0mj1dotn" class="animable"></path><g id="elihfjp131z8a"><path d="M354.75,247.21l-1.9-1-6.48,5.31,1.34,5.45C352.72,257.89,354.75,247.21,354.75,247.21Z" style="opacity: 0.1; transform-origin: 350.56px 251.618px;" class="animable"></path></g><path d="M372.13,256c5.38-3.8,15.24,2.79,16.58,22.62,0,0-7.17-.66-15.51,4.4C373.2,283.06,365,261.1,372.13,256Z" style="fill: rgb(38, 50, 56); transform-origin: 378.963px 268.997px;" id="els03274cyi2" class="animable"></path><path d="M357.43,235.12c-1.41,8.39-1.82,13.37-6.55,17.24-7.1,5.84-17.11.84-18.22-7.78-1-7.81,1.49-20.18,10.11-22.66a11.59,11.59,0,0,1,14.66,13.2Z" style="fill: rgb(238, 193, 187); transform-origin: 345.035px 238.168px;" id="el0xg1c9535xj" class="animable"></path><path d="M344,236.15c-.07.7-.49,1.22-.94,1.17s-.75-.65-.68-1.34.5-1.2,1-1.15S344,235.47,344,236.15Z" style="fill: rgb(46, 53, 58); transform-origin: 343.185px 236.075px;" id="el9t3gflygdeu" class="animable"></path><path d="M340.23,245.63c-.06.69-.49,1.21-.94,1.16s-.76-.65-.68-1.34.49-1.2.94-1.15S340.31,245,340.23,245.63Z" style="fill: rgb(46, 53, 58); transform-origin: 339.42px 245.545px;" id="elm00xc4f7tgn" class="animable"></path><path d="M336.2,235.33c-.08.68-.5,1.2-.95,1.15s-.75-.64-.67-1.32.49-1.21.94-1.16S336.27,234.64,336.2,235.33Z" style="fill: rgb(46, 53, 58); transform-origin: 335.389px 235.24px;" id="elvw36a74a66k" class="animable"></path><path d="M339.05,235.9a24.55,24.55,0,0,1-3.91,5.52,4,4,0,0,0,3.22,1Z" style="fill: rgb(212, 130, 125); transform-origin: 337.095px 239.178px;" id="elpt2ymfm5zzh" class="animable"></path><path d="M347,233.22a.65.65,0,0,0,.2,0,.42.42,0,0,0,.14-.56,4.09,4.09,0,0,0-3.11-2,.41.41,0,0,0,0,.82h0a3.18,3.18,0,0,1,2.44,1.62A.42.42,0,0,0,347,233.22Z" style="fill: rgb(46, 53, 58); transform-origin: 345.607px 231.944px;" id="eldgtavhesdhb" class="animable"></path><path d="M333.51,231.87a.39.39,0,0,0,.34-.19,3.21,3.21,0,0,1,2.44-1.58.4.4,0,0,0,.4-.41.4.4,0,0,0-.41-.4,4,4,0,0,0-3.15,2,.39.39,0,0,0,.12.55h0A.36.36,0,0,0,333.51,231.87Z" style="fill: rgb(46, 53, 58); transform-origin: 334.877px 230.586px;" id="elojvt946p4fm" class="animable"></path><path d="M355.21,240s-4.16-1.92-2.5-9.92c0,0-7.69,2-7.67-3.75,0,0-7.79,1.94-7.22-1.32,0,0-4.75.82-4.36-2.76.5-4.45,5.67-1.17,7-1.67,0,0-1-3.25,1.87-4.16,4.25-1.34,4.05,3.33,7.47,3.66s7.81-.5,7.82,3.25c0,0,5,1.08,4.54,6s5.55,6.25,3.39,9.25-4.25-.37-4.25-.37,1.42,5.54-1.92,7.37-.81,4.17-2.45,3.42S353.76,242.18,355.21,240Z" style="fill: rgb(38, 50, 56); transform-origin: 349.729px 232.661px;" id="elh4ib2owkbv" class="animable"></path><path d="M360.72,243.44a8.16,8.16,0,0,1-5.39,3c-2.82.3-3.77-2.32-2.6-4.74,1-2.18,3.78-5,6.42-4.16S362.33,241.35,360.72,243.44Z" style="fill: rgb(238, 193, 187); transform-origin: 356.934px 241.926px;" id="elsizhli6jsxi" class="animable"></path><path d="M356.93,224.3s5.6-.14,3.4-3.69S356.93,224.3,356.93,224.3Z" style="fill: rgb(38, 50, 56); transform-origin: 358.886px 221.965px;" id="elkm0r9c787bc" class="animable"></path><path d="M288.23,249.64l1.33,1.33-3,3L299,266.44l3-3,1.16,1.16a4.5,4.5,0,1,0,6.36-6.37L308.37,257l3-3-3-3L307,252.3a4.5,4.5,0,0,1-6.37-6.37L302,244.6l-3-3-3,3-1.33-1.33a4.5,4.5,0,1,0-6.37,6.37Z" style="fill: rgb(144, 202, 249); transform-origin: 298.965px 254.02px;" id="elcohf227q76" class="animable"></path><g id="els1iinc2jn3m"><path d="M288.23,249.64l1.33,1.33-3,3L299,266.44l3-3,1.16,1.16a4.5,4.5,0,1,0,6.36-6.37L308.37,257l3-3-3-3L307,252.3a4.5,4.5,0,0,1-6.37-6.37L302,244.6l-3-3-3,3-1.33-1.33a4.5,4.5,0,1,0-6.37,6.37Z" style="opacity: 0.3; transform-origin: 298.965px 254.02px;" class="animable"></path></g></g><g id="freepik--Table--inject-100" class="animable" style="transform-origin: 267.47px 348.599px;"><path d="M300.9,398.85a35.32,35.32,0,1,1,0-70.63h35.31V313.11H249.82L254.46,414h81.75V398.85Z" style="fill: rgb(144, 202, 249); transform-origin: 293.015px 363.555px;" id="elzdowveaxzy" class="animable"></path><g id="elr7ei7w1n7s"><path d="M300.9,398.85a35.32,35.32,0,1,1,0-70.63h35.31V313.11H249.82L254.46,414h81.75V398.85Z" style="fill: rgb(255, 255, 255); opacity: 0.5; transform-origin: 293.015px 363.555px;" class="animable"></path></g><polygon points="254.46 413.96 203.37 413.96 198.72 313.11 249.82 313.11 254.46 413.96" style="fill: rgb(144, 202, 249); transform-origin: 226.59px 363.535px;" id="elt59ixjkuhgr" class="animable"></polygon><g id="elg1wf13i5xd"><polygon points="254.46 413.96 203.37 413.96 198.72 313.11 249.82 313.11 254.46 413.96" style="fill: rgb(255, 255, 255); opacity: 0.3; transform-origin: 226.59px 363.535px;" class="animable"></polygon></g><rect x="194.08" y="307.63" width="57.29" height="5.49" style="fill: rgb(144, 202, 249); transform-origin: 222.725px 310.375px;" id="elldmympd0w1" class="animable"></rect><g id="el6rtpryvoijs"><rect x="194.08" y="307.63" width="57.29" height="5.49" style="fill: rgb(255, 255, 255); opacity: 0.1; transform-origin: 222.725px 310.375px;" class="animable"></rect></g><rect x="251.37" y="307.63" width="89.49" height="5.49" style="fill: rgb(144, 202, 249); transform-origin: 296.115px 310.375px;" id="els7upz6dbrp" class="animable"></rect><g id="el8utektwsfug"><rect x="251.37" y="307.63" width="89.49" height="5.49" style="fill: rgb(255, 255, 255); opacity: 0.3; transform-origin: 296.115px 310.375px;" class="animable"></rect></g><path d="M246.31,303.25h1.92v4.38h17.92v-4.38h1.67a4.59,4.59,0,0,0,0-9.18h-1.67V289.7h-4.37v1.92a4.59,4.59,0,1,1-9.18,0V289.7h-4.37v4.37h-1.92a4.59,4.59,0,0,0,0,9.18Z" style="fill: rgb(144, 202, 249); transform-origin: 257.065px 298.665px;" id="el0nhb41lwh6k" class="animable"></path><g id="elaavxfbvrfoa"><path d="M246.31,303.25h1.92v4.38h17.92v-4.38h1.67a4.59,4.59,0,0,0,0-9.18h-1.67V289.7h-4.37v1.92a4.59,4.59,0,1,1-9.18,0V289.7h-4.37v4.37h-1.92a4.59,4.59,0,0,0,0,9.18Z" style="fill: rgb(255, 255, 255); opacity: 0.5; transform-origin: 257.065px 298.665px;" class="animable"></path></g><path d="M278.33,303.25h-1.92v4.38h17.93v-4.38H296a4.59,4.59,0,0,0,0-9.18h-1.66V289.7H290v-1.92a4.59,4.59,0,0,0-9.18,0v1.92h-4.37v4.37h1.92a4.59,4.59,0,0,1,0,9.18Z" style="fill: rgb(144, 202, 249); transform-origin: 288.5px 295.414px;" id="el1wqqbzxo4bb" class="animable"></path><path d="M232.51,294.07h1.92V289.7H216.5v4.37h-1.67a4.59,4.59,0,0,0,0,9.18h1.67v4.38h17.93v-4.38h-1.92a4.59,4.59,0,0,1,0-9.18Z" style="fill: rgb(144, 202, 249); transform-origin: 222.335px 298.665px;" id="elbjpv32goo6p" class="animable"></path><g id="elzncwujjsgx"><path d="M232.51,294.07h1.92V289.7H216.5v4.37h-1.67a4.59,4.59,0,0,0,0,9.18h1.67v4.38h17.93v-4.38h-1.92a4.59,4.59,0,0,1,0-9.18Z" style="opacity: 0.3; transform-origin: 222.335px 298.665px;" class="animable"></path></g></g><g id="freepik--character-1--inject-100" class="animable" style="transform-origin: 166.567px 265.895px;"><polygon points="150.01 388.06 151.58 406.01 159.73 406.01 160.56 388.06 150.01 388.06" style="fill: rgb(185, 121, 100); transform-origin: 155.285px 397.035px;" id="elt4c92b9jiq8" class="animable"></polygon><path d="M160.76,405.37a.2.2,0,0,1-.16-.16.19.19,0,0,1,.09-.21c.13-.08,3.08-1.83,4.51-1.47a1.07,1.07,0,0,1,.65.47.77.77,0,0,1,0,.88,3.68,3.68,0,0,1-2.5.69A15.34,15.34,0,0,1,160.76,405.37Zm.65-.28c1.6.17,3.75.12,4.14-.45,0-.06.1-.19-.05-.44a.56.56,0,0,0-.4-.27,1.31,1.31,0,0,0-.39-.05A9.32,9.32,0,0,0,161.41,405.09Z" style="fill: rgb(144, 202, 249); transform-origin: 163.291px 404.533px;" id="el00nb6p7754t9" class="animable"></path><path d="M160.66,405.36a.2.2,0,0,1-.1-.18c0-.11.2-2.41,1.27-3.33a1.48,1.48,0,0,1,1.12-.36c.56,0,.74.32.76.55.2,1-1.82,2.85-2.83,3.32h-.09A.2.2,0,0,1,160.66,405.36Zm2.16-3.49a1.1,1.1,0,0,0-.69.27,4.7,4.7,0,0,0-1.09,2.64c1.05-.65,2.37-2.12,2.31-2.7,0-.05,0-.19-.41-.22Z" style="fill: rgb(144, 202, 249); transform-origin: 162.142px 403.427px;" id="el29i3pje3209" class="animable"></path><path d="M159.87,404.19l-9.32.16a.75.75,0,0,0-.72.6l-1.56,7.61a1.25,1.25,0,0,0,1,1.48l.27,0c3.36-.12,6.34-.36,10.52-.42,4.94-.08,3.7.53,9.5.51,3.5,0,4.07-4,2.59-4.17-6.8-.74-7.54-2.77-10.2-5.16A3.05,3.05,0,0,0,159.87,404.19Z" style="fill: rgb(38, 50, 56); transform-origin: 160.579px 409.156px;" id="eld7lrnyo9ecs" class="animable"></path><path d="M174.44,231.45,161.11,394.72H150S143.93,352,146.79,317c.15-1.82.32-3.61.52-5.38a34.31,34.31,0,0,0,0-7.78c-.17-1.52-.38-3.41-.61-5.57-1.28-11.89-3.19-31.73-2.81-40.74,0,0-5.65-12.78-1.16-30.55h31.7Z" style="fill: rgb(144, 202, 249); transform-origin: 157.718px 310.85px;" id="elx7lskret5kc" class="animable"></path><polygon points="148.43 391.67 148.9 394.72 147.88 397.22 161.95 397.22 161.58 394.72 162.78 391.67 148.43 391.67" style="fill: rgb(144, 202, 249); transform-origin: 155.33px 394.445px;" id="el8bu6zopl3fd" class="animable"></polygon><g id="el09pejzavhmhv"><polygon points="148.43 391.67 148.9 394.72 147.88 397.22 161.95 397.22 161.58 394.72 162.78 391.67 148.43 391.67" style="fill: rgb(255, 255, 255); opacity: 0.5; transform-origin: 155.33px 394.445px;" class="animable"></polygon></g><g id="eld1b8hix8ol7"><path d="M151.72,240.76l-8.84,13.83a27.24,27.24,0,0,0,1,3c-.28,6.65.69,18.69,1.73,29.08,9.91-27.88,12.09-45.87,12.09-45.87Z" style="opacity: 0.1; transform-origin: 150.29px 263.715px;" class="animable"></path></g><polygon points="102.53 387.59 96.19 406.01 89.2 406.01 91.6 387.04 102.53 387.59" style="fill: rgb(185, 121, 100); transform-origin: 95.865px 396.525px;" id="el502yj3aweyn" class="animable"></polygon><path d="M98.42,405.37a.23.23,0,0,1-.17-.16.21.21,0,0,1,.1-.21c.13-.08,3.08-1.83,4.51-1.47a1.07,1.07,0,0,1,.65.47.78.78,0,0,1,0,.88,3.68,3.68,0,0,1-2.5.69A15.34,15.34,0,0,1,98.42,405.37Zm.65-.28c1.59.17,3.75.12,4.13-.45.06-.06.11-.19,0-.44a.56.56,0,0,0-.41-.27,1.2,1.2,0,0,0-.38-.05A9.25,9.25,0,0,0,99.07,405.09Z" style="fill: rgb(144, 202, 249); transform-origin: 100.947px 404.533px;" id="elwqg73bpb62f" class="animable"></path><path d="M98.31,405.36a.21.21,0,0,1-.09-.18c0-.11.2-2.41,1.27-3.33a1.48,1.48,0,0,1,1.12-.36c.56,0,.74.32.76.55.2,1-1.82,2.85-2.83,3.32h-.09A.23.23,0,0,1,98.31,405.36Zm2.17-3.49a1.08,1.08,0,0,0-.69.27,4.7,4.7,0,0,0-1.09,2.64c1-.65,2.37-2.12,2.3-2.7,0-.05,0-.19-.4-.22Z" style="fill: rgb(144, 202, 249); transform-origin: 99.8018px 403.427px;" id="elqtpy42vryb" class="animable"></path><path d="M97.53,404.19l-9.32.16a.75.75,0,0,0-.72.6l-1.56,7.61a1.25,1.25,0,0,0,1,1.48l.27,0c3.35-.12,6.34-.36,10.52-.42,4.94-.08,3.7.53,9.5.51,3.5,0,4.07-4,2.58-4.17-6.8-.74-7.54-2.77-10.2-5.16A3,3,0,0,0,97.53,404.19Z" style="fill: rgb(38, 50, 56); transform-origin: 98.238px 409.155px;" id="elk6aptij2xv" class="animable"></path><path d="M162.78,227,101.14,394.72H90s2.81-42.53,16.8-75.29c.68-1.57,1.37-3.12,2.1-4.65a38.79,38.79,0,0,0,3.2-10.43c.12-.8.27-1.66.42-2.58,2-11.82,7.42-32.61,9.18-44.22,1.2-7.87,0-15.55,8.89-30.55Z" style="fill: rgb(144, 202, 249); transform-origin: 126.39px 310.86px;" id="elkn39xapiqbh" class="animable"></path><polygon points="88.18 391.67 88.64 394.72 87.62 397.22 101.69 397.22 102.43 394.72 103.64 391.67 88.18 391.67" style="fill: rgb(144, 202, 249); transform-origin: 95.63px 394.445px;" id="elyziwnv9m1j" class="animable"></polygon><g id="elwu5pwbpncj8"><polygon points="88.18 391.67 88.64 394.72 87.62 397.22 101.69 397.22 102.43 394.72 103.64 391.67 88.18 391.67" style="fill: rgb(255, 255, 255); opacity: 0.5; transform-origin: 95.63px 394.445px;" class="animable"></polygon></g><path d="M142.49,131.76c-3.76,2.89-4,8.64-3.94,12.05s.27,0-1.79,6,5.46,11.43,8.44,11.07c9-1.11,13.48.26,19.43,1.65s12.92-5.41,12.15-12.31c-.88-7.88-3.74-11.34-1.73-13.87s6.11-11.45-1.14-13.28c-6.35-1.59-2.82-5.31-12.41-5.41C152.88,117.61,143,119.48,142.49,131.76Z" style="fill: rgb(38, 50, 56); transform-origin: 157.222px 140.186px;" id="elaxzpzcpzg8n" class="animable"></path><path d="M151,147.66c.58,5.32.78,15-3.19,18.16a60.48,60.48,0,0,0,12.79,9.08c6.23-4.3,3.46-7.67,3.46-7.67-5.7-1.94-5.18-6.22-3.87-10.19Z" style="fill: rgb(185, 121, 100); transform-origin: 156.242px 161.28px;" id="el6jbiojnfhdf" class="animable"></path><g id="el0rjxk10aidii"><path d="M154.73,151.53l5.47,5.55a17.21,17.21,0,0,0-.75,2.84c-2.19-.52-5.38-2.8-5.41-5.16A9.44,9.44,0,0,1,154.73,151.53Z" style="opacity: 0.2; isolation: isolate; transform-origin: 157.12px 155.725px;" class="animable"></path></g><path d="M146.28,139.39c2.23,8.5,3,12.14,8.19,15.7,7.84,5.35,17.79.77,18.15-8.22.33-8.09-3.35-20.61-12.44-22.38a12,12,0,0,0-13.9,14.9Z" style="fill: rgb(185, 121, 100); transform-origin: 159.253px 140.819px;" id="elwhnuvzm8ocb" class="animable"></path><path d="M145.59,146.59a6.4,6.4,0,0,0,3.77,3.13c2.15.65,3.28-1.26,2.71-3.32-.5-1.85-2.23-4.42-4.41-4.17a2.9,2.9,0,0,0-2.45,3.29A2.75,2.75,0,0,0,145.59,146.59Z" style="fill: rgb(235, 179, 118); transform-origin: 148.698px 146.031px;" id="ele2rm26pb3u6" class="animable"></path><path d="M150.29,122.33c-1.52,2.61,2.27,7.44,10.23,7,6-.35,13.53,6.1,12.92-.87C172.93,122.1,157.84,119.06,150.29,122.33Z" style="fill: rgb(38, 50, 56); transform-origin: 161.718px 126.358px;" id="elpj1rfxming" class="animable"></path><path d="M166.47,141.58a19,19,0,0,0,3.38,4,3.06,3.06,0,0,1-2.4,1Z" style="fill: rgb(162, 78, 63); transform-origin: 168.16px 144.081px;" id="elmgl3zt8pc6h" class="animable"></path><path d="M156.55,138.68a.39.39,0,0,1-.18,0,.36.36,0,0,1-.12-.48h0a4.08,4.08,0,0,1,3.15-2,.35.35,0,0,1,.35.34.34.34,0,0,1-.32.36,3.39,3.39,0,0,0-2.59,1.71A.34.34,0,0,1,156.55,138.68Z" style="fill: rgb(38, 50, 56); transform-origin: 157.977px 137.445px;" id="el9cg8a4fy14r" class="animable"></path><path d="M171.41,135.88a.34.34,0,0,1-.17,0,3.44,3.44,0,0,0-3.09-.2.35.35,0,0,1-.47-.14h0a.36.36,0,0,1,.16-.48,4.11,4.11,0,0,1,3.75.21.35.35,0,0,1-.18.66Z" style="fill: rgb(38, 50, 56); transform-origin: 169.711px 135.318px;" id="el2ftx5811ysj" class="animable"></path><path d="M218.46,167.72l4.85-5.42,8.2-2.5,5.38-2.5a1.5,1.5,0,0,1,2.12,1.51l-.68,6.54a1.5,1.5,0,0,1-1.69,1.33l-9.72-1.32-4.44,7.36Z" style="fill: rgb(185, 121, 100); transform-origin: 228.739px 164.941px;" id="elnzpvx1f6uu" class="animable"></path><path d="M175.22,166.14l25.32,16.71L219.43,165l6.11,4.53s-16.11,26.29-23.33,26.06-22-8.49-27.77-13.42c-3.18-2.7-3.3-7.4-1.47-15.13A1.48,1.48,0,0,1,175.22,166.14Z" style="fill: rgb(38, 50, 56); transform-origin: 198.659px 180.296px;" id="elh5g5ozpb0j" class="animable"></path><g id="eld5f4x985wgw"><path d="M176.41,169.88l-3.1-1.5-1.5,5.82c-.19,3.66.59,6.22,2.63,8a81.43,81.43,0,0,0,20.31,11.58C182.29,186.82,176.41,169.88,176.41,169.88Z" style="opacity: 0.5; transform-origin: 183.266px 181.08px;" class="animable"></path></g><path d="M128.9,228.39h46.47s.92-24.16,5-32.49c3.43-7-3.15-24.2-5.29-29.4a2.35,2.35,0,0,0-2.26-1.46l-41,1.35a1.85,1.85,0,0,0-1.73,2.31C131.78,175,135.5,194.88,128.9,228.39Z" style="fill: rgb(38, 50, 56); transform-origin: 155.121px 196.714px;" id="elj72rp9nuv3n" class="animable"></path><path d="M118.44,234.13l.65,9.26,5.74,4v2.68l.15.34a2.53,2.53,0,0,1-2,3.55l-5.14.64a2.53,2.53,0,0,1-2.83-2.33l-.55-7.2-2.68-10.92Z" style="fill: rgb(185, 121, 100); transform-origin: 118.492px 244.374px;" id="el3o8pv3oz3gy" class="animable"></path><path d="M144.77,165.73l.51-1.22a2.54,2.54,0,0,0,0-1.84l-.42-1.14a1,1,0,0,1,1.16-1.38c4.24.79,14.73,2.51,17.37.67,2.42-1.68,1.33.69.55,2.11a1.64,1.64,0,0,0,.17,1.83l1.41,1.71s1.51,3.83-20,.66A1,1,0,0,1,144.77,165.73Z" style="fill: rgb(38, 50, 56); transform-origin: 155.112px 164.252px;" id="elqxong8gw3xs" class="animable"></path><g id="eli2w92891mb"><path d="M144.77,165.73l.51-1.22a2.54,2.54,0,0,0,0-1.84l-.42-1.14a1,1,0,0,1,1.16-1.38c4.24.79,14.73,2.51,17.37.67,2.42-1.68,1.33.69.55,2.11a1.64,1.64,0,0,0,.17,1.83l1.41,1.71s1.51,3.83-20,.66A1,1,0,0,1,144.77,165.73Z" style="opacity: 0.2; transform-origin: 155.112px 164.252px;" class="animable"></path></g><g id="el72tx3r3vux8"><path d="M132.52,199.39c4.32-15.3,2-23,2-23h-2.9a125.59,125.59,0,0,1,.91,23.06Z" style="opacity: 0.5; transform-origin: 133.381px 187.92px;" class="animable"></path></g><path d="M131.67,168a1.54,1.54,0,0,0-2.44,0c-4.84,6.28-22.8,30.05-23.28,37.9-.56,9.07,6.85,37,6.85,37l6.66-1.48-1.22-35S129.55,191,132.5,185.72C134.72,181.72,137.47,175.77,131.67,168Z" style="fill: rgb(38, 50, 56); transform-origin: 120.527px 205.15px;" id="elx9huabxoe6d" class="animable"></path><polygon points="175.09 230.2 128.3 230.2 128.91 226.94 175.48 226.94 175.09 230.2" style="fill: rgb(144, 202, 249); transform-origin: 151.89px 228.57px;" id="el7hev6xz3k4" class="animable"></polygon><polygon points="152.28 230.2 152.28 226.94 134.73 226.94 133.99 230.2 152.28 230.2" style="fill: rgb(144, 202, 249); transform-origin: 143.135px 228.57px;" id="ellqzgd37tp4" class="animable"></polygon><rect x="155.12" y="226.94" width="9.97" height="3.26" style="fill: rgb(144, 202, 249); transform-origin: 160.105px 228.57px;" id="el43nsdnxnras" class="animable"></rect><polygon points="132.1 226.94 128.91 226.94 128.3 230.2 131.43 230.2 132.1 226.94" style="fill: rgb(144, 202, 249); transform-origin: 130.2px 228.57px;" id="el12j8ts1udh8o" class="animable"></polygon><polygon points="167.99 226.94 167.99 230.2 175.09 230.2 175.48 226.94 167.99 226.94" style="fill: rgb(144, 202, 249); transform-origin: 171.735px 228.57px;" id="elufckuswri5" class="animable"></polygon><g id="eljb01dc0txti"><g style="opacity: 0.7; transform-origin: 151.89px 228.57px;" class="animable"><polygon points="152.28 230.2 152.28 226.94 134.73 226.94 133.99 230.2 152.28 230.2" style="fill: rgb(255, 255, 255); transform-origin: 143.135px 228.57px;" id="eluoujhw2c0ja" class="animable"></polygon><rect x="155.12" y="226.94" width="9.97" height="3.26" style="fill: rgb(255, 255, 255); transform-origin: 160.105px 228.57px;" id="elr399vkwlrfr" class="animable"></rect><polygon points="132.1 226.94 128.91 226.94 128.3 230.2 131.43 230.2 132.1 226.94" style="fill: rgb(255, 255, 255); transform-origin: 130.2px 228.57px;" id="elq0mlqvtqx3c" class="animable"></polygon><polygon points="167.99 226.94 167.99 230.2 175.09 230.2 175.48 226.94 167.99 226.94" style="fill: rgb(255, 255, 255); transform-origin: 171.735px 228.57px;" id="eld5vtkbqw17t" class="animable"></polygon></g></g><path d="M163.89,148.86a6.22,6.22,0,0,0,1.22-.1.22.22,0,0,0,.17-.25h0a.22.22,0,0,0-.24-.18,5.77,5.77,0,0,1-5-1.4.22.22,0,0,0-.32.29A6,6,0,0,0,163.89,148.86Z" style="fill: rgb(38, 50, 56); transform-origin: 162.486px 147.874px;" id="elwmgly29zfrk" class="animable"></path><path d="M162.56,139.65a.26.26,0,0,0-.19.06,2.07,2.07,0,0,1-1.78.51.26.26,0,0,0-.31.18.25.25,0,0,0,.17.31h0a2.53,2.53,0,0,0,2.25-.62.25.25,0,0,0,0-.36h0A.24.24,0,0,0,162.56,139.65Z" style="fill: rgb(38, 50, 56); transform-origin: 161.523px 140.207px;" id="elsukweyzekyh" class="animable"></path><path d="M170.66,139.26a.26.26,0,0,0-.19.06,2,2,0,0,1-1.77.55.25.25,0,0,0-.13.49h0a2.52,2.52,0,0,0,2.23-.66.24.24,0,0,0,0-.35h0A.28.28,0,0,0,170.66,139.26Z" style="fill: rgb(38, 50, 56); transform-origin: 169.629px 139.833px;" id="elxglecfooctf" class="animable"></path><path d="M155.14,126.35a28.61,28.61,0,0,0,8,4.58.36.36,0,0,1-.11.7C159.89,131.69,154.8,131.07,155.14,126.35Z" style="fill: rgb(38, 50, 56); transform-origin: 159.253px 128.992px;" id="els76ep216khr" class="animable"></path><path d="M170.53,136.46c-2.37.23-3.64,1.29-3.65,3l-.76.08a2.51,2.51,0,0,0-1.37-1.88,5.14,5.14,0,0,0-2.78-.36,5.23,5.23,0,0,0-2.67.88,2.68,2.68,0,0,0-.52.55L150.49,145l.44.58s7.36-5.15,7.39-4.91a4,4,0,0,0,3.93,3.57,2.55,2.55,0,0,0,.39,0,3.91,3.91,0,0,0,3.55-3.95l.76-.08a4,4,0,0,0,3.87,3.22l.38,0a4,4,0,0,0,3.56-4.32C174.57,137.13,173.07,136.21,170.53,136.46Zm-5.78,5.86a3.17,3.17,0,0,1-2.18,1.16,3.23,3.23,0,0,1-3.53-2.9,1.89,1.89,0,0,1,.71-1.83A4.44,4.44,0,0,1,162,138c.25,0,.5,0,.73,0a3.73,3.73,0,0,1,1.65.32,1.92,1.92,0,0,1,1.05,1.66A3.23,3.23,0,0,1,164.75,142.32Zm8.56-.83a3.19,3.19,0,0,1-2.18,1.16,3.23,3.23,0,0,1-3.53-2.9c0-.56-.22-2.26,3-2.57a6.29,6.29,0,0,1,.73,0,3.81,3.81,0,0,1,1.66.32,1.93,1.93,0,0,1,1,1.66A3.24,3.24,0,0,1,173.31,141.49Z" style="fill: rgb(144, 202, 249); transform-origin: 162.632px 141px;" id="elfizvykju958" class="animable"></path><path d="M154.65,124.25c4.15,3.18,1.39,9-.61,11.59s-5.09,5.06-2.7,8.92,4,14.5-3.6,12.64-7.26-14.57-5.05-20.44S149.7,120.47,154.65,124.25Z" style="fill: rgb(38, 50, 56); transform-origin: 149.06px 140.536px;" id="elaymtmq9jcdt" class="animable"></path><path d="M242.84,149.29H241v-5.23h-4.19v.8a4.39,4.39,0,0,1-8.78,0v-.8h-4.19v5.23h-1.59a4.39,4.39,0,1,0,0,8.78h1.59v5.23H228v-.8a4.39,4.39,0,0,1,8.78,0v.8H241v-5.23h1.84a4.39,4.39,0,0,0,0-8.78Z" style="fill: rgb(144, 202, 249); transform-origin: 232.545px 153.68px;" id="elns6pmbuc0en" class="animable"></path><g id="elo8880n2313"><path d="M242.84,149.29H241v-5.23h-4.19v.8a4.39,4.39,0,0,1-8.78,0v-.8h-4.19v5.23h-1.59a4.39,4.39,0,1,0,0,8.78h1.59v5.23H228v-.8a4.39,4.39,0,0,1,8.78,0v.8H241v-5.23h1.84a4.39,4.39,0,0,0,0-8.78Z" style="opacity: 0.4; transform-origin: 232.545px 153.68px;" class="animable"></path></g></g><defs>     <filter id="active" height="200%">         <feMorphology in="SourceAlpha" result="DILATED" operator="dilate" radius="2"></feMorphology>                <feFlood flood-color="#32DFEC" flood-opacity="1" result="PINK"></feFlood>        <feComposite in="PINK" in2="DILATED" operator="in" result="OUTLINE"></feComposite>        <feMerge>            <feMergeNode in="OUTLINE"></feMergeNode>            <feMergeNode in="SourceGraphic"></feMergeNode>        </feMerge>    </filter>    <filter id="hover" height="200%">        <feMorphology in="SourceAlpha" result="DILATED" operator="dilate" radius="2"></feMorphology>                <feFlood flood-color="#ff0000" flood-opacity="0.5" result="PINK"></feFlood>        <feComposite in="PINK" in2="DILATED" operator="in" result="OUTLINE"></feComposite>        <feMerge>            <feMergeNode in="OUTLINE"></feMergeNode>            <feMergeNode in="SourceGraphic"></feMergeNode>        </feMerge>            <feColorMatrix type="matrix" values="0   0   0   0   0                0   1   0   0   0                0   0   0   0   0                0   0   0   1   0 "></feColorMatrix>    </filter></defs></svg>